<svg width="197" height="30" viewBox="0 0 197 30" fill="none" xmlns="http://www.w3.org/2000/svg">
<path d="M21.5425 29.6013L19.4295 22.6645H8.80494L6.69199 29.6013H0.0341797L10.3199 0.33887H17.8747L28.2003 29.6013H21.5425ZM17.9544 17.4817C16.001 11.196 14.898 7.6412 14.6455 6.81728C14.4063 5.99336 14.2335 5.34219 14.1272 4.86379C13.6887 6.56478 12.4329 10.7708 10.3598 17.4817H17.9544Z" fill="#1890DC"/>
<path d="M44.2667 5.18272C41.9412 5.18272 40.1405 6.0598 38.8647 7.81395C37.589 9.55482 36.9511 11.9867 36.9511 15.1096C36.9511 21.608 39.3897 24.8571 44.2667 24.8571C46.3133 24.8571 48.7917 24.3455 51.702 23.3223V28.505C49.3099 29.5017 46.6388 30 43.6887 30C39.4495 30 36.2069 28.7176 33.9611 26.1528C31.7152 23.5747 30.5923 19.8804 30.5923 15.0698C30.5923 12.0399 31.1438 9.3887 32.2468 7.11628C33.3498 4.83056 34.9312 3.08306 36.991 1.87375C39.0641 0.651163 41.4893 0.0398671 44.2667 0.0398671C47.0973 0.0398671 49.9412 0.724252 52.7983 2.09302L50.8049 7.11628C49.7152 6.59801 48.6189 6.14618 47.5159 5.7608C46.4129 5.37541 45.3299 5.18272 44.2667 5.18272Z" fill="#1890DC"/>
<path d="M70.3 5.18272C67.9744 5.18272 66.1737 6.0598 64.898 7.81395C63.6222 9.55482 62.9843 11.9867 62.9843 15.1096C62.9843 21.608 65.4229 24.8571 70.3 24.8571C72.3465 24.8571 74.8249 24.3455 77.7352 23.3223V28.505C75.3432 29.5017 72.6721 30 69.7219 30C65.4827 30 62.2402 28.7176 59.9943 26.1528C57.7485 23.5747 56.6255 19.8804 56.6255 15.0698C56.6255 12.0399 57.177 9.3887 58.28 7.11628C59.383 4.83056 60.9644 3.08306 63.0242 1.87375C65.0973 0.651163 67.5226 0.0398671 70.3 0.0398671C73.1305 0.0398671 75.9744 0.724252 78.8315 2.09302L76.8382 7.11628C75.7485 6.59801 74.6521 6.14618 73.5491 5.7608C72.4461 5.37541 71.3631 5.18272 70.3 5.18272Z" fill="#1890DC"/>
<path d="M100.739 29.6013H83.9545V0.458472H100.739V5.52159H90.1339V11.9203H100.001V16.9834H90.1339V24.4983H100.739V29.6013Z" fill="#1890DC"/>
<path d="M132.692 29.6013H124.838L112.16 7.55482H111.981C112.234 11.4485 112.36 14.2259 112.36 15.887V29.6013H106.838V0.458472H114.632L127.29 22.2857H127.43C127.23 18.4983 127.131 15.8206 127.131 14.2525V0.458472H132.692V29.6013Z" fill="#1890DC"/>
<path d="M164.227 14.7508C164.227 19.5482 162.858 23.2226 160.121 25.7741C157.396 28.3256 153.456 29.6013 148.3 29.6013H140.047V0.458472H149.197C153.954 0.458472 157.649 1.71429 160.28 4.22591C162.911 6.73754 164.227 10.2458 164.227 14.7508ZM157.808 14.9103C157.808 8.65116 155.044 5.52159 149.516 5.52159H146.227V24.4983H148.878C154.832 24.4983 157.808 21.3023 157.808 14.9103Z" fill="#1890DC"/>
<path d="M196.719 14.99C196.719 19.814 195.523 23.5216 193.131 26.113C190.739 28.7043 187.31 30 182.845 30C178.38 30 174.951 28.7043 172.559 26.113C170.167 23.5216 168.971 19.8007 168.971 14.9502C168.971 10.0997 170.167 6.39867 172.559 3.84718C174.964 1.28239 178.406 0 182.885 0C187.363 0 190.785 1.28904 193.15 3.86711C195.529 6.44518 196.719 10.1528 196.719 14.99ZM175.449 14.99C175.449 18.2458 176.067 20.6977 177.303 22.3455C178.539 23.9934 180.386 24.8173 182.845 24.8173C187.775 24.8173 190.24 21.5415 190.24 14.99C190.24 8.42525 187.788 5.14286 182.885 5.14286C180.426 5.14286 178.572 5.97342 177.323 7.63455C176.074 9.28239 175.449 11.7342 175.449 14.99Z" fill="#1890DC"/>
</svg>
