<svg width="125" height="32" viewBox="0 0 125 32" fill="none" xmlns="http://www.w3.org/2000/svg">
<path d="M111.405 26.7927C111.31 25.0886 111.31 22.7217 111.31 20.6389H110.272C106.59 20.6389 105.173 21.8694 105.173 24.0472C105.173 26.3193 106.307 27.1714 108.95 27.1714C109.894 27.0767 110.838 26.9821 111.405 26.7927ZM119.524 31.432C114.709 31.432 110.933 32 107.156 32C99.9808 32 97.432 29.0651 97.432 23.9527C97.432 19.0295 101.492 16.3788 110.272 16.3788H111.499V15.9054C111.499 12.4023 110.461 10.9822 106.873 10.9822C104.324 10.9822 101.775 11.8342 99.9811 12.781L99.6981 7.19521C101.681 6.34315 105.079 5.7751 108.856 5.7751C116.598 5.7751 119.43 8.33152 119.43 15.2425C119.43 18.9348 119.147 22.1537 119.147 24.4261C119.147 26.414 119.147 29.3489 119.524 31.432ZM37.1033 16.7573C40.5023 16.7573 42.1071 15.6212 42.1071 13.1599C42.1071 11.4558 40.9742 10.509 39.0859 10.509C35.876 10.509 34.7428 13.0654 34.7428 16.5681V16.6628C35.4039 16.7573 36.2536 16.7573 37.1033 16.7573ZM13.9726 26.7927C13.8782 25.0886 13.8782 22.7217 13.8782 20.6389H12.8397C9.15765 20.6389 7.74148 21.8694 7.74148 24.0472C7.74148 26.3193 8.87464 27.1714 11.6123 27.1714C12.3676 27.0767 13.3117 26.9821 13.9726 26.7927ZM38.0474 20.9229C37.1033 20.9229 35.5927 20.9229 34.8377 20.8283V21.0178C34.8377 24.5208 37.1979 26.7929 41.5409 26.7929C44.1841 26.7929 46.5444 25.9409 48.244 24.9941L48.5273 30.5799C46.8279 31.3371 43.5235 31.9053 40.2191 31.9053C31.4389 31.9053 27.1904 28.8755 26.4351 20.7338C25.3966 20.6391 23.8858 20.6391 21.809 20.6391C21.7145 22.0592 21.7145 23.2898 21.7145 24.4261C21.7145 26.4142 21.7145 29.3491 22.0922 31.3371C17.277 31.3371 13.5006 31.9053 9.72412 31.9053C2.54888 31.9053 0 28.9702 0 23.9527C0 19.0295 4.05945 16.3788 12.8399 16.3788H14.0672V15.9054C14.0672 12.4023 13.0285 10.9822 9.4411 10.9822C6.89178 10.9822 4.34291 11.8342 2.5491 12.781L2.26564 7.19521C4.24827 6.34315 7.64707 5.7751 11.4235 5.7751C19.1652 5.7751 21.9976 8.33152 21.9976 15.2425V16.3788C23.8858 16.3788 25.2075 16.3788 26.5293 16.4735C27.2846 9.65673 30.7778 5.77533 39.3692 5.77533C46.45 5.77533 49.7544 8.71022 49.7544 13.2546C49.7544 18.5561 45.7891 20.9229 38.0474 20.9229ZM94.222 19.8815V14.9585C94.222 8.70977 91.4841 5.86956 83.648 5.86956C79.2104 5.86956 76.0951 6.62695 71.1855 6.62695C71.4687 11.0766 71.4687 16.473 71.4687 19.8813C71.4687 23.2896 71.3743 29.4434 71.1855 31.4317H79.5881C79.4936 29.4434 79.305 23.6682 79.305 19.8813C79.305 17.7038 79.305 15.0529 79.3995 11.4553C80.2492 11.1715 81.2877 10.9819 82.4206 10.9819C85.3474 10.9819 86.2915 12.4021 86.2915 16.0943V19.8813C86.2915 23.2896 86.1971 29.4434 86.0085 31.4317H94.4108C94.4108 29.4436 94.222 23.6685 94.222 19.8815ZM67.7869 25.846L68.1646 31.3368C67.5037 31.5264 65.521 31.9051 62.7831 31.9051C57.2129 31.9051 54.2861 29.6329 54.2861 23.9525C54.2861 19.5026 54.3805 14.6745 54.3805 12.0234H51.5482C51.6426 10.7928 51.5482 9.08847 51.5482 7.85793C55.8911 7.10054 57.2129 4.7337 57.8737 0H62.5943C62.4055 1.89348 62.3113 4.7337 62.3113 6.62717H67.3148V12.0236H62.2167V21.6803C62.2167 25.4673 62.9719 26.414 65.521 26.414C66.3707 26.414 67.3148 26.13 67.7869 25.846ZM122.829 7.57391C123.206 7.57391 123.395 7.38456 123.395 7.10054C123.395 7.00587 123.301 6.81651 123.301 6.81651C123.206 6.72184 123.017 6.72184 122.829 6.72184H122.451V7.57391H122.829ZM122.073 6.43782H122.734C123.112 6.43782 123.395 6.5325 123.489 6.62717C123.678 6.81652 123.772 7.00587 123.772 7.19521C123.772 7.28989 123.772 7.38478 123.678 7.47923C123.678 7.57391 123.583 7.66858 123.583 7.66858L123.395 7.85816C123.3 7.85816 123.206 7.95283 123.206 7.95283L123.867 8.99424H123.489C123.394 8.99424 123.394 8.89957 123.3 8.8049L122.733 7.95283H122.45V8.99424H122.073V6.43782H122.073ZM122.073 9.37271C122.262 9.46739 122.545 9.56206 122.829 9.56206C123.112 9.56206 123.301 9.46739 123.584 9.37271C123.773 9.27804 123.961 9.08869 124.15 8.99402C124.339 8.80467 124.433 8.61532 124.433 8.42597C124.528 8.2364 124.528 7.95261 124.528 7.76304C124.528 7.57369 124.528 7.28967 124.433 7.10032L124.15 6.53227C123.961 6.3427 123.867 6.24825 123.584 6.15358C123.395 6.05891 123.112 5.96423 122.829 5.96423C122.545 5.96423 122.356 6.05891 122.073 6.15358C121.884 6.24825 121.696 6.34292 121.507 6.53227C121.318 6.72162 121.224 6.91097 121.224 7.10032C121.129 7.28967 121.129 7.57369 121.129 7.76304C121.129 8.14173 121.224 8.42598 121.412 8.80467C121.601 8.99402 121.79 9.27804 122.073 9.37271ZM121.318 9.27804C121.129 9.08847 121.035 8.80467 120.94 8.6151C120.846 8.3313 120.846 8.04706 120.846 7.76304C120.846 7.47924 120.94 7.19499 121.035 6.91119C121.129 6.62717 121.224 6.43782 121.412 6.24825C121.601 6.0589 121.79 5.86955 122.073 5.77488C122.357 5.68021 122.64 5.58553 122.923 5.58553C123.206 5.58553 123.584 5.68021 123.773 5.77488C124.056 5.86955 124.245 6.0589 124.434 6.24825C124.622 6.43782 124.717 6.72162 124.811 6.91119C124.906 7.19499 125 7.47924 125 7.76304C125 8.04706 124.906 8.3313 124.811 8.6151C124.717 8.89912 124.622 9.08847 124.434 9.27804C124.245 9.46739 124.056 9.65651 123.773 9.75141C123.489 9.84608 123.206 9.94076 122.923 9.94076C122.64 9.94076 122.262 9.84608 122.073 9.75141C121.695 9.65674 121.507 9.46739 121.318 9.27804Z" fill="#7A3D94"/>
</svg>
