<svg width="181" height="35" viewBox="0 0 181 35" fill="none" xmlns="http://www.w3.org/2000/svg">
<path d="M167.258 4.84783C167.258 4.84783 174.311 4.74335 177.618 2.52843C177.618 2.52843 179.063 4.26276 179.063 10.1553C179.063 16.0478 176.635 26.9553 167.362 31.7821C167.362 31.7821 156.625 27.812 155.746 9.86275C155.746 9.86275 155.348 5.89261 157.295 2.42395C157.295 2.42395 161.251 4.45082 167.258 4.84783Z" fill="white"/>
<path d="M141.576 32.785C141.576 31.9074 142.308 31.176 143.187 31.176C144.087 31.176 144.799 31.9074 144.799 32.785C144.799 33.6835 144.087 34.3939 143.187 34.3939C142.308 34.4148 141.576 33.6835 141.576 32.785ZM144.548 32.785C144.548 32.0118 143.983 31.4268 143.187 31.4268C142.392 31.4268 141.827 31.9909 141.827 32.785C141.827 33.579 142.392 34.1432 143.187 34.1432C143.983 34.1432 144.548 33.579 144.548 32.785ZM142.832 33.7044H142.601V31.8656H143.397C143.878 31.8656 144.046 32.0536 144.046 32.3671C144.046 32.7223 143.794 32.8477 143.48 32.8895L144.025 33.7044H143.752L143.229 32.8895H142.832V33.7044ZM143.145 32.6596C143.397 32.6596 143.773 32.7014 143.773 32.3462C143.773 32.0954 143.564 32.0536 143.334 32.0536H142.832V32.6387H143.145V32.6596Z" fill="#0070BA"/>
<path d="M132.429 27.206C137.955 27.206 142.434 22.7343 142.434 17.2179C142.434 11.7015 137.955 7.22986 132.429 7.22986C126.903 7.22986 122.403 11.7015 122.403 17.2179C122.403 22.7343 126.903 27.206 132.429 27.206Z" fill="white"/>
<path d="M134.167 12.0985C134.167 11.3463 135.15 11.2209 134.69 9.57019C136.155 9.88362 137.39 11.012 138.478 12.0985H134.167Z" fill="#0070BA"/>
<path d="M130.462 12.0985H126.15C127.092 10.8239 128.473 9.88362 129.938 9.57019C129.478 11.2209 130.462 11.3463 130.462 12.0985Z" fill="#0070BA"/>
<path d="M140.216 15.4209C140.76 18.4925 139.86 20.7075 138.436 22.4836C138.436 22.4836 135.548 17.0507 135.234 16.4448C134.92 15.8597 135.234 15.8179 135.59 15.7761C135.883 15.7761 140.216 15.4209 140.216 15.4209Z" fill="#0070BA"/>
<path d="M124.413 15.4209C124.413 15.4209 128.766 15.7761 129.038 15.7761C129.394 15.8179 129.708 15.8597 129.394 16.4448C129.08 17.0299 126.192 22.4836 126.192 22.4836C124.769 20.7075 123.848 18.4925 124.413 15.4209Z" fill="#0070BA"/>
<path d="M135.673 24.5314C134.773 25.012 133.622 25.2418 132.304 25.2418C131.006 25.2418 129.855 25.012 128.955 24.5314C128.955 24.5314 132.031 19.6836 132.304 19.6836C132.597 19.6836 135.673 24.5314 135.673 24.5314Z" fill="#0070BA"/>
<path d="M149.362 9.71638H139.88V0.271606H124.789V9.73728H115.308V24.8447H124.789V34.3104H139.88V24.8447H149.362V9.71638ZM125.773 10.6358C127.468 8.94325 129.792 7.89847 132.387 7.89847C134.878 7.89847 137.159 8.88056 138.834 10.4686C139.692 11.2835 140.383 12.2447 140.885 13.3313H134.438C133.81 13.3313 133.308 13.1432 133.015 12.8507C132.638 12.4746 132.617 11.8895 133.12 11.2835C134.02 10.1761 133.245 9.19399 132.282 9.1522C131.341 9.11041 130.545 10.1761 131.445 11.2835C131.948 11.9104 131.927 12.4746 131.55 12.8507C131.257 13.1432 130.754 13.3313 130.127 13.3313H123.847C124.371 12.3074 125.019 11.4089 125.773 10.6358ZM123.052 17.2388C123.052 16.1313 123.24 15.0447 123.596 14.0626C125.878 14.1044 127.908 14.4388 129.143 14.5223C130.482 14.6059 131.487 15.3164 130.566 17.0089C129.75 18.5343 127.133 23.4029 126.526 24.5313C124.412 22.797 123.052 20.1641 123.052 17.2388ZM132.387 26.5582C130.42 26.5582 128.599 25.9522 127.092 24.9283C127.887 23.7791 131.278 18.8895 131.487 18.5343C131.717 18.1373 131.927 17.9074 132.324 17.9074C132.722 17.9074 132.91 18.1373 133.162 18.5343C133.392 18.9313 137.599 24.991 137.599 24.991C136.092 25.994 134.313 26.5582 132.387 26.5582ZM138.122 24.594C137.997 24.3641 134.962 18.6806 134.041 16.988C133.141 15.2955 134.124 14.585 135.464 14.5015C136.741 14.4179 138.834 14.0626 141.178 14.0418C141.534 15.0447 141.743 16.1104 141.743 17.2388C141.743 20.2268 140.32 22.9015 138.122 24.594Z" fill="#0070BA"/>
<path d="M174.521 32.7224C174.521 31.803 175.274 31.0508 176.216 31.0508C177.137 31.0508 177.89 31.803 177.89 32.7224C177.89 33.6418 177.137 34.415 176.216 34.415C175.274 34.415 174.521 33.6418 174.521 32.7224ZM177.618 32.7224C177.618 31.9075 177.032 31.3224 176.216 31.3224C175.379 31.3224 174.793 31.9075 174.793 32.7224C174.793 33.5582 175.379 34.1433 176.216 34.1433C177.011 34.1433 177.618 33.5373 177.618 32.7224ZM175.818 33.6627H175.567V31.7403H176.404C176.907 31.7403 177.074 31.9284 177.074 32.2627C177.074 32.6388 176.802 32.7642 176.467 32.806L177.032 33.6627H176.76L176.216 32.806H175.797V33.6627H175.818ZM176.153 32.597C176.425 32.597 176.802 32.6388 176.802 32.2836C176.802 32.012 176.572 31.9911 176.341 31.9911H175.818V32.6179H176.153V32.597Z" fill="#0070BA"/>
<path d="M178.749 0C175.505 1.71343 172.26 2.63284 167.404 2.63284C162.569 2.63284 159.304 1.73433 156.06 0C154.72 2.3194 153.967 5.66269 153.967 9.8C153.967 20.8119 160.162 28.1672 161.69 29.797C163.218 31.406 166.232 33.9134 167.404 34.1642C168.576 33.9134 171.59 31.406 173.118 29.797C174.646 28.1881 180.842 20.8119 180.842 9.8C180.842 5.66269 180.088 2.3194 178.749 0ZM172.553 26.8507C171.59 28.0209 168.053 31.197 167.404 31.3433C166.755 31.197 163.218 28 162.255 26.8507C161.544 25.994 156.374 19.6209 156.374 9.69552C156.374 7.56418 156.709 4.49254 157.441 3.38507C159.451 4.45075 163.302 5.43283 167.404 5.43283C171.507 5.43283 175.358 4.42985 177.367 3.38507C178.1 4.49254 178.435 7.58507 178.435 9.69552C178.435 19.6209 173.265 25.994 172.553 26.8507Z" fill="#0070BA"/>
<path d="M166.044 9.27762C166.044 9.27762 165.96 9.50747 165.813 9.52837C165.667 9.54926 165.562 9.48658 165.458 9.42389C165.185 9.25673 164.997 9.21493 164.997 9.21493C164.997 9.21493 165.541 9.00598 166.044 9.27762Z" fill="#0070BA"/>
<path d="M176.76 4.99402C174.96 5.95521 171.109 6.4985 167.425 6.4985C163.741 6.4985 159.89 5.95521 158.09 4.99402C157.42 5.997 157.295 8.56715 157.358 10.4686C157.651 20.3104 162.172 25.1373 162.8 25.9104C163.658 26.9552 166.86 29.9433 167.446 30.0895C168.032 29.9433 171.235 26.9552 172.093 25.9104C172.721 25.1373 177.242 20.3104 177.535 10.4686C177.535 8.56715 177.409 5.997 176.76 4.99402ZM166.19 27.4567C166.149 27.4985 166.107 27.5403 166.023 27.4985C165.814 27.394 165.793 26.9761 165.793 26.8925C165.793 26.3701 166.128 25.7224 166.567 25.5552L166.588 26.4955C166.316 26.7463 166.337 27.2268 166.19 27.4567ZM167.676 28.1045C167.676 28.1045 167.237 28.3134 166.881 28.0627C166.881 27.9164 166.86 27.1642 166.86 26.5582C166.839 25.9313 166.797 24.8657 166.776 23.988C166.923 24.0507 166.923 24.0298 167.111 24.0925C167.404 24.1761 167.593 24.3433 167.676 24.4477C167.865 24.6358 167.823 25.5761 167.802 25.994C167.76 27.0388 167.676 28 167.676 28.1045ZM167.99 25.8686V24.7194C167.99 24.4686 167.886 24.2806 167.739 24.1343C167.614 24.0089 167.509 23.9254 167.258 23.8C167.111 23.7164 167.007 23.6955 166.651 23.6119C164.265 23.006 164.851 20.7701 166.316 20.7492C166.337 20.9373 166.358 21.1463 166.358 21.3134C166.358 21.5224 166.4 21.6895 166.421 21.9612C166.044 22.1492 166.337 22.191 166.504 22.2537C166.693 22.3164 167.132 22.5463 167.383 22.6507C167.572 22.7343 168.011 22.9015 168.158 22.9642C169.497 23.5074 169.351 25.1373 167.99 25.8686ZM166.567 20.7283C166.546 20.5612 166.546 20.0806 166.546 19.9134C166.776 19.9343 166.881 19.9552 167.132 19.9761C167.614 20.0388 167.614 19.9552 167.865 20.0179C167.865 20.0806 167.886 20.3731 167.865 20.4776C167.865 20.6657 167.844 20.9164 167.844 21.1045C167.844 21.4597 167.865 21.4597 167.865 21.794C167.865 21.9821 167.865 22.3582 167.865 22.5254C167.676 22.5045 167.425 22.3791 167.237 22.2955C166.944 22.191 166.797 22.0448 166.63 21.9403C166.63 21.8776 166.63 21.6686 166.609 21.606V21.2089L166.567 20.7283ZM168.074 21.8985C168.074 21.606 168.095 21.2925 168.116 20.9582C168.137 20.7701 168.137 20.7074 168.179 20.5612C168.346 20.3731 168.702 20.3104 168.451 19.9343C168.304 19.7254 167.781 19.788 167.3 19.7254C167.049 19.7045 166.797 19.7045 165.981 19.5582C164.076 19.203 164.202 16.7582 165.437 16.2776L165.814 17.197L166.149 17.9701C166.693 18.0119 166.881 17.991 167.509 18.0746C167.614 18.0955 167.823 18.1373 168.179 18.2209C170.753 18.7433 170.125 21.6895 168.074 21.8985ZM165.542 15.797L166.149 14.8149L167.844 14.9403V17.8239L166.358 17.6776L165.939 16.7373L165.542 15.797ZM168.221 17.5522C167.99 16.591 168.116 15.7134 168.116 15.7134C168.911 15.6298 168.325 14.794 168.116 14.7522C167.802 14.6895 167.551 14.6895 167.028 14.6477C166.693 14.606 166.107 14.5642 165.814 14.5433C160.707 13.8746 161.46 9.2776 163.951 8.88058C165.751 8.58805 166.714 9.2776 167.028 10.0089C167.028 10.0089 166.504 10.2597 166.086 10.197C165.269 10.0925 164.767 10.1761 164.767 10.1761C165.039 10.4269 165.96 10.5731 166.337 10.8866C165.918 11.0746 165.437 11.0537 164.997 10.991C164.621 10.9492 164.265 10.8657 163.888 10.7194C163.741 11.1791 163.448 12.1612 165.709 12.6209C166.023 12.6836 166.421 12.788 166.818 12.8298C167.258 12.8716 167.635 12.9343 167.99 13.0388C168.137 13.0806 168.283 13.1224 168.409 13.1642C171.591 13.9164 170.607 17.5731 168.221 17.5522ZM170.544 10.0298C169.225 11.3045 168.597 11.9731 168.263 12.3074C168.242 12.3283 168.074 12.6627 167.928 12.7463L166.086 12.4328C166.023 12.0567 166.002 11.5761 166.023 11.1582C166.4 11.1164 166.483 11.0746 166.714 10.8866L166.63 10.6358C167.174 10.803 167.676 10.8866 167.865 10.8657L167.635 10.6149C167.383 10.5731 167.111 10.4477 166.797 10.3433C167.216 10.2806 167.363 10.1552 167.363 10.1552C167.363 10.1552 167.321 9.94626 167.153 9.63282C166.86 9.08954 166.211 8.75521 166.211 8.75521C166.086 8.56715 166.149 8.42088 166.149 8.31641C166.128 7.66864 166.504 7.81491 167.174 8.04476C167.3 8.10745 167.363 8.19103 167.425 8.21193C167.865 8.39999 168.283 8.65073 168.263 8.77611C168.263 8.77611 168.221 10.3433 168.388 10.2597C168.702 10.1134 169.497 9.38208 169.77 9.21491C170.251 8.88058 171.046 9.54924 170.544 10.0298Z" fill="#0070BA"/>
<path d="M0 34.4775H1.0884V26.9969H0V26.6626H4.33266C5.75595 26.6626 6.88621 26.9551 6.88621 28.3342C6.88621 29.6298 5.8606 30.2148 4.68848 30.2984V30.3193C6.06991 30.3611 7.40948 31.0298 7.40948 32.5969C7.40948 33.8716 6.53039 34.8327 4.5629 34.8327H0V34.4775ZM2.88844 34.4775H3.53729C4.81407 34.4775 5.48385 33.9551 5.48385 32.4089C5.48385 31.0924 5.0443 30.5283 3.72567 30.5283H2.88844V34.4775ZM2.88844 30.1939H3.62102C4.64662 30.1939 5.0443 29.7551 5.0443 28.6059C5.0443 27.4775 4.70941 26.9969 3.55822 26.9969H2.88844V30.1939Z" fill="black"/>
<path d="M7.59766 34.4776H8.41395V26.997H7.59766V26.6627H8.3093C8.89536 26.6627 9.48142 26.6418 10.0675 26.6V34.4776H10.8838V34.8119H7.59766V34.4776Z" fill="black"/>
<path d="M17.1005 34.4776H17.9168V34.812C16.7865 34.8329 16.1377 34.8329 15.447 34.8747V33.9971H15.426C15.0284 34.6239 14.3167 34.9373 13.6051 34.9373C12.4539 34.9373 11.6376 34.5194 11.6376 33.0568V29.5463H10.8213V29.212H11.5329C12.119 29.212 12.7051 29.1911 13.2911 29.1493V33.412C13.2911 34.2896 13.7097 34.415 14.1911 34.415C14.9237 34.415 15.4679 33.809 15.4679 32.5971V29.5881H14.6516V29.2538H15.3633C15.9493 29.2538 16.5354 29.2329 17.1214 29.1911V34.4776H17.1005Z" fill="black"/>
<path d="M19.9051 31.7403V32.2418C19.9051 33.2657 20.0935 34.4985 21.3912 34.4985C22.354 34.4985 22.961 33.9552 23.3377 33.1194L23.6517 33.2657C23.1912 34.4149 22.2703 34.9791 21.0981 34.9791C19.319 34.9791 18.126 33.8298 18.126 32.0328C18.126 30.3403 19.3609 29.0865 21.0981 29.0865C22.5842 29.0865 23.7563 30.0477 23.7563 31.7403H19.9051ZM21.9563 31.406V30.8836C21.9563 30.2358 21.7889 29.4418 21.0144 29.4418C19.947 29.4418 19.926 30.6746 19.8842 31.406H21.9563Z" fill="black"/>
<path d="M31.5845 29.5044H31.2497C31.145 28.0835 29.9938 26.8716 28.6752 26.8716C26.4356 26.8716 26.1844 29.1701 26.1844 30.7373C26.1844 32.179 26.3309 34.6238 28.5915 34.6238C29.952 34.6238 31.145 33.3701 31.3125 31.991H31.6473V34.2895C30.7892 34.6447 29.5543 34.9581 28.5496 34.9581C25.9332 34.9581 24.2588 33.2029 24.2588 30.7373C24.2588 28.2716 25.9332 26.5164 28.5496 26.5164C29.5543 26.5164 30.5171 26.7671 31.5845 27.185V29.5044Z" fill="black"/>
<path d="M31.9194 34.4776H32.7357V29.5671H31.9194V29.2328H32.631C33.2171 29.2328 33.8031 29.2119 34.3892 29.1701V30.0895H34.4101C34.6404 29.5045 35.2055 29.0865 35.8543 29.0865C36.566 29.0865 36.9427 29.588 36.9427 30.2358C36.9427 30.6955 36.7125 31.0089 36.1892 31.0089C35.7497 31.0089 35.4985 30.7791 35.4985 30.403C35.4985 30.0686 35.5195 30.0268 35.5195 29.8597C35.5195 29.7134 35.4567 29.6298 35.3101 29.6298C34.6404 29.6298 34.3892 31.1761 34.3892 32.0537V34.4776H35.2055V34.8119H31.8984V34.4776H31.9194Z" fill="black"/>
<path d="M39.852 34.9582C38.0729 34.9582 36.8799 33.8089 36.8799 32.0119C36.8799 30.3194 38.1148 29.0657 39.852 29.0657C41.6102 29.0657 42.8242 30.3194 42.8242 32.0119C42.8242 33.7254 41.5893 34.9582 39.852 34.9582ZM39.852 29.4418C38.659 29.4418 38.659 30.6955 38.659 32.0328C38.659 33.3701 38.659 34.6239 39.852 34.6239C41.0451 34.6239 41.0451 33.3701 41.0451 32.0328C41.0242 30.6955 41.0242 29.4418 39.852 29.4418Z" fill="black"/>
<path d="M43.2217 32.7223H43.5566C43.5984 33.7462 44.2682 34.6238 45.2729 34.6238C45.859 34.6238 46.4241 34.394 46.4241 33.8089C46.4241 32.4925 43.2845 33.0776 43.2845 30.8626C43.2845 29.6925 44.1845 29.1074 45.2938 29.1074C46.152 29.1074 46.6125 29.2955 47.0729 29.4835V30.9671H46.738C46.6543 30.1731 46.0473 29.4626 45.231 29.4626C44.7706 29.4626 44.3938 29.6925 44.3938 30.1731C44.3938 31.3432 47.5334 30.8 47.5334 33.0358C47.5334 34.3104 46.3822 35 45.231 35C44.3519 35 43.6403 34.7492 43.2217 34.6029V32.7223Z" fill="black"/>
<path d="M47.9312 32.7223H48.266C48.3079 33.7462 48.9777 34.6238 49.9824 34.6238C50.5684 34.6238 51.1336 34.394 51.1336 33.8089C51.1336 32.4925 47.9939 33.0776 47.9939 30.8626C47.9939 29.6925 48.894 29.1074 50.0033 29.1074C50.8615 29.1074 51.3219 29.2955 51.7824 29.4835V30.9671H51.4475C51.3638 30.1731 50.7568 29.4626 49.9405 29.4626C49.48 29.4626 49.1033 29.6925 49.1033 30.1731C49.1033 31.3432 52.2429 30.8 52.2429 33.0358C52.2429 34.3104 51.0917 35 49.9405 35C49.0614 35 48.3498 34.7492 47.9312 34.6029V32.7223Z" fill="black"/>
<path d="M53.0596 34.4775H54.148V26.9969H53.0596V26.6626H57.3922C58.8155 26.6626 59.9458 26.9551 59.9458 28.3342C59.9458 29.6298 58.9202 30.2148 57.7481 30.2984V30.3193C59.1295 30.3611 60.469 31.0298 60.469 32.5969C60.469 33.8716 59.59 34.8327 57.6225 34.8327H53.0596V34.4775ZM55.948 34.4775H56.5969C57.8736 34.4775 58.5434 33.9551 58.5434 32.4089C58.5434 31.0924 58.1039 30.5283 56.7852 30.5283H55.948V34.4775ZM55.948 30.1939H56.6806C57.7062 30.1939 58.1039 29.7551 58.1039 28.6059C58.1039 27.4775 57.769 26.9969 56.6178 26.9969H55.948V30.1939Z" fill="black"/>
<path d="M60.6572 34.4776H61.4735V26.997H60.6572V26.6627H61.3688C61.9549 26.6627 62.5409 26.6418 63.127 26.6V34.4776H63.9433V34.8119H60.6362V34.4776H60.6572Z" fill="black"/>
<path d="M70.1601 34.4776H70.9764V34.812C69.8461 34.8329 69.1973 34.8329 68.5065 34.8747V33.9971H68.4856C68.0879 34.6239 67.3763 34.9373 66.6646 34.9373C65.5135 34.9373 64.6972 34.5194 64.6972 33.0568V29.5463H63.8809V29.212H64.5925C65.1786 29.212 65.7646 29.1911 66.3507 29.1493V33.4329C66.3507 34.3105 66.7693 34.415 67.2507 34.415C67.9833 34.415 68.5275 33.809 68.5275 32.5971V29.5881H67.7112V29.2538H68.4228C69.0089 29.2538 69.5949 29.2329 70.181 29.1911V34.4776H70.1601Z" fill="black"/>
<path d="M72.9437 31.7403V32.2418C72.9437 33.2657 73.132 34.4985 74.4297 34.4985C75.3926 34.4985 75.9996 33.9552 76.3763 33.1194L76.6903 33.2657C76.2298 34.4149 75.3088 34.9791 74.1367 34.9791C72.3576 34.9791 71.1646 33.8298 71.1646 32.0328C71.1646 30.3403 72.3995 29.0865 74.1367 29.0865C75.6228 29.0865 76.7949 30.0477 76.7949 31.7403H72.9437ZM75.0158 31.406V30.8836C75.0158 30.2358 74.8484 29.4418 74.0739 29.4418C73.0065 29.4418 72.9855 30.6746 72.9437 31.406H75.0158Z" fill="black"/>
<path d="M77.1509 32.0746H77.5486C77.6114 33.2447 78.5532 34.5611 80.0184 34.5611C80.9184 34.5611 81.7766 34.185 81.7766 33.2029C81.7766 31.1761 77.2765 31.8447 77.2765 28.982C77.2765 27.2477 78.6997 26.5164 79.9556 26.5164C80.6254 26.5164 81.2324 26.6208 82.258 27.0178L82.3417 28.982H81.944C81.7347 27.8537 80.8975 26.9343 79.7463 26.9343C78.9928 26.9343 78.4486 27.4358 78.4486 28.188C78.4486 29.985 82.865 29.3164 82.865 32.4925C82.865 33.976 81.5673 34.979 79.8928 34.979C78.9928 34.979 78.0718 34.8119 77.2346 34.4358L77.1509 32.0746Z" fill="black"/>
<path d="M83.0741 34.4776H83.8904V26.997H83.0741V26.6627H83.7857C84.3718 26.6627 84.9579 26.6418 85.5439 26.6V30.0059H85.5648C85.9625 29.4 86.5905 29.0865 87.3858 29.0865C88.537 29.0865 89.3533 29.7134 89.3533 30.9671V34.4776H90.1696V34.8119H86.8835V34.4776H87.6998V30.7373C87.6998 29.8388 87.2812 29.6298 86.7998 29.6298C86.1509 29.6298 85.523 30.2567 85.523 31.197V34.4776H86.3393V34.8119H83.0322V34.4776H83.0741Z" fill="black"/>
<path d="M90.1279 34.4775H90.9442V29.5671H90.1279V29.2328H90.8396C91.4256 29.2328 92.0117 29.2119 92.5977 29.1701V34.4775H93.414V34.8119H90.1279V34.4775ZM91.7605 26.5164C92.2629 26.5164 92.6605 26.9134 92.6605 27.4149C92.6605 27.8955 92.2629 28.3134 91.7605 28.3134C91.2582 28.3134 90.8605 27.9164 90.8605 27.4149C90.8814 26.9134 91.2791 26.5164 91.7605 26.5164Z" fill="black"/>
<path d="M95.3817 31.7403V32.2418C95.3817 33.2657 95.57 34.4985 96.8677 34.4985C97.8305 34.4985 98.4375 33.9552 98.8143 33.1194L99.1283 33.2657C98.6678 34.4149 97.7468 34.9791 96.5747 34.9791C94.7956 34.9791 93.6025 33.8298 93.6025 32.0328C93.6025 30.3403 94.8165 29.0865 96.5747 29.0865C98.0608 29.0865 99.2329 30.0477 99.2329 31.7403H95.3817ZM97.4538 31.406V30.8836C97.4538 30.2358 97.2863 29.4418 96.5119 29.4418C95.4444 29.4418 95.4235 30.6746 95.3817 31.406H97.4538Z" fill="black"/>
<path d="M99.3163 34.4776H100.154V26.997H99.3163V26.6627H100.028C100.614 26.6627 101.2 26.6418 101.786 26.6V34.4776H102.602V34.8119H99.2954V34.4776H99.3163Z" fill="black"/>
<path d="M106.977 34.1642H106.956C106.537 34.8328 105.888 34.9582 105.281 34.9582C103.544 34.9582 102.812 33.6209 102.812 32.012C102.812 30.4657 103.691 29.0657 105.386 29.0657C106.098 29.0657 106.705 29.3164 106.977 29.8806H106.998V26.9552H106.181V26.6209H106.893C107.479 26.6209 108.065 26.6 108.651 26.5582V34.4776H109.467V34.812C108.337 34.8329 107.688 34.8328 106.998 34.8746V34.1642H106.977ZM105.742 29.5672C104.612 29.5672 104.549 30.6537 104.549 32.0329C104.549 33.6836 104.863 34.4985 105.742 34.4985C106.935 34.4985 107.019 33.1194 107.019 32.0329C107.019 31.0926 106.935 29.5672 105.742 29.5672Z" fill="black"/>
<path d="M108.714 19.579C108.714 18.8477 109.321 18.2417 110.074 18.2417C110.828 18.2417 111.435 18.8477 111.435 19.579C111.435 20.3312 110.828 20.9372 110.074 20.9372C109.321 20.9372 108.714 20.3312 108.714 19.579ZM111.184 19.579C111.184 18.9312 110.702 18.4507 110.053 18.4507C109.384 18.4507 108.923 18.9312 108.923 19.579C108.923 20.2477 109.405 20.7074 110.053 20.7074C110.723 20.7283 111.184 20.2477 111.184 19.579ZM109.76 20.3521H109.572V18.8059H110.242C110.639 18.8059 110.786 18.9521 110.786 19.2238C110.786 19.5163 110.577 19.6417 110.305 19.6626L110.765 20.3521H110.514L110.074 19.6626H109.739V20.3521H109.76ZM110.032 19.4954C110.242 19.4954 110.556 19.5372 110.556 19.2447C110.556 19.0357 110.367 18.9939 110.179 18.9939H109.76V19.4954H110.032Z" fill="#0070BA"/>
<path d="M87.0505 11.3044C86.1923 10.5522 85.0202 10.1552 83.6179 10.1552C82.383 10.1552 81.1271 10.7193 80.2062 11.7223C79.2224 12.788 78.6782 14.2298 78.6782 15.7969C78.6782 17.3432 79.2434 18.7641 80.269 19.788C81.2527 20.7701 82.5504 21.2925 83.9318 21.2925C86.611 21.2925 88.118 19.3074 88.3901 17.4686L88.411 17.3641H88.3063H87.6366H87.5528V17.4268C87.3645 18.9104 86.0877 20.4984 84.1202 20.4984C82.5295 20.4984 81.6294 19.4119 81.6294 17.5313C81.6294 17.5313 81.6294 15.4417 81.6294 15.0447H88.4738H88.5575V14.9611C88.5156 13.3731 88.0133 12.1611 87.0505 11.3044ZM85.6063 14.2925H81.6294V13.1641C81.6294 12.4328 81.8388 11.8268 82.2364 11.4298C82.5923 11.0746 83.0737 10.8865 83.5969 10.8865C84.8737 10.8865 85.5853 11.7014 85.5853 13.1641V14.2925H85.6063Z" fill="#0070BA"/>
<path d="M65.3246 18.8894H65.22H64.613H64.5502L64.5293 18.9521C64.4456 19.4536 64.1316 20.2685 63.1269 20.2685C62.3525 20.2685 61.9548 19.7253 61.9548 18.6596V11.179H64.4246H64.5083V11.0954V10.5312V10.4476H64.4246H61.9548V7.31332V7.22974H61.8711C61.2641 7.29242 60.0501 7.3969 59.4222 7.3969H59.3385V7.48048V10.4476H57.7268H57.6431V10.5312V11.0954V11.179H57.7268H59.3594V17.6775C59.3594 20.0805 60.385 21.2924 62.4153 21.2924C64.7386 21.2924 65.22 19.5163 65.3246 18.9939V18.8894Z" fill="#0070BA"/>
<path d="M56.0941 20.2686V13.6656C56.0941 12.6417 55.7592 11.7641 55.1313 11.1373C54.5034 10.5104 53.6033 10.1552 52.5777 10.1552C51.1754 10.1552 50.066 10.7403 49.2497 11.8268L49.2288 10.5313V10.4477H49.1451H45.1473H45.0636V10.5313V11.0955V11.1791H45.1473H46.6962V20.2686H43.7659L37.7588 3.0716L37.7378 3.00891H37.6751H37.0681H37.0053L36.9843 3.0716L31.1237 20.2686H29.5539H29.4702V20.3522V20.9164V20.9999H29.5539H34.2843H34.368V20.9164V20.3522V20.2686H34.2843H32.1075L33.7401 15.3582H38.9937L40.6472 20.2686H38.4495H38.3658V20.3522V20.9164V20.9999H38.4495H50.7986H50.8823V20.9164V20.3522V20.2686H50.7986H49.2497V15.2328C49.2497 12.2238 50.8614 11.1373 51.9498 11.1373C52.9963 11.1373 53.5196 11.8059 53.5196 13.1432V20.2686H52.0754H51.9917V20.3522V20.9164V20.9999H52.0754H57.6639H57.7476V20.9164V20.3522V20.2686H57.6639H56.0941ZM36.3146 7.60592L38.7635 14.6059H34.0122L36.3146 7.60592Z" fill="#0070BA"/>
<path d="M76.69 20.2685V13.5611C76.69 11.9939 75.7272 10.176 73.048 10.176C70.9759 10.176 69.8875 11.179 69.427 11.7014V3.15512V3.07153H69.3433H65.3455H65.2618V3.15512V3.74019V3.82377H65.3455H66.8316V20.2685H65.22H65.1362V20.3521V20.9163V20.9999H65.22H70.955H71.0387V20.9163V20.3521V20.2685H70.955H69.427V15.17C69.427 13.4148 70.034 12.4327 70.5364 11.9312C71.0387 11.4297 71.6666 11.179 72.2945 11.179C73.7388 11.179 74.0318 12.3491 74.0318 13.3312V20.2685H72.5038H72.4201V20.3521V20.9163V20.9999H72.5038H78.2598H78.3435V20.9163V20.3521V20.2685H78.2598H76.69Z" fill="#0070BA"/>
<path d="M107.96 20.2686H106.349V13.1641C106.349 11.3253 105.072 10.176 103.042 10.176C101.095 10.176 100.07 11.1372 99.5882 11.785C99.044 10.7402 98.0184 10.176 96.5741 10.176C95.1927 10.176 93.9787 10.6984 93.1624 11.576L93.1415 10.5521V10.4686H93.0578H88.9763H88.8926V10.5521V11.1163V11.1999H88.9763H90.6298V20.2686H88.9972H88.9135V20.3521V20.9163V20.9999H88.9972H94.6067H94.6904V20.9163V20.3521V20.2686H94.6067H93.2043V15.2536C93.2462 13.7909 93.3299 12.8507 93.8532 12.1402C94.3136 11.5342 95.0253 11.179 95.7369 11.179C96.616 11.179 96.909 11.8268 96.9509 11.9104C97.1811 12.3283 97.1811 13.0387 97.1811 13.7492V20.2686H95.716H95.6323V20.3521V20.9163V20.9999H95.716H101.242H101.325V20.9163V20.3521V20.2686H101.242H99.8393V15.2536C99.8812 13.7909 99.9649 12.8507 100.488 12.1402C100.949 11.5342 101.66 11.179 102.372 11.179C103.251 11.179 103.544 11.8268 103.586 11.9104C103.816 12.3283 103.816 13.0387 103.816 13.7492V20.2686H102.372H102.288V20.3521V20.9163V20.9999H102.372H108.023H108.107V20.9163V20.3521V20.2686H107.96Z" fill="#0070BA"/>
</svg>
