<svg width="71" height="13" viewBox="0 0 71 13" fill="none" xmlns="http://www.w3.org/2000/svg">
<path d="M69.8701 5.63467L60.3013 0.110151C59.9084 -0.116625 59.4061 0.0179953 59.1793 0.410767C58.9524 0.803622 59.0871 1.30588 59.4799 1.53274L66.3968 5.52617H1.46179C1.00816 5.52617 0.640437 5.89397 0.640437 6.34752C0.640437 6.80099 1.00816 7.16888 1.46179 7.16888H66.3913L59.4799 11.1593C59.087 11.3861 58.9524 11.8884 59.1793 12.2812C59.3315 12.5447 59.6075 12.6921 59.8913 12.6921C60.0306 12.6921 60.1719 12.6564 60.3013 12.5819L69.8701 7.05725C70.1242 6.91056 70.2808 6.63935 70.2808 6.34596C70.2808 6.05257 70.1242 5.78136 69.8701 5.63467Z" fill="#DF453E"/>
</svg>
