<svg width="70" height="13" viewBox="0 0 70 13" fill="none" xmlns="http://www.w3.org/2000/svg">
<path d="M0.410675 7.05748L9.97951 12.582C10.3724 12.8088 10.8746 12.6741 11.1015 12.2814C11.3283 11.8885 11.1936 11.3863 10.8009 11.1594L3.88394 7.16598L68.819 7.16597C69.2726 7.16597 69.6403 6.79817 69.6403 6.34462C69.6403 5.89115 69.2726 5.52326 68.819 5.52326L3.88945 5.52327L10.8009 1.53287C11.1937 1.30602 11.3283 0.80376 11.1015 0.410906C10.9493 0.147415 10.6733 6.23755e-05 10.3894 6.24003e-05C10.2501 6.24125e-05 10.1089 0.03571 9.97951 0.110289L0.410674 5.63489C0.156547 5.78158 -8.20982e-06 6.0528 -8.18418e-06 6.34618C-8.15853e-06 6.63957 0.156547 6.91078 0.410675 7.05748Z" fill="#D4D9D9"/>
</svg>
