<svg width="55" height="55" viewBox="0 0 55 55" fill="none" xmlns="http://www.w3.org/2000/svg">
<g clip-path="url(#clip0)">
<path d="M32.7568 20.8363L31.2372 12.0969C30.0184 5.08819 23.9695 0.000854492 16.8561 0.000854492C9.74268 0.000854492 3.69376 5.08819 2.47405 12.0969L0.955385 20.8345C0.911032 21.0838 0.888855 21.3402 0.888855 21.5965V22.1776C0.888855 24.3926 2.52106 26.2332 4.6447 26.5606C5.38984 28.7747 7.06374 30.6047 9.22286 31.5299L9.98219 31.8555C10.4461 31.7002 10.918 31.5601 11.4059 31.4554L13.3078 31.0482V29.6662C13.3078 28.9024 12.819 28.2247 12.0943 27.9834C9.64067 27.1655 7.9854 24.8689 7.9854 22.2822V14.1851C7.9854 13.1304 8.66046 12.1945 9.66018 11.861L10.6466 11.5327L10.8568 11.1123C11.2711 10.2829 12.1191 9.7586 13.047 9.7586C13.7744 9.7586 14.4637 10.0815 14.9285 10.6404L15.9699 11.8893C17.6553 13.9119 20.1515 15.081 22.7844 15.081H25.7259V22.2813C25.7259 24.868 24.0706 27.1647 21.617 27.9825C20.8922 28.2238 20.4035 28.9015 20.4035 29.6653V31.0482L22.3045 31.4554C22.7923 31.5601 23.2651 31.6993 23.73 31.8546L24.4866 31.5299C26.6475 30.6047 28.3205 28.7747 29.0657 26.5606C31.1902 26.2323 32.8215 24.3917 32.8215 22.1776V21.5965C32.8233 21.3402 32.8002 21.0838 32.7568 20.8363Z" fill="#DF453E"/>
<path d="M16.8561 26.6128C18.2887 26.6128 19.5767 25.8171 20.2172 24.5353L20.3103 24.3482L18.7234 23.5542L18.6302 23.7414C18.2923 24.4173 17.6128 24.8378 16.8561 24.8378C16.0994 24.8378 15.4199 24.4173 15.082 23.7414L14.9888 23.5542L13.4019 24.3482L13.495 24.5344C14.1346 25.8171 15.4226 26.6128 16.8561 26.6128V26.6128Z" fill="#0A436B"/>
<path d="M22.4899 30.5878L21.2906 30.3306V29.6653C21.2906 29.283 21.5336 28.9441 21.8973 28.8235C24.7182 27.8832 26.613 25.2548 26.613 22.2813V14.1939H25.7259H23.9518C22.8447 14.1939 21.9097 13.4018 21.7155 12.2379C21.3917 10.2873 19.7204 8.87152 17.7432 8.87152V10.6457C18.8502 10.6457 19.7852 11.4378 19.9795 12.6016C20.0522 13.0407 20.2021 13.447 20.3999 13.8222C18.9531 13.3698 17.6483 12.5165 16.653 11.3216L15.6115 10.0726C14.9755 9.30885 14.0405 8.87152 13.0479 8.87152C11.775 8.87152 10.6315 9.57851 10.0629 10.7166L10.0168 10.808L9.379 11.02C8.01469 11.4751 7.09835 12.7471 7.09835 14.1851V22.2813C7.09835 25.2548 8.99402 27.8841 11.814 28.8235C12.1768 28.9441 12.4208 29.283 12.4208 29.6653V30.3306L11.2206 30.5878C9.27522 31.0048 7.43277 31.8359 5.83162 33.0033L4.97471 31.5042C4.50279 30.6757 3.6175 30.1612 2.66301 30.1612C2.19907 30.1612 1.74223 30.2827 1.34394 30.5124C0.72654 30.8646 0.283006 31.4368 0.0958345 32.1225C-0.0913369 32.8091 3.11479e-05 33.5276 0.353084 34.1432L2.05803 37.1264C0.716782 39.3414 0.00180528 41.8642 0.00180528 44.4669V45.2413C0.00180528 48.6654 2.78809 51.4508 6.21128 51.4508H8.87249V54.9991H24.8397V51.4508H27.5009C30.9241 51.4508 33.7104 48.6654 33.7104 45.2413V44.466C33.7104 37.8183 28.9912 31.9814 22.4899 30.5878V30.5878ZM22.1785 15.9681C23.6457 15.9681 24.8397 17.1621 24.8397 18.6293C24.8397 20.0965 23.6457 21.2905 22.1785 21.2905C20.7113 21.2905 19.5173 20.0965 19.5173 18.6293C19.5173 17.1621 20.7104 15.9681 22.1785 15.9681ZM9.94052 12.7028L11.2764 12.2575L11.6499 11.5088C11.916 10.9756 12.4518 10.6448 13.0479 10.6448C13.5127 10.6448 13.951 10.8497 14.2481 11.2072L15.2895 12.4562C16.3682 13.7504 17.7458 14.7129 19.276 15.3028C18.5575 15.9308 18.0315 16.7718 17.8336 17.7413H15.8803C15.4678 15.7197 13.6768 14.193 11.5346 14.193C10.5322 14.193 9.61674 14.5399 8.87337 15.1032V14.1851C8.87249 13.5118 9.30183 12.9166 9.94052 12.7028V12.7028ZM14.1949 18.6293C14.1949 20.0965 13.0009 21.2905 11.5337 21.2905C10.0665 21.2905 8.87249 20.0965 8.87249 18.6293C8.87249 17.1621 10.0665 15.9681 11.5337 15.9681C13.0009 15.9681 14.1949 17.1621 14.1949 18.6293ZM12.3755 27.1407C10.2803 26.4426 8.87249 24.4901 8.87249 22.2813V22.1545C9.61585 22.7178 10.5313 23.0646 11.5337 23.0646C13.6751 23.0646 15.4669 21.538 15.8794 19.5163H17.8328C18.2452 21.538 20.0362 23.0646 22.1785 23.0646C23.1809 23.0646 24.0964 22.7178 24.8397 22.1545V22.2813C24.8397 24.4901 23.4319 26.4426 21.3367 27.1407C20.2482 27.5044 19.5173 28.5183 19.5173 29.6653V30.94L19.3026 31.7987C19.0205 32.9244 18.0146 33.7094 16.8561 33.7094C15.6976 33.7094 14.6917 32.9244 14.4096 31.7996L14.1949 30.9409V29.6662C14.1949 28.5183 13.4631 27.5044 12.3755 27.1407V27.1407ZM21.2914 37.2577H23.0656V44.3542H15.969C15.5734 44.3542 15.2115 44.4891 14.9161 44.7082L14.5621 44.3542C13.5296 43.3235 11.8149 43.2303 10.6466 44.0589V37.2577H12.4208C12.4208 38.2361 13.2165 39.0318 14.1949 39.0318H19.5173C20.4949 39.0318 21.2914 38.2361 21.2914 37.2577ZM9.75956 49.6767C9.26989 49.6767 8.87249 49.2784 8.87249 48.7896V47.0155C8.87249 46.5267 9.26989 46.1284 9.75956 46.1284H11.0139L11.5337 45.6095C12.0083 45.1349 12.8332 45.1349 13.3078 45.6095L14.1949 46.4965V49.6767H9.75956ZM8.87249 41.9015V44.3542H8.23114L5.30026 39.2261L6.77989 38.2397L8.87249 41.9015ZM19.5173 35.4836L19.5182 37.2577H14.1949V35.4836H19.5173ZM11.5922 32.3229L12.6549 32.095L12.6887 32.2298C12.8412 32.8401 13.1295 33.3821 13.5012 33.8505C12.8661 34.121 12.4199 34.7508 12.4199 35.4836H8.8716V38.3257L6.72667 34.5725C8.16549 33.4868 9.82431 32.7017 11.5922 32.3229V32.3229ZM1.80699 32.5891C1.86908 32.3602 2.01634 32.1704 2.2248 32.0515C2.63019 31.8182 3.20057 31.9726 3.43387 32.3833L5.89815 36.6962L4.41852 37.6826L1.89215 33.2615C1.77505 33.0565 1.74489 32.8179 1.80699 32.5891ZM1.77594 45.2413V44.466C1.77594 42.5287 2.23012 40.641 3.08703 38.9272L6.18822 44.3542H4.77601L3.64411 46.6189L5.23107 47.4129L5.87242 46.1284H7.26157C7.16222 46.4069 7.09835 46.7032 7.09835 47.0155V48.7896C7.09835 49.1018 7.16222 49.3981 7.26157 49.6767H6.21128C3.76564 49.6767 1.77594 47.687 1.77594 45.2413V45.2413ZM23.0656 53.2249H10.6466V51.4508H14.1949H16.8561H23.0656V53.2249ZM31.9363 45.2413C31.9363 47.687 29.9466 49.6767 27.5009 49.6767H16.8561H15.969V46.1284H26.9527L27.5949 47.412L29.1819 46.618L28.0491 44.3542H24.8397V35.4836H21.2914C21.2914 34.7508 20.8452 34.121 20.2101 33.8505C20.5818 33.3821 20.8701 32.8401 21.0227 32.2298L21.0564 32.095L22.1182 32.3229C27.807 33.5427 31.9354 38.6495 31.9354 44.466V45.2413H31.9363Z" fill="#0A436B"/>
<path d="M54.7091 11.3651L52.7442 4.11683L52.0958 4.09022C50.1487 4.0095 48.2663 3.55621 46.5001 2.74365L46.1294 2.57333L45.7586 2.74365C43.9933 3.55621 42.1109 4.00861 40.1629 4.09022L39.5145 4.11683L37.5496 11.366C37.3562 12.0783 37.2587 12.8128 37.2587 13.5508C37.2587 16.0878 38.3879 18.4519 40.3581 20.037L44.5131 23.3822C44.9691 23.7494 45.5439 23.9517 46.1294 23.9517C46.7148 23.9517 47.2896 23.7485 47.7456 23.3804L51.9006 20.0362C53.8708 18.451 55 16.0869 55 13.549C55 12.8128 54.9016 12.0783 54.7091 11.3651V11.3651ZM50.7882 18.655L47.0164 21.6905V16.8551H45.2423V21.6914L41.4705 18.655C39.9216 17.4087 39.0328 15.5485 39.0328 13.5508C39.0328 12.9698 39.11 12.3905 39.2617 11.8308L40.8903 5.82355C42.3859 5.7038 43.8407 5.37381 45.2423 4.86197V15.081H47.0164V4.86108C48.418 5.37292 49.8728 5.70291 51.3684 5.82266L52.997 11.829C53.1487 12.3905 53.2259 12.9698 53.2259 13.5499C53.2259 15.5476 52.3371 17.4087 50.7882 18.655V18.655Z" fill="#0A436B"/>
<path d="M42.581 33.3422L41.4341 32.1952L40.1797 33.4495L42.581 35.8508L52.0789 26.3521L50.8246 25.0978L42.581 33.3422Z" fill="#0A436B"/>
<path d="M42.581 39.5517L41.4341 38.4047L40.1797 39.659L42.581 42.0603L52.0789 32.5616L50.8246 31.3073L42.581 39.5517Z" fill="#0A436B"/>
<path d="M42.581 45.7612L41.4341 44.6142L40.1797 45.8685L42.581 48.2698L52.0789 38.7711L50.8246 37.5168L42.581 45.7612Z" fill="#0A436B"/>
</g>
<defs>
<clipPath id="clip0">
<rect width="55" height="55" fill="white"/>
</clipPath>
</defs>
</svg>
