<svg width="16" height="16" viewBox="0 0 16 16" fill="none" xmlns="http://www.w3.org/2000/svg">
<path d="M15.1111 0H0.888889C0.653141 0 0.427048 0.0936505 0.260349 0.260349C0.0936505 0.427048 0 0.653141 0 0.888889V15.1111C0 15.3469 0.0936505 15.573 0.260349 15.7397C0.427048 15.9064 0.653141 16 0.888889 16H8.54667V9.81333H6.46844V7.39111H8.54667V5.61333C8.54667 3.54667 9.80889 2.42044 11.6578 2.42044C12.2791 2.41867 12.9013 2.45067 13.52 2.51556V4.66667H12.2444C11.2418 4.66667 11.0462 5.14489 11.0462 5.84444V7.38667H13.4436L13.1324 9.80889H11.0453V16H15.1111C15.3469 16 15.573 15.9064 15.7397 15.7397C15.9064 15.573 16 15.3469 16 15.1111V0.888889C16 0.653141 15.9064 0.427048 15.7397 0.260349C15.573 0.0936505 15.3469 0 15.1111 0Z" fill="white"/>
</svg>
