<svg width="423" height="329" viewBox="0 0 423 329" fill="none" xmlns="http://www.w3.org/2000/svg">
<path d="M212.437 304.737C212.437 304.737 212.427 304.737 212.437 304.737L171.087 304.548C169.709 304.548 168.629 303.238 168.629 301.571L168.718 280.79C168.718 279.123 169.809 277.813 171.206 277.813C171.752 277.813 172.198 278.259 172.198 278.805C172.198 279.351 171.752 279.798 171.206 279.798C171.028 279.798 170.701 280.175 170.701 280.79L170.612 301.571C170.612 302.176 170.929 302.563 171.097 302.563L212.447 302.752C212.992 302.752 213.438 303.199 213.438 303.744C213.418 304.29 212.982 304.737 212.437 304.737Z" fill="#042A45"/>
<path d="M255.353 295.269L176.044 294.902C175.222 294.902 174.567 293.999 174.567 292.917L174.657 272.136C174.657 271.035 175.331 270.151 176.154 270.151L255.521 270.519C256.463 270.677 257.117 271.551 256.998 272.503L256.919 293.294C256.87 294.376 256.195 295.269 255.353 295.269Z" fill="#042A45"/>
<path d="M203.346 284.72V286.268H196.902V277.932H203.197V279.48H198.815V281.286H202.682V282.785H198.815V284.71H203.346V284.72Z" fill="white"/>
<path d="M212.456 286.268L212.446 281.266L209.998 285.385H209.125L206.687 281.376V286.268H204.882V277.932H206.478L209.591 283.112L212.664 277.932H214.25L214.27 286.268H212.456V286.268Z" fill="white"/>
<path d="M221.725 284.482H217.859L217.125 286.268H215.152L218.86 277.932H220.763L224.491 286.268H222.469L221.725 284.482ZM221.12 283.023L219.802 279.827L218.483 283.023H221.12Z" fill="white"/>
<path d="M225.353 277.932H227.276V286.268H225.353V277.932Z" fill="white"/>
<path d="M229.249 277.932H231.172V284.7H235.346V286.268H229.239V277.932H229.249Z" fill="white"/>
<path d="M286.293 147.679C286.094 147.679 285.906 147.62 285.728 147.501C285.272 147.193 285.163 146.568 285.47 146.121L309.173 111.725C309.788 110.831 310.016 109.76 309.818 108.698C309.619 107.636 309.024 106.713 308.132 106.098L158.448 2.70926C157.764 2.24283 156.981 1.99473 156.158 1.99473C154.829 1.99473 153.58 2.64971 152.827 3.74135L89.9353 95.0026C89.3207 95.8958 89.0927 96.9675 89.2909 98.0294C89.4892 99.0913 90.0841 100.014 90.9763 100.63L152.173 142.896C152.629 143.204 152.738 143.829 152.43 144.275C152.123 144.722 151.498 144.841 151.052 144.533L89.8561 102.267C88.5277 101.354 87.6453 99.9745 87.3479 98.3867C87.0604 96.7988 87.3975 95.2011 88.3095 93.8713L151.201 2.61002C152.331 0.972554 154.185 0 156.168 0C157.397 0 158.577 0.367189 159.588 1.07179L309.292 104.46C310.621 105.373 311.503 106.753 311.8 108.34C312.088 109.928 311.751 111.526 310.839 112.856L287.135 147.253C286.917 147.53 286.61 147.679 286.293 147.679Z" fill="#042A45"/>
<path d="M224.294 147.451C223.917 147.451 223.55 147.233 223.392 146.866L211.714 120.686C211.486 120.19 211.714 119.594 212.219 119.376C212.715 119.148 213.31 119.376 213.528 119.882L225.206 146.062C225.434 146.558 225.206 147.153 224.7 147.372C224.562 147.431 224.423 147.451 224.294 147.451ZM180.655 98.238C180.635 98.238 180.615 98.238 180.595 98.238L93.4849 93.276C93.4056 93.276 93.3263 93.2661 93.2569 93.2661C92.7116 93.2661 92.2655 92.8195 92.2655 92.2737C92.2655 91.7278 92.7116 91.2813 93.2569 91.2813C93.3758 91.2813 93.4849 91.2812 93.6038 91.2912L180.704 96.2532C181.249 96.2829 181.666 96.7494 181.636 97.3051C181.606 97.8311 181.17 98.238 180.655 98.238Z" fill="#042A45"/>
<path d="M194.196 114.662C192.729 114.662 191.4 113.729 190.895 112.35L152.857 7.24461C152.668 6.72856 152.936 6.16289 153.451 5.97433C153.967 5.78577 154.532 6.05372 154.72 6.56977L192.759 111.675C192.977 112.28 193.552 112.687 194.196 112.687C194.424 112.687 305.882 110.97 305.882 110.97L305.912 112.955C194.216 114.662 194.206 114.662 194.196 114.662Z" fill="#042A45"/>
<path d="M329.368 328.286H99.79C96.6673 328.286 94.1293 325.746 94.1293 322.63V155.678C94.1293 152.562 96.6673 150.021 99.79 150.021H329.368C332.49 150.021 335.028 152.562 335.028 155.678V256.873C335.028 257.419 334.582 257.866 334.037 257.866C333.492 257.866 333.046 257.419 333.046 256.873V155.678C333.046 153.654 331.4 152.006 329.368 152.006H99.79C97.7677 152.006 96.112 153.654 96.112 155.678V322.63C96.112 324.654 97.7578 326.302 99.79 326.302H329.368C331.39 326.302 333.046 324.654 333.046 322.63V289.871C333.046 289.325 333.492 288.878 334.037 288.878C334.582 288.878 335.028 289.325 335.028 289.871V322.63C335.028 325.756 332.49 328.286 329.368 328.286Z" fill="#042A45"/>
<path d="M329.368 181.232H288.108C287.563 181.232 287.117 180.786 287.117 180.24C287.117 179.694 287.563 179.248 288.108 179.248H329.368C331.39 179.248 333.046 177.6 333.046 175.576C333.046 175.03 333.492 174.583 334.037 174.583C334.583 174.583 335.029 175.03 335.029 175.576C335.029 178.692 332.491 181.232 329.368 181.232ZM270.501 181.232H245.41C244.865 181.232 244.419 180.786 244.419 180.24C244.419 179.694 244.865 179.248 245.41 179.248H270.501C271.047 179.248 271.493 179.694 271.493 180.24C271.493 180.786 271.047 181.232 270.501 181.232ZM226.902 181.232H99.7905C96.6677 181.232 94.1298 178.692 94.1298 175.576C94.1298 175.03 94.5759 174.583 95.1211 174.583C95.6664 174.583 96.1125 175.03 96.1125 175.576C96.1125 177.6 97.7582 179.248 99.7905 179.248H226.902C227.447 179.248 227.893 179.694 227.893 180.24C227.893 180.786 227.447 181.232 226.902 181.232Z" fill="#042A45"/>
<path d="M113.055 160.739C110.259 160.739 107.979 163.012 107.979 165.811C107.979 168.609 110.259 170.882 113.055 170.882C115.851 170.882 118.131 168.609 118.131 165.811C118.131 163.012 115.851 160.739 113.055 160.739Z" fill="#042A45"/>
<path d="M127.558 160.739C124.763 160.739 122.483 163.012 122.483 165.811C122.483 168.609 124.753 170.882 127.558 170.882C130.354 170.882 132.634 168.609 132.634 165.811C132.634 163.012 130.364 160.739 127.558 160.739Z" fill="#042A45"/>
<path d="M142.072 160.739C139.276 160.739 136.996 163.012 136.996 165.811C136.996 168.609 139.276 170.882 142.072 170.882C144.868 170.882 147.148 168.609 147.148 165.811C147.138 163.012 144.868 160.739 142.072 160.739Z" fill="#042A45"/>
<path d="M284.38 206.727H146.215C145.67 206.727 145.223 206.281 145.223 205.735C145.223 205.189 145.67 204.742 146.215 204.742H284.38C284.925 204.742 285.371 205.189 285.371 205.735C285.371 206.281 284.925 206.727 284.38 206.727Z" fill="#042A45"/>
<path d="M284.38 222.268H146.215C145.67 222.268 145.224 221.822 145.224 221.276C145.224 220.73 145.67 220.283 146.215 220.283H284.38C284.925 220.283 285.371 220.73 285.371 221.276C285.371 221.822 284.925 222.268 284.38 222.268Z" fill="#042A45"/>
<path d="M284.38 237.819H146.215C145.67 237.819 145.224 237.373 145.224 236.827C145.224 236.281 145.67 235.834 146.215 235.834H284.38C284.925 235.834 285.371 236.281 285.371 236.827C285.371 237.373 284.925 237.819 284.38 237.819Z" fill="#042A45"/>
<path d="M231.719 304.826L218.921 304.767C218.375 304.767 217.929 304.32 217.929 303.774C217.929 303.228 218.375 302.782 218.921 302.782L231.709 302.841C232.254 302.841 232.7 303.288 232.7 303.834C232.71 304.38 232.264 304.826 231.719 304.826Z" fill="#042A45"/>
<path d="M250.396 304.905L238.837 304.856C238.292 304.856 237.846 304.409 237.846 303.863C237.846 303.318 238.322 302.901 238.837 302.871L250.386 302.921C250.594 302.921 250.932 302.524 250.961 301.888L250.971 298.981C250.971 298.435 251.417 297.988 251.963 297.988C252.508 297.988 252.954 298.435 252.954 298.981L252.944 301.938C252.875 303.655 251.774 304.905 250.396 304.905Z" fill="#042A45"/>
<path d="M233.197 82.1413C234.01 79.1144 235.328 71.0958 226.713 65.4292C226.713 65.4292 218.584 59.4649 210.663 64.5559C202.742 69.6469 203.506 75.4029 203.258 78.3999C203.02 81.397 203.129 88.3835 200.086 92.6905L195.644 99.151L196.15 106.009L200.512 108.867L206.46 107.338L211.347 100.282C212.319 99.2701 216.413 95.2509 222.679 92.5515C229.915 89.4553 232.384 85.178 233.197 82.1413Z" fill="#042A45"/>
<path d="M207.512 97.4738C207.512 97.4738 207.542 97.4043 207.602 97.2753C207.671 97.1463 207.76 96.9577 207.889 96.7196C208.147 96.2234 208.523 95.4989 209.009 94.576C209.991 92.7202 211.408 90.0308 213.381 86.8352C213.877 86.0413 214.402 85.2077 214.977 84.3542C215.552 83.5107 216.147 82.6175 216.851 81.7641C217.555 80.9106 218.387 80.077 219.438 79.5113C220.479 78.9556 221.758 78.6479 223.007 78.9556C224.256 79.2434 225.307 80.3449 225.535 81.6747C225.644 82.3297 225.505 83.0641 225.079 83.6198C224.673 84.1756 224.058 84.5626 223.394 84.7611C222.73 84.9695 222.016 84.9794 221.332 84.8604C220.638 84.7413 219.984 84.5031 219.339 84.2153C218.06 83.6397 216.831 82.9252 215.641 82.1114C214.462 81.2877 213.332 80.4243 212.34 79.4319C211.844 78.9258 211.398 78.38 211.061 77.7746C210.714 77.1692 210.486 76.4944 210.407 75.8096C210.328 75.1249 210.407 74.4203 210.685 73.7951C210.952 73.1599 211.458 72.6538 212.053 72.3362C212.638 72.0187 213.341 71.8897 213.986 72.0683C214.64 72.237 215.166 72.7034 215.473 73.2691C215.78 73.8348 215.919 74.4699 215.909 75.0852C215.899 75.7104 215.721 76.3058 215.493 76.8517C215.027 77.9532 214.343 78.8762 213.748 79.809C212.538 81.6549 211.408 83.3717 210.387 84.9397C208.325 88.0757 206.66 90.6064 205.5 92.3728C204.925 93.2462 204.469 93.921 204.161 94.3874C204.013 94.6157 203.894 94.7844 203.805 94.9035C203.725 95.0225 203.676 95.0722 203.676 95.0722C203.676 95.0722 203.705 95.0027 203.785 94.8836C203.864 94.7546 203.973 94.576 204.122 94.3477C204.429 93.8714 204.865 93.1866 205.43 92.3133C206.57 90.5468 208.226 87.9963 210.258 84.8504C211.279 83.2725 212.4 81.5556 213.599 79.6999C214.184 78.767 214.868 77.8441 215.324 76.7723C215.542 76.2364 215.701 75.6608 215.721 75.0753C215.731 74.4897 215.602 73.8844 215.314 73.3584C215.027 72.8324 214.541 72.4057 213.946 72.2568C213.361 72.0981 212.707 72.2171 212.152 72.5149C211.597 72.8126 211.131 73.2889 210.883 73.8745C210.625 74.46 210.546 75.1348 210.625 75.7898C210.764 77.1196 211.537 78.3204 212.499 79.293C213.48 80.2655 214.61 81.1289 215.77 81.9427C216.94 82.7465 218.169 83.4511 219.428 84.0267C220.063 84.3046 220.707 84.5428 221.371 84.6619C222.036 84.781 222.72 84.771 223.344 84.5726C223.969 84.384 224.544 84.0168 224.93 83.5008C225.317 82.9946 225.446 82.3297 225.347 81.7144C225.139 80.4739 224.147 79.422 222.968 79.154C221.788 78.8563 220.549 79.1441 219.537 79.68C218.516 80.2258 217.694 81.0396 217 81.8831C216.306 82.7267 215.701 83.6099 215.126 84.4535C214.551 85.297 214.016 86.1207 213.52 86.9146C211.537 90.1002 210.1 92.7797 209.089 94.6157C208.593 95.5287 208.206 96.2432 207.939 96.7394C207.81 96.9776 207.711 97.1562 207.631 97.2952C207.552 97.4142 207.512 97.4738 207.512 97.4738Z" fill="white"/>
<path d="M207.521 97.9601C207.441 97.9601 207.362 97.9402 207.283 97.9005C207.055 97.7814 206.966 97.5135 207.055 97.2753C207.055 97.2753 207.085 97.1959 207.164 97.0471L208.72 94.0599C209.712 92.1843 211.08 89.614 212.963 86.5574C213.469 85.7535 213.994 84.9199 214.579 84.0665L214.718 83.868C214.996 83.4611 215.273 83.0542 215.571 82.6374C215.501 82.5977 215.442 82.5481 215.372 82.4985C214.807 82.1015 214.153 81.6251 213.479 81.0793L204.22 95.1417C204.12 95.2806 204.071 95.3501 204.071 95.3501C203.912 95.5485 203.625 95.5882 203.417 95.4493C203.208 95.3104 203.129 95.0325 203.248 94.8042C203.248 94.8042 203.288 94.7248 203.367 94.5859L205.013 92.0057L212.587 80.3053C212.388 80.1266 212.19 79.9381 211.992 79.7396C211.407 79.1441 210.971 78.5686 210.634 77.9731C210.257 77.2983 210.009 76.554 209.92 75.8196C209.831 75.0058 209.93 74.2218 210.237 73.547C210.544 72.8325 211.1 72.237 211.823 71.85C212.557 71.463 213.39 71.3439 214.113 71.5324C214.857 71.721 215.511 72.247 215.908 72.9714C216.245 73.5768 216.413 74.2913 216.403 75.0356C216.393 75.6509 216.245 76.286 215.957 76.9807C215.571 77.8838 215.065 78.648 214.569 79.4022C214.43 79.6106 214.302 79.8091 214.163 80.0175L214.133 80.0572C214.678 80.5037 215.303 80.9702 216.046 81.4961C216.126 81.5458 216.205 81.6053 216.284 81.6549C216.344 81.5755 216.413 81.4961 216.473 81.4167C217.385 80.3152 218.247 79.561 219.209 79.035C220.508 78.3403 221.895 78.1319 223.135 78.4395C224.582 78.767 225.772 80.0572 226.029 81.5557C226.168 82.3992 225.97 83.2527 225.484 83.8779C225.038 84.4833 224.354 84.9497 223.551 85.1879C222.867 85.4062 222.074 85.4459 221.251 85.297C220.617 85.1879 219.942 84.9695 219.149 84.6222C218.277 84.2252 217.405 83.7588 216.542 83.2328C216.235 83.6497 215.947 84.0764 215.66 84.4932L215.531 84.6917C214.956 85.5253 214.43 86.349 213.935 87.1429C212.15 90.0109 210.802 92.4721 209.821 94.2683L208.066 97.5036C207.987 97.6524 207.937 97.7219 207.937 97.7219C207.828 97.8906 207.679 97.9601 207.521 97.9601ZM217.266 82.3099C218.049 82.7863 218.832 83.2031 219.625 83.5603C220.329 83.868 220.904 84.0565 221.449 84.1558C222.094 84.2649 222.679 84.2451 223.184 84.0863C223.749 83.9176 224.215 83.6 224.513 83.1931C224.8 82.816 224.919 82.3 224.84 81.774C224.661 80.7419 223.838 79.8488 222.837 79.6205C221.539 79.3029 220.349 79.7793 219.744 80.1068C218.921 80.5534 218.168 81.2083 217.355 82.1908C217.335 82.2305 217.305 82.2702 217.266 82.3099ZM213.39 72.6638C213.053 72.6638 212.706 72.7531 212.378 72.9317C211.903 73.1897 211.526 73.5867 211.328 74.0531C211.109 74.5394 211.04 75.115 211.109 75.7204C211.258 77.08 212.131 78.2212 212.844 78.9357C212.973 79.0648 213.112 79.1938 213.251 79.3228C213.36 79.1541 213.479 78.9754 213.588 78.7968C214.054 78.0922 214.53 77.3578 214.867 76.5639C215.095 76.0082 215.214 75.512 215.224 75.0455C215.234 74.5096 215.115 74.0035 214.877 73.5768C214.629 73.1302 214.252 72.8225 213.826 72.7134C213.677 72.6737 213.528 72.6638 213.39 72.6638Z" fill="white"/>
<path d="M211.675 58.5319C211.615 58.5518 210.951 56.5273 210.168 54.0264C209.395 51.5156 208.81 49.4713 208.859 49.4514C208.919 49.4316 209.583 51.4561 210.366 53.9569C211.139 56.4677 211.724 58.5121 211.675 58.5319Z" fill="#042A45"/>
<path d="M211.575 59.0579C211.199 59.0579 211 58.393 209.692 54.1654C208.254 49.5209 208.304 49.4316 208.423 49.2133C208.482 49.0942 208.591 49.0049 208.72 48.9652C209.285 48.7965 209.285 48.7766 210.842 53.7982C212.279 58.4327 212.23 58.5319 212.111 58.7502C212.051 58.8693 211.942 58.9587 211.813 58.9983C211.724 59.0281 211.655 59.0579 211.575 59.0579Z" fill="#042A45"/>
<path d="M216.186 57.1226C216.126 57.1226 216.017 56.031 215.947 54.6912C215.868 53.3416 215.858 52.2499 215.918 52.24C215.977 52.24 216.086 53.3316 216.156 54.6714C216.225 56.031 216.245 57.1226 216.186 57.1226Z" fill="#042A45"/>
<path d="M216.185 57.6189C216.066 57.6189 215.937 57.5693 215.848 57.4899C215.689 57.351 215.59 57.2616 215.451 54.7112C215.302 51.992 215.332 51.7737 215.888 51.7439C216.443 51.7141 216.503 51.9325 216.652 54.6516C216.791 57.1922 216.701 57.3013 216.562 57.4601C216.473 57.5594 216.344 57.6189 216.215 57.6288C216.205 57.6189 216.195 57.6189 216.185 57.6189Z" fill="#042A45"/>
<path d="M221.727 60.0404C221.667 60.0205 222.232 58.0655 222.966 55.6639C223.709 53.2623 224.354 51.337 224.403 51.3568C224.463 51.3767 223.898 53.3317 223.164 55.7333C222.421 58.125 221.776 60.0503 221.727 60.0404Z" fill="#042A45"/>
<path d="M221.815 60.5663C221.746 60.5663 221.666 60.5465 221.577 60.5167C221.448 60.477 221.339 60.3877 221.28 60.2686C221.171 60.0602 221.111 59.9609 222.489 55.515C223.976 50.6919 223.986 50.7019 224.551 50.8805C224.68 50.9202 224.789 51.0095 224.849 51.1286C224.958 51.337 225.007 51.4362 223.639 55.8822C222.39 59.9113 222.192 60.5663 221.815 60.5663Z" fill="#042A45"/>
<path d="M228.865 63.1465C228.816 63.1167 229.232 62.2235 229.797 61.1517C230.362 60.0799 230.868 59.2265 230.917 59.2562C230.967 59.286 230.551 60.1792 229.986 61.251C229.421 62.3228 228.925 63.1762 228.865 63.1465Z" fill="#042A45"/>
<path d="M228.875 63.6426C228.795 63.6426 228.706 63.6228 228.637 63.5831C228.151 63.325 228.22 63.0769 229.36 60.9135C230.431 58.8692 230.57 58.8295 230.768 58.7699C230.897 58.7302 231.036 58.7401 231.155 58.8096C231.65 59.0676 231.531 59.3852 230.431 61.4792C229.36 63.5235 229.222 63.5632 229.023 63.6228C228.974 63.6426 228.924 63.6426 228.875 63.6426Z" fill="#042A45"/>
<path d="M233.426 69.6071C233.386 69.5574 235.181 68.0589 237.421 66.2527C239.662 64.4466 241.506 63.0175 241.545 63.0572C241.585 63.1068 239.791 64.6053 237.55 66.4115C235.31 68.2177 233.466 69.6468 233.426 69.6071Z" fill="#042A45"/>
<path d="M233.435 70.1033C233.415 70.1033 233.395 70.1033 233.376 70.1033C233.247 70.0934 233.128 70.0239 233.048 69.9247C232.969 69.8254 232.92 69.6865 232.939 69.5575C232.959 69.3193 232.979 69.2101 237.113 65.8658C238.233 64.9627 239.264 64.1489 240.008 63.5634C241.445 62.4519 241.604 62.3328 241.931 62.7397C242.307 63.2061 242.307 63.2061 237.856 66.7887C234.069 69.8552 233.663 70.1033 233.435 70.1033Z" fill="#042A45"/>
<path d="M236.727 75.8096C236.707 75.76 237.718 75.3134 238.987 74.8271C240.256 74.3408 241.297 73.9836 241.326 74.0431C241.346 74.0927 240.335 74.5393 239.066 75.0256C237.797 75.5119 236.746 75.8691 236.727 75.8096Z" fill="#042A45"/>
<path d="M236.676 76.3157C236.428 76.3157 236.349 76.1966 236.26 75.9882C236.26 75.9882 236.26 75.9882 236.26 75.9783C236.062 75.4622 236.26 75.3432 238.808 74.3607C241.355 73.3782 241.583 73.3385 241.782 73.8546C241.98 74.3805 241.792 74.4996 239.234 75.4821C237.727 76.0676 237.033 76.3157 236.676 76.3157Z" fill="#042A45"/>
<path d="M245.589 80.573C245.589 80.6326 243.398 80.6822 240.692 80.6921C237.986 80.702 235.795 80.6524 235.795 80.6028C235.795 80.5532 237.986 80.4936 240.692 80.4837C243.398 80.4738 245.589 80.5234 245.589 80.573Z" fill="#042A45"/>
<path d="M239.889 81.1884C235.686 81.1884 235.607 81.109 235.448 80.9502C235.359 80.8609 235.299 80.7319 235.299 80.5929C235.299 79.9975 235.299 79.9975 240.682 79.9776C245.679 79.9677 245.758 80.0471 245.926 80.2158C246.016 80.3051 246.075 80.4341 246.075 80.5731C246.075 81.1685 246.075 81.1685 240.692 81.1884C240.415 81.1884 240.147 81.1884 239.889 81.1884Z" fill="#042A45"/>
<path d="M1 326.842H80" stroke="#042A45" stroke-width="2" stroke-miterlimit="10" stroke-linecap="round" stroke-linejoin="round"/>
<path d="M347 326.842C380.191 326.842 385.238 326.842 422 326.842" stroke="#042A45" stroke-width="2" stroke-miterlimit="10" stroke-linecap="round" stroke-linejoin="round"/>
</svg>
