<svg width="56" height="55" viewBox="0 0 56 55" fill="none" xmlns="http://www.w3.org/2000/svg">
<path d="M27.9675 27.5H29.7417V25.9591C29.7417 24.7713 30.5295 23.7263 31.6721 23.3998L34.9295 22.4693L34.9437 22.4817C36.0738 23.4149 37.5118 23.9516 39.0314 23.9516H48.3708C49.8407 23.9516 51.0321 25.143 51.0321 26.6129V27.5H52.8062C53.1309 27.5 53.4317 27.594 53.6933 27.7457V23.9516C53.6933 17.5929 48.5198 12.4193 42.1611 12.4193H38.6127C32.254 12.4193 27.0804 17.5929 27.0804 23.9516V27.7457C27.343 27.594 27.6429 27.5 27.9675 27.5V27.5Z" fill="#DF453E"/>
<path d="M35.0643 26.6129C33.597 26.6129 32.403 27.807 32.403 29.2742C32.403 30.7415 33.597 31.9355 35.0643 31.9355C36.5315 31.9355 37.7256 30.7415 37.7256 29.2742C37.7256 27.807 36.5324 26.6129 35.0643 26.6129ZM35.0643 30.1613C34.5746 30.1613 34.1772 29.763 34.1772 29.2742C34.1772 28.7854 34.5746 28.3871 35.0643 28.3871C35.5539 28.3871 35.9514 28.7854 35.9514 29.2742C35.9514 29.763 35.5539 30.1613 35.0643 30.1613Z" fill="#0A436B"/>
<path d="M45.7094 26.6129C44.2421 26.6129 43.0481 27.807 43.0481 29.2742C43.0481 30.7415 44.2421 31.9355 45.7094 31.9355C47.1767 31.9355 48.3707 30.7415 48.3707 29.2742C48.3707 27.807 47.1775 26.6129 45.7094 26.6129ZM45.7094 30.1613C45.2197 30.1613 44.8223 29.763 44.8223 29.2742C44.8223 28.7854 45.2197 28.3871 45.7094 28.3871C46.1991 28.3871 46.5965 28.7854 46.5965 29.2742C46.5965 29.763 46.1991 30.1613 45.7094 30.1613Z" fill="#0A436B"/>
<path d="M39.6524 35.4839H37.7256V37.258H39.6524C41.5082 37.258 43.2522 36.536 44.5624 35.224L43.3081 33.9696C42.3323 34.9463 41.0336 35.4839 39.6524 35.4839V35.4839Z" fill="#0A436B"/>
<path d="M52.8062 10.6451C54.2735 10.6451 55.4675 9.45106 55.4675 7.9838C55.4675 6.51654 54.2735 5.32251 52.8062 5.32251C51.3389 5.32251 50.1449 6.51654 50.1449 7.9838C50.1449 9.45106 51.3389 10.6451 52.8062 10.6451ZM52.8062 7.0967C53.2959 7.0967 53.6933 7.49501 53.6933 7.9838C53.6933 8.47259 53.2959 8.8709 52.8062 8.8709C52.3165 8.8709 51.9191 8.47259 51.9191 7.9838C51.9191 7.49501 52.3174 7.0967 52.8062 7.0967Z" fill="#0A436B"/>
<path d="M45.7094 10.6451C47.1767 10.6451 48.3707 9.45106 48.3707 7.9838C48.3707 6.51654 47.1767 5.32251 45.7094 5.32251C44.2421 5.32251 43.0481 6.51654 43.0481 7.9838C43.0481 9.45106 44.2421 10.6451 45.7094 10.6451ZM45.7094 7.0967C46.1991 7.0967 46.5965 7.49501 46.5965 7.9838C46.5965 8.47259 46.1991 8.8709 45.7094 8.8709C45.2197 8.8709 44.8223 8.47259 44.8223 7.9838C44.8223 7.49501 45.2206 7.0967 45.7094 7.0967Z" fill="#0A436B"/>
<path d="M38.6127 10.6451C40.08 10.6451 41.274 9.45106 41.274 7.9838C41.274 6.51654 40.08 5.32251 38.6127 5.32251C37.1455 5.32251 35.9514 6.51654 35.9514 7.9838C35.9514 9.45106 37.1455 10.6451 38.6127 10.6451ZM38.6127 7.0967C39.1024 7.0967 39.4998 7.49501 39.4998 7.9838C39.4998 8.47259 39.1024 8.8709 38.6127 8.8709C38.123 8.8709 37.7256 8.47259 37.7256 7.9838C37.7256 7.49501 38.1239 7.0967 38.6127 7.0967Z" fill="#0A436B"/>
<path d="M11.1127 35.8226V45.7901L17.3223 48.8949L23.532 45.7901V35.8226L17.3223 32.7178L11.1127 35.8226ZM21.7578 44.6936L17.3223 46.9114L12.8869 44.6936V36.9191L17.3223 34.7014L21.7578 36.9191V44.6936Z" fill="#0A436B"/>
<path d="M18.2094 29.6131V17.3969C19.9029 17.4998 21.5875 17.8741 23.1834 18.5581L23.5994 18.7364L23.988 18.5031C25.6318 17.5166 27.5106 17.0172 29.4073 17.034C29.8615 16.4308 30.3724 15.8746 30.934 15.3716C28.6541 15.0647 26.3406 15.4089 24.2621 16.3598C23.7272 11.9368 22.1277 7.77363 19.5853 4.15605C24.9044 5.84419 29.2706 9.71371 31.5727 14.8376C32.0464 14.4712 32.5431 14.1332 33.071 13.8431C30.2535 7.78871 24.774 3.37984 18.2094 1.94629V0H16.4352V1.94629C8.88161 3.59629 2.78194 9.20008 0.506532 16.594L0 18.2414L2.05185 17.5574C4.92427 16.5976 8.06016 16.9444 10.6567 18.5022L11.0994 18.7124L11.5163 18.5332C13.0847 17.8617 14.7515 17.4927 16.4361 17.3933V29.6113L7.5625 34.0494L7.5971 47.5644L17.3206 52.4434L27.1132 47.5644L27.0786 34.0477L18.2094 29.6131ZM17.3223 4.08685C20.1344 7.6654 21.9051 11.8898 22.4808 16.4131C19.1489 15.321 15.5286 15.3184 12.163 16.4175C12.7387 11.8924 14.5094 7.66629 17.3223 4.08685V4.08685ZM2.76774 15.5242C4.96419 10.096 9.48395 5.92758 15.0576 4.15605C12.5143 7.77452 10.9157 11.9377 10.3808 16.3625C7.99806 15.2696 5.33234 14.9698 2.76774 15.5242V15.5242ZM17.3241 50.4598L9.36774 46.4679L9.34024 35.1441L17.3223 31.1531L25.308 35.145L25.3355 46.467L17.3241 50.4598Z" fill="#0A436B"/>
<path d="M52.8062 26.613H51.9191C51.9191 24.656 50.3277 23.0646 48.3708 23.0646H39.0314C36.9228 23.0646 35.0262 21.8927 34.0841 20.0067L32.497 20.8007C32.7162 21.238 32.9734 21.647 33.2644 22.0231L31.429 22.5474C29.9138 22.9794 28.8555 24.3828 28.8555 25.9592V26.613H27.9684C26.5012 26.613 25.3071 27.807 25.3071 29.2742C25.3071 30.7415 26.5012 31.9355 27.9684 31.9355H28.9008C29.252 36.5174 32.2877 40.3488 36.4375 41.8692L36.1687 42.6756C31.9621 43.4731 28.8564 47.1732 28.8564 51.5067V55H51.9209V51.5067C51.9209 47.1732 48.8152 43.4731 44.6086 42.6756L44.3398 41.8692C48.4896 40.3488 51.5253 36.5174 51.8766 31.9355H52.8089C54.2762 31.9355 55.4702 30.7415 55.4702 29.2742C55.4702 27.807 54.2744 26.613 52.8062 26.613V26.613ZM27.0804 29.2742C27.0804 28.7855 27.4779 28.3871 27.9675 28.3871H28.8546V30.1613H27.9675C27.4787 30.1613 27.0804 29.763 27.0804 29.2742ZM44.0737 44.3904C44.0879 44.393 44.1029 44.3957 44.1171 44.3975L42.7661 46.6489L41.3911 45.7317L44.0737 44.3904ZM40.2512 49.6775H40.5226L41.1143 53.2258H39.6604L40.2512 49.6775ZM40.7258 47.9033H40.048L39.867 47.5413L40.3869 47.1954L40.9067 47.5413L40.7258 47.9033ZM38.0086 46.6489L36.6575 44.3975C36.6717 44.3948 36.6868 44.3921 36.701 44.3904L39.3836 45.7317L38.0086 46.6489ZM30.6288 51.5067C30.6288 48.605 32.3666 46.0608 34.9037 44.9244L37.4435 49.1576L38.3794 48.534L38.5772 48.9296L37.8613 53.2258H35.9514V50.0447C35.9514 48.9979 35.5442 48.015 34.8044 47.2752L33.55 48.5304C33.9545 48.9341 34.1772 49.4725 34.1772 50.0447V53.2258H30.6288V51.5067ZM50.1449 51.5067V53.2258H46.5966V50.0447C46.5966 49.4725 46.8192 48.935 47.2237 48.5304L45.9694 47.2752C45.2295 48.0142 44.8224 48.9979 44.8224 50.0447V53.2258H42.9125L42.1966 48.9296L42.3944 48.534L43.3303 49.1576L45.87 44.9244C48.4071 46.0608 50.1449 48.605 50.1449 51.5067V51.5067ZM42.8512 43.018L40.3878 44.2502L37.9243 43.018L38.1443 42.358C38.87 42.5017 39.6195 42.5807 40.3869 42.5807C41.1542 42.5807 41.9047 42.5017 42.6304 42.358L42.8512 43.018ZM50.1449 31.0484C50.1449 36.4287 45.7671 40.8065 40.3869 40.8065C35.0066 40.8065 30.6288 36.4287 30.6288 31.0484V25.9592C30.6288 25.1714 31.1584 24.4697 31.9151 24.2533L34.7325 23.4487C35.955 24.3384 37.4479 24.8388 39.0314 24.8388H48.3708C49.3492 24.8388 50.1449 25.6345 50.1449 26.613V31.0484ZM52.8062 30.1613H51.9191V28.3871H52.8062C53.2959 28.3871 53.6933 28.7855 53.6933 29.2742C53.6933 29.763 53.2959 30.1613 52.8062 30.1613Z" fill="#0A436B"/>
<path d="M15.2882 40.1793L14.0338 41.4336L16.5088 43.9086L20.6773 38.6996L19.2908 37.5907L16.3616 41.2527L15.2882 40.1793Z" fill="#0A436B"/>
</svg>
