<svg width="153" height="30" viewBox="0 0 153 30" fill="none" xmlns="http://www.w3.org/2000/svg">
<path d="M152.4 27.2436C152.37 28.717 151.168 29.8869 149.714 29.8569C148.261 29.8266 147.107 28.6082 147.137 27.1348C147.166 25.6761 148.346 24.5117 149.786 24.5212C151.242 24.5339 152.412 25.7407 152.4 27.2168L152.4 27.2436ZM147.687 27.2436C147.706 27.5217 147.778 27.7934 147.9 28.0431C148.022 28.2929 148.191 28.5159 148.398 28.6993C148.606 28.8827 148.846 29.023 149.107 29.1121C149.367 29.2012 149.643 29.2375 149.917 29.2188C150.191 29.2 150.459 29.1268 150.706 29.003C150.952 28.8793 151.172 28.7076 151.353 28.4978C151.534 28.2879 151.672 28.0439 151.76 27.7798C151.848 27.5158 151.884 27.2367 151.866 26.9586C151.83 26.4232 151.596 25.9213 151.21 25.554C150.824 25.1866 150.315 24.9811 149.786 24.9786C149.5 24.9827 149.217 25.0451 148.956 25.1622C148.694 25.2792 148.458 25.4484 148.262 25.6598C148.067 25.8711 147.915 26.1203 147.816 26.3924C147.717 26.6645 147.673 26.954 147.687 27.2436ZM149.716 25.7531C150.426 25.7531 150.89 25.9651 150.89 26.6034C150.903 26.8007 150.852 26.9969 150.745 27.162C150.638 27.327 150.48 27.4517 150.296 27.517L150.468 27.8244C150.628 28.0972 150.803 28.3607 150.992 28.6135C151.028 28.6655 150.936 28.6932 150.788 28.6932H150.62C150.445 28.6932 150.397 28.6581 150.366 28.6231C150.223 28.4322 150.093 28.232 149.976 28.0236L149.721 27.5768H149.343V28.6286C149.343 28.6581 149.285 28.6932 149.174 28.6932H148.945C148.836 28.6932 148.769 28.6581 148.769 28.6286V25.7531H149.716ZM149.343 27.1186H149.765C150.171 27.1186 150.333 26.9202 150.333 26.6481C150.333 26.2912 149.998 26.2316 149.701 26.2316H149.343V27.1186ZM40.1907 7.11493C39.9721 7.11732 39.7632 7.20699 39.6093 7.36448C39.4554 7.52197 39.369 7.73459 39.3687 7.95625V25.0639C38.0966 25.3602 36.7953 25.5088 35.49 25.5067C32.5815 25.5067 31.5289 24.4089 31.5289 21.1891V7.95625C31.5336 7.84809 31.5167 7.74009 31.4794 7.63867C31.442 7.53726 31.3848 7.44452 31.3113 7.36599C31.2378 7.28747 31.1494 7.22477 31.0515 7.18163C30.9535 7.1385 30.848 7.11581 30.7412 7.11493H26.2957V21.2247C26.2957 27.8464 29.7444 30 35.3324 30C38.4627 29.9301 41.5715 29.4573 44.5842 28.593V7.11493H40.1907ZM108.076 29.7453C108.294 29.7428 108.503 29.6532 108.657 29.4957C108.811 29.3383 108.897 29.1258 108.897 28.9043V11.6416C110.169 11.3472 111.47 11.1994 112.775 11.2008C115.685 11.2008 116.738 12.2984 116.738 15.5182V28.904C116.733 29.0121 116.75 29.1202 116.787 29.2216C116.824 29.323 116.881 29.4158 116.955 29.4944C117.028 29.5729 117.117 29.6356 117.215 29.6787C117.313 29.7217 117.418 29.7443 117.525 29.7451H121.971V15.4824C121.971 8.8589 118.522 6.70728 112.935 6.70728C109.804 6.77823 106.695 7.251 103.682 8.11426V29.7448H108.076V29.7453ZM90.3505 6.73656C84.5971 6.73656 80.9657 9.89937 80.9657 16.6644V20.0575C80.9657 27.5525 84.8932 29.9854 89.1485 29.9854C91.244 29.9854 93.3972 28.5016 94.1037 27.5523V28.9535C94.1118 29.1609 94.1972 29.3576 94.3427 29.5037C94.4882 29.6499 94.6829 29.7347 94.8876 29.741H99.3222V8.03197C96.3967 7.2223 93.3827 6.78711 90.3505 6.73656ZM94.1042 24.2476C93.142 25.0677 92.3922 25.5986 90.3507 25.6655C87.4337 25.6655 86.1792 23.8604 86.1792 20.0072V16.8707C86.1792 12.4339 87.7925 11.2147 90.3507 11.2147C91.6076 11.1834 92.8645 11.2743 94.1042 11.4861V24.2476ZM135.01 6.73656C129.256 6.73656 125.625 9.89937 125.625 16.6644V20.0575C125.625 27.5525 129.553 29.9854 133.807 29.9854C135.905 29.9854 138.059 28.5016 138.764 27.5523V28.9535C138.772 29.161 138.857 29.3577 139.003 29.5039C139.148 29.6501 139.343 29.7348 139.548 29.741H143.984V8.03197C141.058 7.22231 138.043 6.78713 135.01 6.73656ZM138.764 24.2476C137.802 25.0677 137.051 25.5986 135.01 25.6655C132.093 25.6655 130.841 23.8604 130.841 20.0072V16.8707C130.841 12.4339 132.452 11.2147 135.01 11.2147C136.267 11.1833 137.524 11.2742 138.764 11.4861V24.2476ZM0 29.7413H4.68206C4.88801 29.7295 5.08245 29.6412 5.22815 29.4932C5.37385 29.3452 5.46057 29.1479 5.4717 28.9391V16.4156H14.1104C14.7536 16.4066 15.3748 16.6522 15.8421 17.1002C16.3093 17.5481 16.5859 18.1632 16.6128 18.8146V28.9391C16.6159 29.1483 16.6983 29.3484 16.843 29.4977C16.9876 29.6471 17.1834 29.7343 17.3898 29.7413H22.0773V0H17.3895C17.1912 0.0036738 17.0015 0.0824926 16.8577 0.220928C16.7139 0.359364 16.6264 0.547372 16.6126 0.747913V11.919H7.62099C7.06111 11.9193 6.52322 11.6981 6.12183 11.3025C5.72044 10.9068 5.48727 10.368 5.47195 9.80067V0.747913C5.45546 0.546067 5.36544 0.357675 5.21942 0.219418C5.07341 0.0811622 4.88185 0.0029455 4.68206 0H0V29.7413ZM69.3427 6.71661C67.2623 6.73027 65.2264 7.32873 63.4616 8.44543C61.8577 7.22297 59.6705 6.71661 56.9654 6.71661C54.2296 6.73834 51.5183 7.24166 48.9525 8.20412V29.7473H53.3803C53.4853 29.7458 53.589 29.7232 53.6854 29.681C53.7818 29.6388 53.8691 29.5778 53.9422 29.5014C54.0154 29.425 54.073 29.3348 54.1117 29.2358C54.1504 29.1369 54.1695 29.0311 54.168 28.9247L54.1675 28.9043V11.5916C55.0013 11.3434 55.8647 11.212 56.7336 11.2008C59.7955 11.2008 60.5399 12.446 60.5399 15.5202V28.904C60.5385 29.121 60.6202 29.3301 60.7678 29.4873C60.9154 29.6446 61.1173 29.7377 61.3312 29.7471H64.9786C65.0864 29.7485 65.1933 29.7274 65.2927 29.685C65.3921 29.6426 65.4817 29.5799 65.556 29.5007C65.6303 29.4216 65.6877 29.3277 65.7245 29.225C65.7613 29.1223 65.7768 29.013 65.77 28.904V12.2607C66.6346 11.5568 67.7149 11.1816 68.8237 11.2003C71.1887 11.2003 72.1464 12.2779 72.1464 15.2148V28.9037C72.1425 29.1205 72.2225 29.3303 72.3694 29.4879C72.5163 29.6455 72.7183 29.7385 72.9321 29.7468H77.3524V14.4904C77.3524 8.70668 73.7929 6.71661 69.3427 6.71661Z" fill="#5EA720"/>
</svg>
