<svg width="30" height="30" viewBox="0 0 30 30" fill="none" xmlns="http://www.w3.org/2000/svg">
<rect width="30" height="30" fill="#0A436B"/>
<path d="M14.4985 13.6659C13.4886 13.6659 12.6644 14.4901 12.6644 15.5C12.6644 16.5099 13.4886 17.3341 14.4985 17.3341C15.5084 17.3341 16.3326 16.5099 16.3326 15.5C16.3326 14.4901 15.5084 13.6659 14.4985 13.6659ZM19.9994 15.5C19.9994 14.7405 20.0063 13.9879 19.9636 13.2297C19.921 12.3491 19.7201 11.5676 19.0762 10.9237C18.4309 10.2783 17.6507 10.0788 16.7701 10.0362C16.0106 9.99353 15.258 10.0004 14.4999 10.0004C13.7404 10.0004 12.9878 9.99353 12.2297 10.0362C11.3491 10.0788 10.5676 10.2797 9.92364 10.9237C9.27834 11.569 9.07884 12.3491 9.03618 13.2297C8.99353 13.9892 9.00041 14.7419 9.00041 15.5C9.00041 16.2581 8.99353 17.0121 9.03618 17.7703C9.07884 18.6509 9.27972 19.4324 9.92364 20.0763C10.5689 20.7217 11.3491 20.9212 12.2297 20.9638C12.9892 21.0065 13.7418 20.9996 14.4999 20.9996C15.2594 20.9996 16.012 21.0065 16.7701 20.9638C17.6507 20.9212 18.4322 20.7203 19.0762 20.0763C19.7215 19.431 19.921 18.6509 19.9636 17.7703C20.0076 17.0121 19.9994 16.2595 19.9994 15.5ZM14.4985 18.322C12.9369 18.322 11.6765 17.0617 11.6765 15.5C11.6765 13.9383 12.9369 12.678 14.4985 12.678C16.0602 12.678 17.3205 13.9383 17.3205 15.5C17.3205 17.0617 16.0602 18.322 14.4985 18.322ZM17.4361 13.2215C17.0715 13.2215 16.777 12.927 16.777 12.5624C16.777 12.1978 17.0715 11.9033 17.4361 11.9033C17.8007 11.9033 18.0951 12.1978 18.0951 12.5624C18.0952 12.649 18.0783 12.7347 18.0452 12.8147C18.0121 12.8947 17.9636 12.9674 17.9023 13.0287C17.8411 13.0899 17.7684 13.1384 17.6884 13.1715C17.6084 13.2046 17.5227 13.2216 17.4361 13.2215Z" fill="white"/>
</svg>
