<svg width="16" height="16" viewBox="0 0 16 16" fill="none" xmlns="http://www.w3.org/2000/svg">
<path d="M15.9219 4.72248C15.913 4.05067 15.7872 3.38554 15.5503 2.75685C15.3448 2.22655 15.031 1.74494 14.6288 1.34279C14.2267 0.940648 13.7451 0.626811 13.2148 0.421333C12.5942 0.188364 11.9385 0.0623939 11.2758 0.048786C10.4224 0.0106443 10.1519 0 7.98581 0C5.81972 0 5.54208 5.94791e-08 4.69498 0.048786C4.03252 0.0624939 3.37718 0.188463 2.75685 0.421333C2.22646 0.626668 1.74478 0.940454 1.34262 1.34262C0.940455 1.74478 0.626667 2.22646 0.421333 2.75685C0.187898 3.37699 0.0622004 4.03247 0.0496729 4.69498C0.0115312 5.54917 0 5.81972 0 7.98581C0 10.1519 -6.60879e-09 10.4287 0.0496729 11.2766C0.0629782 11.9401 0.188047 12.5947 0.421333 13.2165C0.627012 13.7468 0.941032 14.2283 1.34333 14.6302C1.74563 15.0322 2.22735 15.3459 2.75773 15.5512C3.37637 15.7935 4.03182 15.9285 4.69587 15.9503C5.55006 15.9885 5.8206 16 7.9867 16C10.1528 16 10.4304 16 11.2775 15.9503C11.9403 15.9373 12.596 15.8116 13.2165 15.5787C13.7467 15.373 14.2282 15.059 14.6303 14.6569C15.0324 14.2548 15.3463 13.7733 15.5521 13.2432C15.7853 12.6222 15.9104 11.9676 15.9237 11.3033C15.9619 10.4499 15.9734 10.1794 15.9734 8.01242C15.9716 5.84633 15.9716 5.57135 15.9219 4.72248ZM7.98049 12.0821C5.71505 12.0821 3.87981 10.2468 3.87981 7.98137C3.87981 5.71593 5.71505 3.8807 7.98049 3.8807C9.06805 3.8807 10.1111 4.31273 10.8801 5.08176C11.6491 5.85078 12.0812 6.89381 12.0812 7.98137C12.0812 9.06894 11.6491 10.112 10.8801 10.881C10.1111 11.65 9.06805 12.0821 7.98049 12.0821ZM12.2444 4.68522C12.1188 4.68534 11.9944 4.66068 11.8783 4.61267C11.7622 4.56466 11.6568 4.49423 11.568 4.40542C11.4792 4.3166 11.4087 4.21114 11.3607 4.09508C11.3127 3.97901 11.2881 3.85462 11.2882 3.72902C11.2882 3.6035 11.3129 3.47922 11.3609 3.36326C11.409 3.24731 11.4794 3.14194 11.5681 3.05319C11.6569 2.96444 11.7622 2.89404 11.8782 2.84601C11.9941 2.79798 12.1184 2.77326 12.2439 2.77326C12.3694 2.77326 12.4937 2.79798 12.6097 2.84601C12.7256 2.89404 12.831 2.96444 12.9198 3.05319C13.0085 3.14194 13.0789 3.24731 13.1269 3.36326C13.175 3.47922 13.1997 3.6035 13.1997 3.72902C13.1997 4.25768 12.7722 4.68522 12.2444 4.68522Z" fill="white"/>
<path d="M7.98109 10.645C9.45222 10.645 10.6448 9.45246 10.6448 7.98134C10.6448 6.51021 9.45222 5.31763 7.98109 5.31763C6.50997 5.31763 5.31738 6.51021 5.31738 7.98134C5.31738 9.45246 6.50997 10.645 7.98109 10.645Z" fill="white"/>
</svg>
