<svg width="55" height="55" viewBox="0 0 55 55" fill="none" xmlns="http://www.w3.org/2000/svg">
<path d="M44.3369 24.1003L43.774 23.1619C42.5176 21.0676 40.2196 19.7656 37.7764 19.7656C35.9073 19.7656 34.1507 20.4935 32.8298 21.8144L32.2944 22.3506C31.668 22.9771 31.1601 23.7016 30.7854 24.5068L29.9716 30.9203L31.1781 30.9427C31.4763 30.4322 32.0237 30.085 32.6571 30.085H34.3759V30.0781H34.5237C36.08 30.0781 37.5727 29.4602 38.6727 28.3594C39.7736 29.4602 41.2655 30.0781 42.8218 30.0781H42.9687V30.0841H44.6875C45.3466 30.0841 45.9121 30.4597 46.2009 31.0037L46.322 30.8223C46.9391 29.8951 47.2656 28.814 47.2656 27.6977V27.5C47.2656 25.7778 45.992 24.347 44.3369 24.1003V24.1003Z" fill="#DF453E"/>
<path d="M8.79914 31.0045C9.08703 30.4597 9.65336 30.0841 10.3125 30.0841H12.0312V30.0781H12.1791C13.7354 30.0781 15.2281 29.4602 16.3281 28.3594C17.429 29.4602 18.9209 30.0781 20.4772 30.0781H20.625V30.0841H22.3438V24.683L21.4302 23.161C20.1738 21.0676 17.8759 19.7656 15.4327 19.7656C13.5635 19.7656 11.807 20.4935 10.4861 21.8144L9.94984 22.3515C8.52156 23.7798 7.73438 25.679 7.73438 27.6977C7.73438 28.8123 8.06008 29.8934 8.67797 30.8223L8.79914 31.0045Z" fill="#DF453E"/>
<path d="M33.165 25.8191L32.6021 24.8806C31.3457 22.7863 29.0477 21.4844 26.6045 21.4844C24.7354 21.4844 22.9788 22.2123 21.658 23.5331L21.1217 24.0702C19.6934 25.4985 18.9062 27.3977 18.9062 29.4164C18.9062 30.531 19.232 31.6121 19.8498 32.5411L19.9693 32.7207C20.2563 32.1741 20.8235 31.7969 21.4844 31.7969H23.2031V31.7909H23.3509C24.9073 31.7909 26.4 31.173 27.5 30.0721C28.6009 31.173 30.0927 31.7909 31.6491 31.7909H31.7969V31.7969H33.5156C34.1765 31.7969 34.7428 32.1733 35.0307 32.7198L35.1493 32.5411C35.7672 31.6138 36.0938 30.5327 36.0938 29.4164V29.2187C36.0938 27.4966 34.8202 26.0657 33.165 25.8191V25.8191Z" fill="#DF453E"/>
<path d="M54.1148 18.6983C51.4895 8.195 42.0939 0.859375 31.2675 0.859375H23.7316C12.9061 0.859375 3.51055 8.195 0.885156 18.6983L0.859375 20.625H2.57812C2.57812 18.2557 4.5057 16.3281 6.875 16.3281C9.2443 16.3281 11.1719 18.2557 11.1719 20.625H12.0725H12.8906C12.8906 20.5013 12.8795 20.3801 12.8717 20.258C12.8915 20.2503 12.9104 20.2391 12.9302 20.2314C13.133 18.0486 14.9531 16.3281 17.1875 16.3281C19.5568 16.3281 21.4844 18.2557 21.4844 20.625H23.2031C23.2031 18.5505 24.6821 16.8145 26.6406 16.4149V21.487C27.2267 21.4904 27.8034 21.5677 28.3594 21.7138V16.4158C30.3179 16.8154 31.7969 18.5505 31.7969 20.6259H33.5156C33.5156 18.2566 35.4432 16.329 37.8125 16.329C40.1818 16.329 42.1094 18.2566 42.1094 20.6259H43.8281C43.8281 18.2566 45.7557 16.329 48.125 16.329C50.4943 16.329 52.4219 18.2566 52.4219 20.6259H54.1406V18.9071L54.1148 18.6983ZM12.0312 17.5424C10.9785 15.7893 9.06469 14.6094 6.875 14.6094C5.76211 14.6094 4.71883 14.9136 3.82336 15.4421C7.26516 7.7782 14.8809 2.67438 23.5073 2.58672C20.4583 4.43953 16.6384 8.06695 16.3513 14.6747C14.5157 14.9316 12.9465 16.017 12.0312 17.5424ZM32.6562 17.5424C31.6035 15.7893 29.6897 14.6094 27.5 14.6094C25.3103 14.6094 23.3965 15.7893 22.3438 17.5424C21.4354 16.0291 19.8851 14.9497 18.0692 14.6816C18.4937 5.69336 26.1035 3.025 27.5 2.61078C28.8965 3.02414 36.5062 5.69336 36.9308 14.6816C35.1149 14.9497 33.5646 16.0299 32.6562 17.5424ZM48.125 14.6094C45.9353 14.6094 44.0215 15.7893 42.9688 17.5424C42.0535 16.017 40.4843 14.9316 38.6487 14.6747C38.3616 8.06695 34.5417 4.43867 31.4927 2.58672C40.1191 2.67438 47.7348 7.7782 51.1766 15.4421C50.2812 14.9136 49.2379 14.6094 48.125 14.6094Z" fill="#0A436B"/>
<path d="M27.5 50.7031C40.2944 50.7031 50.7031 40.2943 50.7031 27.4999V26.5271L51.9449 27.3556L52.898 25.9256L48.9844 23.3165V27.4999C48.9844 31.8793 47.6644 35.9545 45.4059 39.355L42.1094 38.8033V37.3415C42.9576 36.5801 43.5505 35.5454 43.7499 34.3741H44.6875C46.1089 34.3741 47.2656 33.2174 47.2656 31.796C47.2656 30.3745 46.1089 29.2178 44.6875 29.2178H43.8281V29.2118H42.8218C41.4838 29.2118 40.2256 28.691 39.2795 27.7449L38.6719 27.1381L38.0643 27.7457C37.5048 28.3043 36.8156 28.7108 36.0697 28.9549C36.0766 29.0434 36.0938 29.1285 36.0938 29.2187V29.4163C36.0938 29.8778 36.025 30.3299 35.9159 30.7707C36.917 30.5576 37.8649 30.1296 38.671 29.4997C39.6653 30.2817 40.8495 30.763 42.1094 30.8945V33.5095C42.1094 35.4053 40.5677 36.947 38.6719 36.947C37.3467 36.947 36.1651 36.1917 35.5919 35.0298C35.9038 34.6035 36.0938 34.0828 36.0938 33.5156C36.0938 32.0942 34.937 30.9374 33.5156 30.9374H32.6563V30.9314H31.6499C30.3119 30.9314 29.0538 30.4106 28.1076 29.4645L27.5 28.8569L26.8924 29.4645C25.9463 30.4106 24.6881 30.9314 23.3501 30.9314H22.3438V30.9374H21.4844C20.063 30.9374 18.9063 32.0942 18.9063 33.5156C18.9063 34.0828 19.0962 34.6035 19.4073 35.0289C18.8349 36.1917 17.6533 36.947 16.3281 36.947C14.4323 36.947 12.8906 35.4053 12.8906 33.5095V30.8945C14.1505 30.763 15.3347 30.2817 16.329 29.4997C17.1351 30.1296 18.083 30.5576 19.0841 30.7707C18.975 30.3299 18.9063 29.8778 18.9063 29.4163C18.9063 29.2608 18.9191 29.1078 18.9286 28.9549C18.1827 28.7108 17.4934 28.3035 16.9357 27.7457L16.3281 27.1381L15.7205 27.7457C14.7744 28.6919 13.5163 29.2127 12.1782 29.2127H11.1719V29.2187H10.3125C8.89109 29.2187 7.73438 30.3754 7.73438 31.7968C7.73438 33.2182 8.89109 34.3749 10.3125 34.3749H11.2501C11.4495 35.5454 12.0424 36.581 12.8906 37.3424V38.8042L9.5932 39.3533C7.33477 35.9528 6.01563 31.8785 6.01563 27.4999H4.29688C4.29688 40.2943 14.7056 50.7031 27.5 50.7031V50.7031ZM44.6875 30.9374C45.161 30.9374 45.5469 31.3224 45.5469 31.7968C45.5469 32.2712 45.161 32.6562 44.6875 32.6562H43.8281V30.9374H44.6875ZM9.45313 31.7968C9.45313 31.3224 9.83898 30.9374 10.3125 30.9374H11.1719V32.6562H10.3125C9.83898 32.6562 9.45313 32.2712 9.45313 31.7968ZM17.2288 46.3649C17.4092 45.0149 18.2368 43.8341 19.4777 43.2145C19.8481 43.0288 20.2417 42.9008 20.6491 42.8338L24.6271 42.1703L27.5 45.0432L30.3729 42.1703L34.3518 42.8338C34.7583 42.9008 35.1519 43.0297 35.5223 43.2145C36.7632 43.8349 37.5908 45.014 37.7713 46.3649C34.7179 48.0338 31.2177 48.9843 27.5 48.9843C23.7823 48.9843 20.2821 48.0338 17.2288 46.3649V46.3649ZM27.5 40.3845C28.1033 40.3845 28.6799 40.2746 29.2188 40.0838V40.8942L27.5 42.6129L25.7813 40.8942V40.0838C26.3201 40.2754 26.8967 40.3845 27.5 40.3845ZM44.2707 40.9062C42.8699 42.6559 41.2027 44.1821 39.3293 45.4222C38.9073 43.8152 37.8245 42.4436 36.2923 41.6771C35.768 41.4149 35.2095 41.2328 34.6345 41.1382L33.1573 40.8916L35.6417 40.4774C36.3095 41.4923 37.4335 42.1093 38.6719 42.1093C39.9102 42.1093 41.0343 41.4923 41.7038 40.4782L44.2707 40.9062ZM40.3906 38.365V39.3284C40.0632 39.9832 39.4049 40.3906 38.6719 40.3906C37.9388 40.3906 37.2805 39.9832 36.9531 39.3284V38.365C37.4954 38.5567 38.072 38.6667 38.6719 38.6667C39.2752 38.6658 39.8518 38.5567 40.3906 38.365ZM33.5156 32.6562C33.9891 32.6562 34.375 33.0412 34.375 33.5156C34.375 33.9899 33.9891 34.3749 33.5156 34.3749H32.6563V32.6562H33.5156ZM32.578 36.0937H33.5156C33.7416 36.0937 33.9565 36.055 34.1653 36.0009C34.4463 36.5113 34.8098 36.9582 35.2344 37.3389V38.8042L31.5391 39.4203C31.3345 39.4538 31.136 39.5114 30.9375 39.5664V39.0611C31.7857 38.2997 32.3787 37.2642 32.578 36.0937ZM24.0625 32.6132C25.3223 32.4817 26.5057 32.0013 27.5 31.2193C28.4943 32.0013 29.6777 32.4817 30.9375 32.6132V35.2283C30.9375 37.1241 29.3958 38.6658 27.5 38.6658C25.6042 38.6658 24.0625 37.1241 24.0625 35.2283V32.6132ZM24.0625 39.0611V39.5664C23.864 39.5114 23.6655 39.4538 23.4618 39.4203L19.7656 38.8033V37.3389C20.1893 36.9582 20.5537 36.5105 20.8347 36.0009C21.0435 36.055 21.2584 36.0937 21.4844 36.0937H22.422C22.6213 37.2642 23.2143 38.2997 24.0625 39.0611V39.0611ZM21.4844 32.6562H22.3438V34.3749H21.4844C21.0109 34.3749 20.625 33.9899 20.625 33.5156C20.625 33.0412 21.0109 32.6562 21.4844 32.6562ZM16.3281 38.6658C16.928 38.6658 17.5046 38.5558 18.0469 38.3642V39.3275C17.7195 39.9832 17.0612 40.3906 16.3281 40.3906C15.5951 40.3906 14.9368 39.9832 14.6094 39.3284V38.365C15.1482 38.5567 15.7248 38.6658 16.3281 38.6658V38.6658ZM13.2971 40.4782C13.9657 41.4923 15.0898 42.1093 16.3281 42.1093C17.5665 42.1093 18.6905 41.4923 19.36 40.4774L21.8445 40.8916L20.3672 41.1382C19.7905 41.2328 19.2328 41.4149 18.7086 41.6771C17.1755 42.4436 16.0935 43.8152 15.6707 45.4222C13.7973 44.1821 12.1309 42.6559 10.7302 40.9071L13.2971 40.4782Z" fill="#0A436B"/>
<path d="M28.4917 52.4219H26.5083C13.3134 52.4219 2.57812 41.6874 2.57812 28.4917V27.5H0.859375V28.4917C0.859375 42.6345 12.3655 54.1406 26.5083 54.1406H28.4917C42.6345 54.1406 54.1406 42.6345 54.1406 28.4917H52.4219C52.4219 41.6874 41.6866 52.4219 28.4917 52.4219V52.4219Z" fill="#0A436B"/>
<path d="M4.29688 24.0625H6.01562V25.7812H4.29688V24.0625Z" fill="#0A436B"/>
</svg>
