<svg width="30" height="30" viewBox="0 0 30 30" fill="none" xmlns="http://www.w3.org/2000/svg">
<rect width="30" height="30" fill="#0A436B"/>
<path d="M12.6124 20V12.5783H10.1455V20H12.6124ZM11.3793 11.5644C12.2395 11.5644 12.7749 10.9945 12.7749 10.2823C12.7589 9.55408 12.2395 9 11.3956 9C10.5518 9 10 9.55409 10 10.2823C10 10.9945 10.5353 11.5644 11.3632 11.5644H11.3792H11.3793ZM13.9777 20H16.4446V15.8554C16.4446 15.6336 16.4606 15.412 16.5257 15.2534C16.7041 14.8102 17.11 14.3512 17.7914 14.3512C18.684 14.3512 19.0411 15.0318 19.0411 16.0295V19.9999H21.5078V15.7444C21.5078 13.4648 20.2908 12.4041 18.6678 12.4041C17.337 12.4041 16.7528 13.1479 16.4282 13.6545H16.4446V12.5782H13.9778C14.0102 13.2746 13.9778 19.9998 13.9778 19.9998L13.9777 20Z" fill="white"/>
</svg>
