<svg width="111" height="20" viewBox="0 0 111 20" fill="none" xmlns="http://www.w3.org/2000/svg">
<path d="M14.18 4.06L9.68 15.22C9.10667 16.6467 8.39333 17.6467 7.54 18.22C6.68667 18.7933 5.64 19.08 4.4 19.08C3.78667 19.08 3.16667 18.9867 2.54 18.8C1.92667 18.6267 1.44 18.3933 1.08 18.1L2.58 15C2.80667 15.1733 3.06 15.3133 3.34 15.42C3.63333 15.5267 3.91333 15.58 4.18 15.58C4.67333 15.58 5.04667 15.4333 5.3 15.14L0.7 4.06H5.34L7.6 9.92L9.9 4.06H14.18ZM20.6511 15.2C19.4378 15.2 18.3444 14.96 17.3711 14.48C16.4111 13.9867 15.6578 13.3133 15.1111 12.46C14.5644 11.5933 14.2911 10.6133 14.2911 9.52C14.2911 8.42667 14.5644 7.45333 15.1111 6.6C15.6578 5.73333 16.4111 5.06 17.3711 4.58C18.3444 4.1 19.4378 3.86 20.6511 3.86C21.8778 3.86 22.9711 4.1 23.9311 4.58C24.9044 5.06 25.6578 5.73333 26.1911 6.6C26.7378 7.45333 27.0111 8.42667 27.0111 9.52C27.0111 10.6133 26.7378 11.5933 26.1911 12.46C25.6578 13.3133 24.9044 13.9867 23.9311 14.48C22.9711 14.96 21.8778 15.2 20.6511 15.2ZM20.6511 11.68C21.1711 11.68 21.5978 11.4933 21.9311 11.12C22.2644 10.7333 22.4311 10.2 22.4311 9.52C22.4311 8.84 22.2644 8.31333 21.9311 7.94C21.5978 7.56667 21.1711 7.38 20.6511 7.38C20.1311 7.38 19.7044 7.56667 19.3711 7.94C19.0378 8.31333 18.8711 8.84 18.8711 9.52C18.8711 10.2 19.0378 10.7333 19.3711 11.12C19.7044 11.4933 20.1311 11.68 20.6511 11.68ZM40.3858 4.06V15H36.0858V13.96C35.6858 14.3733 35.2191 14.6867 34.6858 14.9C34.1524 15.1 33.5858 15.2 32.9858 15.2C31.5991 15.2 30.4858 14.78 29.6458 13.94C28.8058 13.0867 28.3858 11.8067 28.3858 10.1V4.06H32.9058V9.32C32.9058 10.0667 33.0258 10.6 33.2658 10.92C33.5058 11.24 33.8591 11.4 34.3258 11.4C34.7658 11.4 35.1324 11.2267 35.4258 10.88C35.7191 10.52 35.8658 9.96 35.8658 9.2V4.06H40.3858ZM46.6906 5.24C47.4906 4.32 48.6706 3.86 50.2306 3.86V7.86C49.8706 7.80667 49.5373 7.78 49.2306 7.78C47.684 7.78 46.9106 8.56667 46.9106 10.14V15H42.3906V4.06H46.6906V5.24ZM57.5078 0.159999H62.0278V15H57.5078V0.159999ZM69.8113 15.2C68.5979 15.2 67.5046 14.96 66.5313 14.48C65.5713 13.9867 64.8179 13.3133 64.2713 12.46C63.7246 11.5933 63.4513 10.6133 63.4513 9.52C63.4513 8.42667 63.7246 7.45333 64.2713 6.6C64.8179 5.73333 65.5713 5.06 66.5313 4.58C67.5046 4.1 68.5979 3.86 69.8113 3.86C71.0379 3.86 72.1313 4.1 73.0913 4.58C74.0646 5.06 74.8179 5.73333 75.3513 6.6C75.8979 7.45333 76.1713 8.42667 76.1713 9.52C76.1713 10.6133 75.8979 11.5933 75.3513 12.46C74.8179 13.3133 74.0646 13.9867 73.0913 14.48C72.1313 14.96 71.0379 15.2 69.8113 15.2ZM69.8113 11.68C70.3313 11.68 70.7579 11.4933 71.0913 11.12C71.4246 10.7333 71.5913 10.2 71.5913 9.52C71.5913 8.84 71.4246 8.31333 71.0913 7.94C70.7579 7.56667 70.3313 7.38 69.8113 7.38C69.2913 7.38 68.8646 7.56667 68.5313 7.94C68.1979 8.31333 68.0312 8.84 68.0312 9.52C68.0312 10.2 68.1979 10.7333 68.5313 11.12C68.8646 11.4933 69.2913 11.68 69.8113 11.68ZM89.8059 4.06V12.82C89.8059 14.9 89.2259 16.46 88.0659 17.5C86.9193 18.5533 85.2793 19.08 83.1459 19.08C82.0526 19.08 81.0326 18.96 80.0859 18.72C79.1393 18.4933 78.3326 18.16 77.6659 17.72L79.1859 14.64C79.6126 14.96 80.1526 15.22 80.8059 15.42C81.4593 15.62 82.0859 15.72 82.6859 15.72C83.5926 15.72 84.2526 15.5267 84.6659 15.14C85.0793 14.7533 85.2859 14.1867 85.2859 13.44V13.24C84.6059 14.0133 83.5993 14.4 82.2659 14.4C81.3326 14.4 80.4593 14.1867 79.6459 13.76C78.8459 13.32 78.2059 12.7 77.7259 11.9C77.2459 11.0867 77.0059 10.16 77.0059 9.12C77.0059 8.08 77.2459 7.16 77.7259 6.36C78.2059 5.56 78.8459 4.94667 79.6459 4.52C80.4593 4.08 81.3326 3.86 82.2659 3.86C83.7593 3.86 84.8393 4.34 85.5059 5.3V4.06H89.8059ZM83.4659 10.88C83.9993 10.88 84.4393 10.72 84.7859 10.4C85.1459 10.0667 85.3259 9.64 85.3259 9.12C85.3259 8.6 85.1459 8.18 84.7859 7.86C84.4393 7.54 83.9993 7.38 83.4659 7.38C82.9193 7.38 82.4659 7.54 82.1059 7.86C81.7593 8.18 81.5859 8.6 81.5859 9.12C81.5859 9.64 81.7659 10.0667 82.1259 10.4C82.4859 10.72 82.9326 10.88 83.4659 10.88Z" fill="#0A436B"/>
<path d="M97.5847 15.2C96.3714 15.2 95.278 14.96 94.3047 14.48C93.3447 13.9867 92.5914 13.3133 92.0447 12.46C91.498 11.5933 91.2247 10.6133 91.2247 9.52C91.2247 8.42667 91.498 7.45333 92.0447 6.6C92.5914 5.73333 93.3447 5.06 94.3047 4.58C95.278 4.1 96.3714 3.86 97.5847 3.86C98.8114 3.86 99.9047 4.1 100.865 4.58C101.838 5.06 102.591 5.73333 103.125 6.6C103.671 7.45333 103.945 8.42667 103.945 9.52C103.945 10.6133 103.671 11.5933 103.125 12.46C102.591 13.3133 101.838 13.9867 100.865 14.48C99.9047 14.96 98.8114 15.2 97.5847 15.2ZM97.5847 11.68C98.1047 11.68 98.5314 11.4933 98.8647 11.12C99.198 10.7333 99.3647 10.2 99.3647 9.52C99.3647 8.84 99.198 8.31333 98.8647 7.94C98.5314 7.56667 98.1047 7.38 97.5847 7.38C97.0647 7.38 96.638 7.56667 96.3047 7.94C95.9714 8.31333 95.8047 8.84 95.8047 9.52C95.8047 10.2 95.9714 10.7333 96.3047 11.12C96.638 11.4933 97.0647 11.68 97.5847 11.68ZM107.399 15.2C106.639 15.2 106.006 14.96 105.499 14.48C105.006 13.9867 104.759 13.36 104.759 12.6C104.759 11.84 105.006 11.2267 105.499 10.76C106.006 10.28 106.639 10.04 107.399 10.04C108.159 10.04 108.786 10.28 109.279 10.76C109.786 11.2267 110.039 11.84 110.039 12.6C110.039 13.36 109.786 13.9867 109.279 14.48C108.786 14.96 108.159 15.2 107.399 15.2Z" fill="#DF453E"/>
</svg>
