<svg width="55" height="55" viewBox="0 0 55 55" fill="none" xmlns="http://www.w3.org/2000/svg">
<path d="M50.2459 22.9436L49.8919 22.2363C49.298 21.0495 48.9844 19.7209 48.9844 18.3932V17.1875C48.9844 11.501 44.3584 6.875 38.6719 6.875C32.9854 6.875 28.3594 11.501 28.3594 17.1875V18.3932C28.3594 19.7201 28.0457 21.0495 27.4519 22.2363L27.0978 22.9445C26.7987 23.5434 26.6406 24.2146 26.6406 24.8832C26.6406 27.274 28.5854 29.2188 30.9762 29.2188H35.585C33.8327 28.1677 32.6562 26.2548 32.6562 24.0625V19.7656C35.3616 19.7656 37.9079 18.492 39.5312 16.3281C42.3792 16.3281 44.6875 18.6364 44.6875 21.4844V24.0625C44.6875 26.2548 43.511 28.1677 41.7587 29.2188H46.3676C48.7584 29.2188 50.7031 27.274 50.7031 24.8832C50.7031 24.2146 50.545 23.5434 50.2459 22.9436V22.9436Z" fill="#DF453E"/>
<path d="M50.1368 32.9639C49.0265 32.224 47.7417 31.7333 46.4209 31.5442L42.833 31.032L42.5709 29.7189C44.3661 28.4771 45.5469 26.406 45.5469 24.0625V21.4844C45.5469 18.1672 42.8476 15.4688 39.5312 15.4688H39.1016L38.8438 15.8125C37.3905 17.7495 35.0771 18.9062 32.6562 18.9062H31.7969V24.0625C31.7969 26.406 32.9777 28.4771 34.7738 29.7189L34.5297 30.9375H30.6737C30.8146 30.3823 30.9263 29.7988 31.0423 29.2188H30.9762C30.4047 29.2188 29.8624 29.1019 29.3623 28.8999C29.2187 29.5969 29.0615 30.2784 28.8836 30.9375H14.0852C13.3934 28.3731 12.968 25.4427 12.9009 22.3438H16.3281V24.0625H18.9062V26.6406H24.0625V24.0625H26.6406V22.3438H27.3986L27.4527 22.2363C27.7097 21.7233 27.903 21.1802 28.0526 20.625H26.6406V18.9062H24.0625V16.3281H18.9062V18.9062H16.3281V20.625H12.9009C12.968 17.5261 13.3934 14.5956 14.0852 12.0312H28.8973C28.9962 12.4008 29.0873 12.7823 29.1766 13.1673C29.6252 12.112 30.2526 11.1538 31.008 10.3125H30.189C29.2273 7.26172 27.9013 4.84602 26.345 3.21664C29.3803 4.02617 32.1913 5.58508 34.4945 7.76703C35.0745 7.50922 35.6821 7.30555 36.3129 7.15773C32.4363 3.15133 27.0703 0.859375 21.4844 0.859375C10.1123 0.859375 0.859375 10.1123 0.859375 21.4844C0.859375 32.8565 10.1123 42.1094 21.4844 42.1094C22.0567 42.1094 22.6308 42.0767 23.2031 42.0295V52.4219H34.375H35.2344H37.2986C37.8125 53.4368 38.8549 54.1406 40.0684 54.1406H45.8691C47.0826 54.1406 48.125 53.4368 48.6389 52.4219H48.9844C51.828 52.4219 54.1406 50.1093 54.1406 47.2656V40.4456C54.1406 37.4327 52.6436 34.6354 50.1368 32.9639V32.9639ZM18.0469 20.625H20.625V18.0469H22.3438V20.625H24.9219V22.3438H22.3438V24.9219H20.625V22.3438H18.0469V20.625ZM33.5156 24.0625V20.5855C36.0044 20.3552 38.3316 19.1348 39.9326 17.2064C42.1145 17.4092 43.8281 19.25 43.8281 21.4844V24.0625C43.8281 26.9062 41.5155 29.2188 38.6719 29.2188C35.8282 29.2188 33.5156 26.9062 33.5156 24.0625V24.0625ZM38.6719 30.9375C39.4823 30.9375 40.2574 30.7888 40.9802 30.5302L41.2294 31.7763L41.042 32.5248C40.7687 33.6136 39.7951 34.375 38.6719 34.375C37.5487 34.375 36.575 33.6136 36.3017 32.5256L36.1144 31.7771L36.3636 30.531C37.0863 30.7888 37.8615 30.9375 38.6719 30.9375V30.9375ZM21.4844 2.57812C24.1991 2.57812 26.7575 5.53008 28.3757 10.3125H14.6051C16.188 5.65641 18.7069 2.57812 21.4844 2.57812ZM16.6298 3.2132C15.0477 4.86664 13.7216 7.31586 12.7712 10.3125H6.24422C8.76391 6.88531 12.4085 4.33555 16.6298 3.2132V3.2132ZM5.12188 12.0312H12.2839C11.6325 14.612 11.2432 17.5192 11.1822 20.625H2.59961C2.74055 17.5046 3.64289 14.581 5.12188 12.0312ZM2.59961 22.3438H11.1822C11.2432 25.4495 11.6325 28.3568 12.2839 30.9375H5.12188C3.64289 28.3877 2.74055 25.4641 2.59961 22.3438ZM6.24422 32.6562H12.7712C13.7208 35.6529 15.0477 38.1021 16.6298 39.7555C12.4085 38.6332 8.76391 36.0834 6.24422 32.6562ZM21.4844 40.3906C18.7069 40.3906 16.188 37.3123 14.6051 32.6562H27.7312C27.555 32.7568 27.3754 32.8522 27.207 32.9639C24.8342 34.546 23.3827 37.1396 23.2323 39.9687C22.6566 40.2445 22.0705 40.3906 21.4844 40.3906ZM24.9219 40.4456C24.9219 38.0076 26.1327 35.7457 28.1609 34.3939C29.0589 33.7958 30.0987 33.3988 31.167 33.2458L34.589 32.7568L34.6354 32.9416C35.0995 34.7978 36.7589 36.0938 38.6719 36.0938C39.7607 36.0938 40.7584 35.6641 41.5095 34.9594L38.8137 44.2028C38.384 43.9648 37.8959 43.8281 37.3828 43.8281C36.2596 43.8281 35.2507 44.452 34.7488 45.4566L34.7033 45.5469H34.375C32.9536 45.5469 31.7969 46.7036 31.7969 48.125V49.8438C31.7969 50.1462 31.8587 50.4333 31.955 50.7031H30.0781V38.6719H28.3594V50.7031H24.9219V40.4456ZM34.375 50.7031C33.9006 50.7031 33.5156 50.3181 33.5156 49.8438V48.125C33.5156 47.6506 33.9006 47.2656 34.375 47.2656H35.7655L36.2854 46.2249C36.4951 45.8073 36.9153 45.5469 37.3828 45.5469C37.7412 45.5469 38.0703 45.7041 38.2998 45.9645L37.0786 50.1505C37.0253 50.331 36.9952 50.5158 36.9755 50.7031H35.2344H34.375ZM45.8691 52.4219H40.0684C39.2984 52.4219 38.6719 51.7954 38.6719 51.0254C38.6719 50.893 38.6899 50.7616 38.7277 50.6344L43.8943 32.9201L46.1768 33.2466C46.5455 33.2991 46.9081 33.391 47.2656 33.5002V51.0254C47.2656 51.7954 46.6391 52.4219 45.8691 52.4219V52.4219ZM52.4219 47.2656C52.4219 49.1614 50.8802 50.7031 48.9844 50.7031V48.0116L50.2262 48.84L51.1792 47.41L48.9844 45.9465V34.277C49.0497 34.3174 49.1193 34.3509 49.1829 34.3939C51.211 35.7466 52.4219 38.0084 52.4219 40.4456V47.2656Z" fill="#0A436B"/>
<path d="M41.25 22.3438C41.7246 22.3438 42.1094 21.959 42.1094 21.4844C42.1094 21.0098 41.7246 20.625 41.25 20.625C40.7754 20.625 40.3906 21.0098 40.3906 21.4844C40.3906 21.959 40.7754 22.3438 41.25 22.3438Z" fill="#0A436B"/>
<path d="M36.0938 22.3438C36.5684 22.3438 36.9531 21.959 36.9531 21.4844C36.9531 21.0098 36.5684 20.625 36.0938 20.625C35.6191 20.625 35.2344 21.0098 35.2344 21.4844C35.2344 21.959 35.6191 22.3438 36.0938 22.3438Z" fill="#0A436B"/>
<path d="M38.6719 27.5C40.5677 27.5 42.1094 25.9583 42.1094 24.0625H40.3906C40.3906 25.0104 39.6198 25.7812 38.6719 25.7812C37.724 25.7812 36.9531 25.0104 36.9531 24.0625H35.2344C35.2344 25.9583 36.7761 27.5 38.6719 27.5Z" fill="#0A436B"/>
</svg>
