<svg width="87" height="65" viewBox="0 0 87 65" fill="none" xmlns="http://www.w3.org/2000/svg">
<g clip-path="url(#clip0)">
<path d="M43.8736 0C29.6108 0 18.0508 11.5876 18.0508 25.8793C18.0508 40.1711 29.6108 51.7563 43.8736 51.7563C58.1342 51.7563 69.6965 40.1711 69.6965 25.8793C69.6989 11.5876 58.1365 0 43.8736 0ZM43.8736 51.3257C29.8492 51.3257 18.4828 39.9345 18.4828 25.8817C18.4828 11.8266 29.8515 0.435305 43.8736 0.435305C57.8958 0.435305 69.2645 11.8266 69.2645 25.8817C69.2669 39.9321 57.8958 51.3257 43.8736 51.3257Z" fill="#1B3B73"/>
<path d="M68.0343 25.8699C68.0343 39.22 57.1943 50.0813 43.8709 50.0813C30.5499 50.0813 19.71 39.2224 19.71 25.8699C19.71 12.5174 30.5476 1.65369 43.8709 1.65369C57.1943 1.65369 68.0343 12.5174 68.0343 25.8699ZM30.7128 17.2821H26.4991V19.0635H32.0725L31.3691 17.6086C31.1826 17.2821 30.7128 17.2821 30.7128 17.2821ZM36.0077 43.8404L37.7853 37.9307H33.758L34.7401 40.3248L33.3355 42.3902L36.0077 43.8404ZM32.1198 20.2843H26.5487V22.2076H33.5715L32.7737 20.6107C32.6344 20.2369 32.1198 20.2843 32.1198 20.2843ZM29.0273 28.4983C29.0273 28.4983 29.1218 28.1221 28.8857 27.6986C28.6072 27.1356 27.9037 27.1356 27.9037 27.1356L28.652 24.7414H27.1082C26.5463 25.9148 26.2182 27.1829 25.9373 28.4959H29.0273V28.4983ZM35.1602 21.6446C35.1602 23.2888 36.52 24.6468 38.1582 24.6468C39.7965 24.6468 41.1539 23.2864 41.1539 21.6446C41.1539 21.5358 41.1491 21.4246 41.1373 21.3181H42.3719V32.9578H38.8145L34.4591 24.0861H31.9781L31.6972 24.6964H29.9197V27.2775H30.5287L31.8388 31.077H30.76L30.1982 29.5747H27.5756V30.6062H29.5892L30.2454 32.2031H29.3083L28.9801 31.5927H27.7172L27.4363 31.9689L27.906 33.6107L27.1577 34.5949L27.8116 36.5656H38.1606L38.8168 34.4553H42.4215V40.5094C42.4215 41.3066 42.7969 41.9643 43.2171 42.5747C44.2959 44.1692 46.1678 44.7772 47.995 44.3088C47.8061 43.1827 47.4308 40.7885 47.4308 40.7885C47.6668 40.7885 47.9477 40.8358 48.0422 41.1174C48.2287 41.7254 48.4624 42.2435 48.9298 42.667C49.3523 43.0408 49.7253 43.23 50.2895 43.275C50.8513 43.3223 51.2715 43.275 51.694 43.0857C52.1166 42.9438 53.5212 42.2884 53.5212 42.2884L52.1166 39.1443C52.2582 39.097 52.4896 39.0497 52.6784 39.2839C53.4267 40.1758 54.1798 40.6915 55.3931 40.552C56.6112 40.41 57.2226 39.66 58.5328 38.5339L55.8181 35.7636C56.1462 35.5317 56.4247 35.6264 56.6608 35.8109C57.2226 36.2344 57.69 36.4237 58.2991 36.4686C60.3127 36.7052 61.6228 33.1376 61.6228 33.1376L58.3463 31.4957C58.6744 30.6961 59.4204 31.4957 60.0341 31.4484C60.832 31.4484 62.0005 30.9327 62.2814 29.9461C62.5624 29.0069 62.7016 28.2096 62.9377 27.2231L59.5644 26.8943C59.7532 25.9574 60.5464 26.6127 61.4363 26.0497C63.3083 25.0655 62.2814 21.7794 62.2342 21.0768L58.7216 21.7321C58.6296 21.4506 58.7688 21.1691 59.0498 21.0768C59.8925 20.7006 60.3575 20.4664 60.7825 19.8561C61.67 17.9327 60.3599 16.6173 59.7036 15.2096C58.6272 15.6308 56.3799 16.6646 56.3799 16.6646C56.3327 16.4777 56.2878 16.1015 56.5664 15.9146C56.9913 15.5858 57.598 15.5385 57.9733 14.4597C58.3911 12.9101 57.1306 11.6894 56.1958 10.5159L52.3999 12.392C52.1685 11.8289 52.8248 11.5474 53.0585 11.1712C53.4315 10.6555 53.5707 10.1398 53.245 9.57671C52.8248 8.82675 52.2134 8.12175 51.6043 7.37179L47.9525 9.29518C47.5771 8.68481 48.2357 8.49791 48.5615 7.98217C49.0313 7.37179 48.748 6.34031 48.2357 5.72994C42.1453 7.93722 35.918 9.62402 30.7223 13.9439C30.4414 14.8358 32.1268 16.1465 33.1112 14.4597L34.4686 15.4439L34.2679 15.6118L34.1027 15.7916C33.7557 16.2246 33.725 16.7001 33.8855 17.1023C34.0673 17.6511 34.5842 18.0722 35.2193 18.0722C35.6725 18.0722 36.0903 17.8309 36.3524 17.4737L37.3131 18.7583C36.0738 19.1298 35.1602 20.263 35.1602 21.6446Z" fill="#1B3B73"/>
<path d="M59.5122 58.8679V57.4508H66.9694C67.7531 57.4508 68.5038 58.2244 68.5038 58.8111V64.7493H66.2093V58.8703C66.2093 58.2859 65.7702 58.1393 65.1328 58.1393V58.8703V64.5553V64.7516H62.836V58.8726C62.836 58.2883 62.3969 58.1416 61.7595 58.1416V58.8726V64.7516H59.5146L59.5122 58.8679Z" fill="#1B3B73"/>
<path d="M75.4941 57.4508H77.5479V58.4302V60.4861V60.7795H78.6243V60.4861V58.4302V57.4508H80.6757V58.4302V60.4861V62.5444V64.5505V64.7493H78.6243V64.5505V62.5444V61.6619H77.5479V62.5444V64.5505V64.7493H75.4941V64.5505V62.5444V60.4861V58.4302V57.4508Z" fill="#1B3B73"/>
<path d="M14.4036 57.4508H16.5541V64.5529V64.7493H12.7889C12.5458 64.7493 12.2649 64.6736 12.0075 64.5529C11.5213 64.3282 11.1294 63.9165 11.1294 63.0814V62.5444V57.4508H13.2304V63.4741C13.2304 64.0561 13.7686 64.2075 14.4036 64.1602V57.4508Z" fill="#1B3B73"/>
<path d="M25.8856 57.4484H28.0361V64.5505V64.7468H24.2733C24.0301 64.7468 23.7516 64.6711 23.4919 64.5505C23.0056 64.3257 22.6138 63.9117 22.6138 63.0789V62.5419V57.4484H24.7147V63.4717C24.7147 64.0537 25.2506 64.2051 25.8856 64.1554V57.4484Z" fill="#1B3B73"/>
<path d="M31.9968 58.4302C31.9 58.2836 31.7537 58.1369 31.5577 58.1369H29.1145V57.4508H33.1228C33.7578 57.4508 34.2465 57.9453 34.2465 58.4302V58.7709V64.5529V64.7493H30.1437C29.8982 64.7493 29.6551 64.6996 29.4568 64.5529C29.0673 64.3069 28.8218 63.8692 28.8218 63.1311V62.5467V60.9143C28.8218 60.2117 29.3128 59.6605 29.8959 59.6581H31.0195V63.4765C31.0691 64.1626 31.4586 64.2099 32.0936 64.1626V59.1163C32.0936 59.114 32.1432 58.7212 31.9968 58.4302Z" fill="#1B3B73"/>
<path d="M72.4606 58.4278C72.3638 58.2811 72.2175 58.1321 72.0215 58.1321H69.5783V57.4484H73.5866C74.2216 57.4484 74.7103 57.9428 74.7103 58.4278V58.7661V64.5505V64.7468H70.6051C70.3596 64.7468 70.1165 64.6972 69.9182 64.5505C69.5263 64.3044 69.2832 63.8644 69.2832 63.1286V62.5419V60.9095C69.2832 60.2069 69.7742 59.6533 70.3573 59.6533H71.4809V63.4717C71.5305 64.1578 71.92 64.2051 72.5574 64.1578V59.1139C72.5598 59.1139 72.607 58.7188 72.4606 58.4278Z" fill="#1B3B73"/>
<path d="M84.6316 58.4278C84.5324 58.2811 84.3861 58.1344 84.1925 58.1344H81.7493V57.4484H85.7552C86.3902 57.4484 86.8813 57.9428 86.8813 58.4278V58.7685V64.5505V64.7468H82.7761C82.5306 64.7468 82.2875 64.6972 82.0916 64.5505C81.6997 64.3044 81.4565 63.8668 81.4565 63.1286V62.5443V60.9119C81.4565 60.2092 81.9476 59.6556 82.5283 59.6556H83.6519V63.474C83.7015 64.1601 84.091 64.2074 84.7284 64.1601V59.1162C84.7307 59.1139 84.7779 58.7188 84.6316 58.4278Z" fill="#1B3B73"/>
<path d="M18.4592 58.4302L16.8965 58.3806V57.4508H22.3212V58.3806H20.7065V64.7493H18.4592V58.4302Z" fill="#1B3B73"/>
<path d="M39.5253 64.7493H35.0283V57.4508H37.2756V63.8668H39.5253V64.7493Z" fill="#1B3B73"/>
<path d="M7.55984 53.9233H10.3477V64.7492H8.00128V56.1756L5.80117 64.7492H4.08972L1.74562 56.1756V64.7492H0.71875V53.9233H3.65065L5.70439 61.3685L7.55984 53.9233Z" fill="#1B3B73"/>
<path d="M46.4652 57.692H48.2734L48.1271 58.2811H46.1725C46.1725 58.2811 45.927 59.1139 45.6838 59.7479C45.5871 60.0412 45.4879 60.2897 45.3911 60.486C44.7561 61.9031 44.317 62.2982 44.0715 62.5442C43.2902 63.3273 41.6637 64.0891 40.5046 63.817C39.9452 63.6893 40.0656 63.72 39.6737 63.5237L39.7256 63.0032C39.7256 63.0032 40.7997 63.6041 41.7746 63.2776C42.8747 62.9086 43.3374 61.9055 43.5829 61.4654C43.7292 61.2194 43.9252 60.874 44.0715 60.486C44.4138 59.7029 44.801 58.8181 44.9497 58.4301C44.9993 58.3331 45.0465 58.2835 45.0465 58.2835H43.5805L43.6159 58.4301L43.6277 58.4798C43.8544 59.5373 43.335 60.5641 42.7 60.9757C41.8667 61.5128 40.2969 61.5719 39.669 60.8291C39.322 60.415 39.3267 59.8543 39.5226 59.4096C39.7658 58.856 40.0962 58.0587 41.1845 57.7417C41.6755 57.5998 41.9659 57.6471 42.4049 57.692H45.3392C45.3392 57.692 45.7688 56.8948 46.4581 56.2158C46.9043 55.7757 47.4567 55.4351 48.2711 55.2482V55.7852C47.4496 55.7497 47.2631 56.1566 47.0506 56.424C46.9421 56.5588 46.5998 57.1621 46.4652 57.692ZM42.5536 58.4301C42.5064 58.1841 42.2114 58.0729 41.8219 58.1368C41.6566 58.1628 41.4796 58.2835 41.3828 58.4301C41.3828 58.4301 40.854 59.4072 40.7478 59.6556C40.6203 59.9561 40.5046 60.2423 40.5046 60.4884C40.5046 60.7297 40.6581 60.848 40.9437 60.926C41.2931 61.023 41.5787 60.829 41.8242 60.4884C41.9706 60.292 42.0603 60.0909 42.1665 59.8496C42.3931 59.3197 42.6504 58.8678 42.5536 58.4301Z" fill="#1B3B73"/>
<path d="M48.8094 58.4302C48.8566 57.9878 48.9039 57.5501 49.003 57.155C49.0526 56.909 49.1494 56.6653 49.2485 56.4216C49.9803 54.7537 51.5454 53.5779 53.9414 53.6276C56.1392 53.6276 57.7538 54.5101 58.5328 56.4216C58.6816 56.7126 58.7783 57.1077 58.8775 57.4507C58.9271 57.7417 58.9766 58.0871 58.9766 58.4302C59.0239 59.0642 59.0239 59.8 58.9766 60.486C58.8775 61.2194 58.7288 61.9552 58.4856 62.5443C58.3888 62.7406 58.3015 62.9417 58.1433 63.1286C57.6429 63.7343 56.9583 64.198 56.1887 64.5505C55.5514 64.8415 54.8219 64.9881 53.991 64.9881C53.0113 65.0378 52.1828 64.8935 51.4014 64.5505C50.5728 64.2074 49.8835 63.571 49.3004 62.5443C49.2509 62.4473 49.2202 62.3432 49.1777 62.2509C48.9747 61.7896 48.859 61.1721 48.7622 60.486C48.7127 59.8473 48.7127 59.1139 48.8094 58.4302ZM51.5454 56.4216C51.4486 57.0083 51.4486 57.692 51.4486 58.4302V59.3102V60.486C51.4486 61.2691 51.4982 61.9552 51.595 62.5443C51.8405 63.6704 52.4755 64.4038 53.9414 64.4038C55.3082 64.4038 55.8984 63.6207 56.1392 62.5443C56.2855 61.9055 56.2855 61.2194 56.2855 60.486V59.3102V58.4799C56.2855 57.7086 56.2832 56.9965 56.1864 56.4216C55.9928 55.1961 55.4546 54.3161 53.9391 54.3161C52.23 54.3161 51.6941 55.0968 51.5454 56.4216Z" fill="#1B3B73"/>
</g>
<defs>
<clipPath id="clip0">
<rect width="86.1628" height="65" fill="white" transform="translate(0.71875)"/>
</clipPath>
</defs>
</svg>
