<svg width="45" height="45" viewBox="0 0 45 45" fill="none" xmlns="http://www.w3.org/2000/svg">
<path d="M11.3407 0C10.8553 0 10.4617 0.393662 10.4617 0.878994C10.4617 1.36441 10.8553 1.75799 11.3407 1.75799C16.3059 1.75799 20.3454 5.90229 20.3454 10.9966C20.3454 11.482 20.739 11.8756 21.2244 11.8756C21.7098 11.8756 22.1034 11.4819 22.1034 10.9966C22.1035 4.93304 17.2753 0 11.3407 0Z" fill="#DF453E"/>
<path d="M11.3378 4.17017C10.8524 4.17017 10.4588 4.56383 10.4588 5.04916C10.4588 5.53458 10.8524 5.92815 11.3378 5.92815C14.0567 5.92815 16.2686 8.20179 16.2686 10.9964C16.2686 11.4819 16.6623 11.8754 17.1476 11.8754C17.633 11.8754 18.0266 11.4818 18.0266 10.9964C18.0267 7.23245 15.026 4.17017 11.3378 4.17017Z" fill="#DF453E"/>
<path d="M11.3549 8.01166C10.8694 8.01166 10.4759 8.40514 10.4759 8.89065C10.4759 9.37607 10.8696 9.76965 11.3549 9.76965C11.9901 9.76965 12.5067 10.3079 12.5067 10.9695C12.5067 11.4549 12.9003 11.8485 13.3857 11.8485C13.8711 11.8485 14.2647 11.4549 14.2647 10.9695C14.2648 9.33854 12.9593 8.01166 11.3549 8.01166Z" fill="#DF453E"/>
<path d="M40.2964 6.96664H38.3479C37.8625 6.96664 37.4689 7.36022 37.4689 7.84564C37.4689 8.33106 37.8625 8.72463 38.3479 8.72463H40.2964C41.9201 8.72463 43.2411 10.0456 43.2411 11.6693V23.6013C43.2411 24.5361 42.8026 25.37 42.1212 25.9098V23.6111C42.1212 21.8178 40.8416 20.2775 39.0787 19.9487L38.5104 19.8428C38.6372 19.4543 38.7065 19.0403 38.7065 18.6101V16.5902C38.7065 14.3939 36.9197 12.6071 34.7234 12.6071C32.5271 12.6071 30.7404 14.3939 30.7404 16.5902V18.6101C30.7404 19.0403 30.8098 19.4543 30.9365 19.8428L30.3683 19.9487C28.6053 20.2774 27.3257 21.8177 27.3257 23.6111V26.1593C26.4373 25.6517 25.8368 24.6956 25.8368 23.6013V11.6693C25.8368 10.0456 27.1578 8.72463 28.7815 8.72463H30.8764C31.3619 8.72463 31.7554 8.33106 31.7554 7.84564C31.7554 7.36022 31.3618 6.96664 30.8764 6.96664H28.7815C26.1884 6.96664 24.0788 9.07628 24.0788 11.6693V23.6013C24.0788 26.1943 26.1884 28.3039 28.7815 28.3039H33.2047V30.8312C33.2047 31.1862 33.4182 31.5065 33.746 31.6427C33.8551 31.6882 33.9697 31.7102 34.0835 31.7102C34.3113 31.7102 34.5353 31.6216 34.7033 31.4548L37.874 28.3039H40.2964C42.8894 28.3039 44.9991 26.1943 44.9991 23.6013V11.6693C44.9991 9.07628 42.8894 6.96664 40.2964 6.96664ZM32.4983 16.5902C32.4983 15.3633 33.4964 14.3651 34.7233 14.3651C35.9503 14.3651 36.9484 15.3633 36.9484 16.5902V18.6101C36.9484 19.8371 35.9503 20.8353 34.7233 20.8353C33.4964 20.8353 32.4983 19.8371 32.4983 18.6101V16.5902ZM40.3629 26.5441C40.3407 26.5446 40.3186 26.5458 40.2962 26.5458H37.5116V26.5459C37.2794 26.5459 37.0566 26.6378 36.8919 26.8014L34.9626 28.7186V27.4248C34.9626 26.9394 34.569 26.5459 34.0837 26.5459H29.0838V23.611C29.0838 22.664 29.7596 21.8505 30.6905 21.6768L31.9297 21.4457C32.6492 22.1548 33.6358 22.5932 34.7234 22.5932C35.8109 22.5932 36.7977 22.1546 37.5172 21.4457L38.7564 21.6767C39.6875 21.8504 40.3632 22.6638 40.3632 23.611V26.5441H40.3629Z" fill="#DF453E"/>
<path d="M34.8087 7.2245C34.6453 7.06014 34.4184 6.96698 34.1873 6.96698C33.9561 6.96698 33.7293 7.06014 33.5658 7.2245C33.4023 7.38719 33.3083 7.61403 33.3083 7.84597C33.3083 8.07713 33.4022 8.30397 33.5658 8.46745C33.7293 8.63084 33.956 8.72497 34.1873 8.72497C34.4184 8.72497 34.6453 8.63093 34.8087 8.46745C34.9721 8.30309 35.0663 8.07721 35.0663 7.84597C35.0663 7.61394 34.9722 7.38798 34.8087 7.2245Z" fill="#DF453E"/>
<path d="M16.3364 29.5697C16.1729 29.4062 15.9471 29.3121 15.7149 29.3121C15.4838 29.3121 15.2569 29.4062 15.0935 29.5697C14.9301 29.7331 14.8359 29.9599 14.8359 30.1911C14.8359 30.4232 14.93 30.6491 15.0935 30.8126C15.2578 30.977 15.4838 31.0709 15.7149 31.0709C15.9461 31.0709 16.1729 30.977 16.3364 30.8126C16.5008 30.6491 16.5939 30.4231 16.5939 30.1911C16.5939 29.96 16.5008 29.7332 16.3364 29.5697Z" fill="#DF453E"/>
<path d="M35.5762 37.5178L28.842 30.7836C27.9455 29.8871 26.5352 29.756 25.489 30.4715L21.191 33.4104C20.8421 33.6488 20.3723 33.6051 20.0734 33.3062L18.6521 31.8848C18.309 31.5418 17.7525 31.5417 17.4089 31.8848C17.0657 32.2281 17.0657 32.7846 17.4089 33.1281L18.8301 34.5494C19.7266 35.4458 21.1367 35.5772 22.1832 34.8615L26.4812 31.9227C26.8299 31.6843 27.2999 31.7279 27.5988 32.0268L34.3331 38.7611C34.6758 39.1037 34.6757 39.6614 34.333 40.0043C30.0147 44.3225 22.9883 44.3225 18.6701 40.0043L4.9959 26.3299C2.90393 24.238 1.75203 21.4568 1.75203 18.4984C1.75203 15.54 2.90402 12.7587 4.99599 10.6667C5.16201 10.5007 5.38271 10.4094 5.61746 10.4094C5.8523 10.4094 6.07309 10.5008 6.23902 10.6668L12.9732 17.4011C13.2719 17.6998 13.3157 18.17 13.0774 18.5187L10.1386 22.8167C9.42295 23.8631 9.55426 25.2732 10.4507 26.1698L12.5871 28.3062C12.9304 28.6493 13.4868 28.6493 13.8303 28.3062C14.1735 27.963 14.1735 27.4064 13.8303 27.063L11.6939 24.9265C11.3951 24.6278 11.3514 24.1578 11.5898 23.809L14.5286 19.511C15.2441 18.4646 15.1128 17.0544 14.2164 16.158L7.48224 9.4237C6.45409 8.39555 4.78109 8.39555 3.75277 9.4237C-1.25092 14.4275 -1.25092 22.5692 3.75277 27.573L17.427 41.2471C19.9289 43.749 23.2152 45 26.5015 45C29.7879 44.9999 33.0742 43.7489 35.5761 41.2471C36.6043 40.219 36.6043 38.5461 35.5762 37.5178Z" fill="#DF453E"/>
<path d="M11.8407 21.614L6.51228 16.2855C6.16889 15.9424 5.61246 15.9424 5.26907 16.2855C4.92585 16.6288 4.92585 17.1855 5.26907 17.5288L10.5976 22.8572C10.7693 23.0288 10.9941 23.1146 11.2192 23.1146C11.4441 23.1146 11.6691 23.0288 11.8407 22.8572C12.1839 22.5139 12.1839 21.9573 11.8407 21.614Z" fill="#DF453E"/>
<path d="M32.2343 42.0075L26.6279 36.4011C26.2845 36.0579 25.7281 36.0579 25.3847 36.4011C25.0415 36.7444 25.0415 37.301 25.3847 37.6443L30.9911 43.2507C31.1628 43.4223 31.3876 43.5081 31.6127 43.5081C31.8376 43.5081 32.0626 43.4223 32.2343 43.2507C32.5775 42.9073 32.5775 42.3508 32.2343 42.0075Z" fill="#DF453E"/>
</svg>
