<svg width="30" height="30" viewBox="0 0 30 30" fill="none" xmlns="http://www.w3.org/2000/svg">
<rect width="30" height="30" fill="#0A436B"/>
<path d="M22.54 11.3067C22.0421 11.5215 21.5002 11.676 20.9421 11.7362C21.5216 11.392 21.9555 10.8481 22.1625 10.2067C21.6188 10.5301 21.0231 10.757 20.4019 10.8771C20.1422 10.5995 19.8282 10.3784 19.4794 10.2275C19.1306 10.0766 18.7544 9.99917 18.3744 10C16.8367 10 15.6 11.2465 15.6 12.776C15.6 12.9908 15.626 13.2056 15.6683 13.4123C13.3658 13.2919 11.3123 12.1919 9.94704 10.5077C9.69828 10.9326 9.56792 11.4164 9.56952 11.9087C9.56952 12.872 10.0593 13.7215 10.8062 14.221C10.3661 14.2037 9.9362 14.0827 9.55163 13.8679V13.9021C9.55163 15.251 10.5052 16.3689 11.776 16.626C11.5374 16.688 11.2919 16.7197 11.0454 16.7204C10.8648 16.7204 10.6939 16.7025 10.5214 16.6781C10.8729 17.7781 11.8964 18.5771 13.1152 18.6031C12.1617 19.35 10.9673 19.7893 9.67041 19.7893C9.43772 19.7893 9.22293 19.7812 9 19.7552C10.2302 20.5444 11.6898 21 13.2617 21C18.3646 21 21.1569 16.7725 21.1569 13.1031C21.1569 12.9827 21.1569 12.8623 21.1488 12.7419C21.689 12.3465 22.1625 11.8567 22.54 11.3067Z" fill="white"/>
</svg>
