<svg width="221" height="46" viewBox="0 0 221 46" fill="none" xmlns="http://www.w3.org/2000/svg">
<path d="M29.646 18.8224H36.8592V19.7929C34.9152 19.9206 34.7362 20.2781 34.7362 21.836V34.7333C34.7362 37.5171 36.322 38.9472 38.5474 38.9472C41.1053 38.9472 42.6656 37.3383 42.6656 34.6567V22.1169C42.6656 20.5591 42.1796 19.895 40.3379 19.7929V18.8224H46.0931V19.7929C44.277 19.9206 43.791 20.5591 43.791 22.1169V34.0182C43.791 37.7214 42.154 39.9177 37.9847 39.9177C33.7897 39.9177 31.7946 37.6447 31.7946 33.8905V21.836C31.7946 20.2781 31.6156 19.9206 29.646 19.7929V18.8224Z" fill="#000F9F"/>
<path d="M45.6581 39.4325V38.462C47.0905 38.4109 47.5765 37.8746 47.5765 36.9552V27.5823C47.5765 26.2798 47.2184 26.0755 45.6069 26.0244V25.0795L49.9809 24.8752V27.7866H50.032C50.8506 26.101 52.0016 24.7219 54.0479 24.7219C56.529 24.7219 57.7057 26.3309 57.7057 28.987V36.9552C57.7057 37.9767 58.1149 38.3854 59.5729 38.462V39.4325H55.1222V28.7571C55.1222 26.7906 54.3804 26.1266 53.3573 26.1266C51.7714 26.1266 50.1344 28.2208 50.1344 31.1578V36.9807C50.1344 37.8746 50.6204 38.4109 52.0528 38.4875V39.458H45.6581V39.4325Z" fill="#000F9F"/>
<path d="M60.2637 39.4324V38.4619C61.6961 38.4109 62.1821 37.8745 62.1821 36.9551V27.429C62.1821 26.1521 61.824 25.9222 60.2637 25.8711V24.9006L64.7655 24.7474V36.9807C64.7655 37.9001 65.2515 38.4364 66.6839 38.4875V39.458H60.2637V39.4324ZM64.7655 20.4568C64.7655 21.6061 64.1261 22.3723 63.2308 22.3723C62.3355 22.3723 61.6961 21.6061 61.6961 20.4568C61.6961 19.3076 62.3355 18.5414 63.2308 18.5414C64.1516 18.5414 64.7655 19.3076 64.7655 20.4568Z" fill="#000F9F"/>
<path d="M71.3389 19.563V25.0794H74.9711V26.2032H71.3389V36.7764C71.3389 38.1044 71.7993 38.6407 72.6178 38.6407C73.6154 38.6407 74.3572 38.0023 74.3572 34.8099V33.9671H75.3292V35.3717C75.3292 38.4109 74.2037 39.7389 71.9528 39.7389C69.9576 39.7389 68.7554 38.4875 68.7554 36.0868V26.1776H66.8882V25.3348C69.0624 24.441 70.1878 23.4194 70.3669 19.5885H71.3389V19.563Z" fill="#000F9F"/>
<path d="M79.3198 31.0301C79.3198 27.1992 80.4708 25.6924 82.159 25.6924C83.7449 25.6924 84.6401 27.1992 84.6401 31.0301H79.3198ZM87.6073 32.1538C87.6073 27.8377 85.5098 24.7219 82.1846 24.7219C78.7826 24.7219 76.4038 27.8377 76.4038 32.2304C76.4038 35.9847 78.8594 39.7645 82.5939 39.7645C85.9447 39.7645 87.4282 37.1595 87.7096 34.4779L86.7376 34.2991C86.4307 36.3422 85.5098 38.6408 82.9008 38.6408C80.9057 38.6408 79.3709 36.3678 79.3709 32.1538H87.6073Z" fill="#000F9F"/>
<path d="M92.0578 32.3325C92.0578 27.71 93.1321 25.8456 94.7947 25.8456C96.6108 25.8456 97.7362 28.0675 97.7362 32.3325C97.7362 37.4915 96.1504 38.8195 94.5645 38.8195C93.0298 38.8195 92.0578 36.9551 92.0578 32.3325ZM95.7667 19.7673C97.327 19.8184 97.7107 20.0227 97.7107 21.3252V26.7139L97.6595 26.7395C97.0712 25.5647 96.048 24.7474 94.6412 24.7474C91.495 24.7474 89.1162 27.9653 89.1162 32.3325C89.1162 37.0318 91.6229 39.8155 94.3087 39.8155C96.1248 39.8155 97.1223 38.7429 97.7874 37.3382H97.8385V39.458L102.033 39.2792V38.3087C100.831 38.3342 100.294 37.849 100.294 36.24V18.6436L95.7667 18.8223V19.7673Z" fill="#000F9F"/>
<path d="M102.775 39.4325V38.462C104.591 38.3343 104.872 37.9768 104.872 36.4189V21.8105C104.872 20.2526 104.565 19.895 102.775 19.7929V18.8224H110.039V19.7929C108.198 19.9206 107.814 20.2781 107.814 21.8105V28.0165H114.285V21.8105C114.285 20.2526 113.927 19.895 112.06 19.7929V18.8224H119.324V19.7929C117.534 19.9206 117.227 20.2781 117.227 21.8105V36.4189C117.227 37.9768 117.534 38.3343 119.324 38.462V39.4325H112.06V38.462C113.927 38.3343 114.285 37.9768 114.285 36.4189V29.1657H107.814V36.4189C107.814 37.9768 108.172 38.3343 110.039 38.462V39.4325H102.775Z" fill="#000F9F"/>
<path d="M122.727 31.0301C122.727 27.1992 123.852 25.6924 125.592 25.6924C127.177 25.6924 128.073 27.1992 128.073 31.0301H122.727ZM131.014 32.1538C131.014 27.8377 128.917 24.7219 125.592 24.7219C122.19 24.7219 119.785 27.8377 119.785 32.2304C119.785 35.9847 122.241 39.7645 125.975 39.7645C129.326 39.7645 130.81 37.1595 131.065 34.4779L130.093 34.2991C129.786 36.3422 128.866 38.6408 126.257 38.6408C124.236 38.6408 122.727 36.3678 122.727 32.1538H131.014Z" fill="#000F9F"/>
<path d="M138.739 33.4819C138.739 36.8786 137.358 38.6663 135.823 38.6663C134.902 38.6663 134.186 37.9001 134.186 36.2912C134.186 33.7372 136.335 32.6135 138.739 31.7707V33.4819ZM142.832 35.2951C142.78 37.466 142.525 38.1044 141.962 38.1044C141.553 38.1044 141.322 37.7214 141.322 36.853V28.5017C141.322 26.2543 140.018 24.7219 136.667 24.7219C134.058 24.7219 132.14 26.3309 132.14 28.374C132.14 29.5744 132.754 30.1873 133.598 30.1873C134.442 30.1873 135.107 29.5233 135.107 28.4506C135.107 27.5823 134.8 26.8672 133.853 26.7651C134.493 25.9989 135.363 25.6924 136.411 25.6924C137.997 25.6924 138.79 26.433 138.79 28.1442V30.5959C136.207 31.5664 131.475 32.9711 131.475 36.3933C131.475 38.3854 132.83 39.7645 135.132 39.7645C137.23 39.7645 138.151 38.7685 138.867 37.4404H138.918C139.097 39.0494 139.916 39.7645 141.348 39.7645C143.215 39.7645 143.829 38.4365 143.829 35.2696L142.832 35.2951Z" fill="#000F9F"/>
<path d="M143.394 39.4325V38.462C144.827 38.4109 145.313 37.8746 145.313 36.9552V21.3763C145.313 20.3547 144.801 19.8184 143.317 19.7673V18.7968L147.87 18.618V36.9552C147.87 37.849 148.356 38.3854 149.789 38.462V39.4325H143.394Z" fill="#000F9F"/>
<path d="M154.163 19.563V25.0794H157.795V26.2032H154.163V36.7764C154.163 38.1044 154.624 38.6407 155.416 38.6407C156.414 38.6407 157.181 38.0023 157.181 34.8099V33.9671H158.153V35.3717C158.153 38.4109 157.028 39.7389 154.777 39.7389C152.782 39.7389 151.58 38.4875 151.58 36.0868V26.1776H149.712V25.3348C151.861 24.441 153.012 23.4194 153.191 19.5885H154.163V19.563Z" fill="#000F9F"/>
<path d="M158.025 39.4324V38.4619C159.457 38.4109 159.943 37.8745 159.943 36.9551V21.3252C159.943 20.0482 159.585 19.8184 157.948 19.7673V18.8223L162.527 18.6436V27.4546H162.578C163.192 26.1265 164.317 24.7474 166.338 24.7474C168.666 24.7474 170.098 26.3564 170.098 29.0125V36.9807C170.098 37.8745 170.61 38.4109 171.965 38.4875V39.458H167.54V28.9358C167.54 26.8416 166.798 26.1521 165.699 26.1521C164.189 26.1521 162.552 28.1186 162.552 31.0045V37.0062C162.552 37.9001 163.038 38.4364 164.471 38.513V39.4835H158.025V39.4324Z" fill="#000F9F"/>
<path d="M183.143 34.4524C182.862 37.2872 181.557 39.8156 178.232 39.8156C175.188 39.8156 172.375 37.1084 172.375 32.6646C172.375 28.9104 174.984 24.6964 178.616 24.6964C181.174 24.6964 182.785 26.2798 182.785 28.6294C182.785 30.0596 182.35 30.8513 181.25 30.8513C180.406 30.8513 179.843 30.1363 179.843 29.0636C179.843 27.7866 180.304 27.2759 181.071 27.2759C181.276 27.2759 181.404 27.378 181.532 27.4036L181.583 27.3525C181.122 26.2543 180.176 25.6924 179.051 25.6924C176.8 25.6924 175.29 27.9399 175.29 32.2049C175.29 37.2872 176.851 38.7174 178.616 38.7174C181.046 38.7174 181.839 36.4955 182.171 34.3758L183.143 34.4524Z" fill="#000F9F"/>
<path d="M191.508 33.4563C191.508 36.8786 190.127 38.6663 188.592 38.6663C187.646 38.6663 186.929 37.9002 186.929 36.2912C186.929 33.7117 189.104 32.588 191.534 31.7197V33.4563H191.508ZM195.601 35.3207C195.549 37.4915 195.319 38.1811 194.731 38.1811C194.322 38.1811 194.091 37.7725 194.091 36.9041V28.4762C194.091 26.2032 192.812 24.6964 189.411 24.6964C186.776 24.6964 184.857 26.3054 184.857 28.374C184.857 29.5999 185.446 30.1873 186.29 30.1873C187.134 30.1873 187.773 29.5233 187.773 28.4251C187.773 27.5568 187.467 26.8162 186.52 26.7395C187.16 25.9734 188.029 25.6414 189.078 25.6414C190.689 25.6414 191.482 26.382 191.482 28.1187V30.596C188.873 31.5409 184.116 32.9711 184.116 36.4189C184.116 38.4109 185.471 39.8156 187.799 39.8156C189.922 39.8156 190.817 38.8196 191.559 37.466H191.61C191.789 39.1005 192.608 39.8156 194.066 39.8156C195.907 39.8156 196.521 38.462 196.521 35.2952L195.601 35.3207Z" fill="#000F9F"/>
<path d="M196.905 39.458V38.5131C198.184 38.462 198.644 37.9002 198.644 37.0063V28.8082C198.644 26.7651 198.286 26.1011 196.777 26.0244V25.054L200.921 24.8752V28.3485H200.972C201.355 26.7906 202.43 24.6964 204.22 24.6964C205.32 24.6964 206.42 25.6158 206.42 27.3014C206.42 28.6039 205.781 29.2679 205.013 29.2679C204.348 29.2679 203.658 28.8593 203.658 27.4802C203.658 26.7651 204.067 25.9989 204.936 25.9989C204.783 25.7691 204.476 25.6414 204.169 25.6414C202.148 25.6669 201.228 30.0852 201.228 32.7157V37.0063C201.228 37.9002 201.714 38.462 203.734 38.5131V39.458H196.905Z" fill="#000F9F"/>
<path d="M209.387 31.0557C209.387 27.1737 210.538 25.6414 212.252 25.6414C213.838 25.6414 214.759 27.1737 214.759 31.0557H209.387ZM217.675 32.2049C217.675 27.8377 215.577 24.6964 212.227 24.6964C208.825 24.6964 206.446 27.8377 206.446 32.3071C206.446 36.0613 208.901 39.8411 212.636 39.8411C216.012 39.8411 217.47 37.2361 217.726 34.5545L216.78 34.3758C216.473 36.4189 215.552 38.6919 212.917 38.6919C210.896 38.6919 209.362 36.4189 209.362 32.2305H217.675V32.2049Z" fill="#000F9F"/>
<path d="M218.749 21.4785C219.823 21.4785 220.667 22.3213 220.667 23.3939C220.667 24.4666 219.823 25.3094 218.749 25.3094C217.675 25.3094 216.831 24.4666 216.831 23.3939C216.831 22.3468 217.7 21.4785 218.749 21.4785ZM218.749 21.1465C217.496 21.1465 216.498 22.1425 216.498 23.3939C216.498 24.6453 217.496 25.6414 218.749 25.6414C219.977 25.6414 221 24.6453 221 23.3939C221 22.1425 220.002 21.1465 218.749 21.1465ZM218.34 23.5472H218.749C218.877 23.5472 219.107 23.5472 219.133 23.8281C219.158 24.1856 219.133 24.5177 219.235 24.6964H219.644C219.593 24.5432 219.542 24.1346 219.542 24.0324C219.516 23.5216 219.414 23.4195 219.081 23.3684C219.414 23.2918 219.644 23.0619 219.644 22.7555C219.644 22.449 219.414 22.117 218.928 22.117H217.905V24.6964H218.314V23.5472H218.34ZM218.34 22.3979H218.877C219.158 22.3979 219.261 22.6022 219.261 22.781C219.261 23.0108 219.133 23.1896 218.877 23.1896H218.34V22.3979Z" fill="#000F9F"/>
<path d="M3.50428 39.4325H3.55544C3.58102 39.4325 3.58102 39.4325 3.6066 39.4325C3.63218 39.4325 3.63218 39.4325 3.65775 39.4325C3.68333 39.4325 3.68333 39.4325 3.70891 39.4325C3.73449 39.4325 3.76007 39.4325 3.76007 39.4325C3.78565 39.4325 3.81123 39.4325 3.81123 39.4325C3.83681 39.4325 3.83681 39.4325 3.86238 39.4325C3.88796 39.4325 3.91354 39.4325 3.93912 39.4325C3.9647 39.4325 3.9647 39.4325 3.99028 39.4325C4.01586 39.4325 4.04143 39.4325 4.06701 39.4069C4.09259 39.4069 4.09259 39.4069 4.11817 39.4069C4.14375 39.4069 4.16933 39.4069 4.19491 39.3814C4.22049 39.3814 4.22049 39.3814 4.24606 39.3559C4.27164 39.3559 4.29722 39.3559 4.34838 39.3303C4.37396 39.3303 4.37396 39.3303 4.39954 39.3048C4.42512 39.3048 4.45069 39.2792 4.50185 39.2792C4.50185 39.2792 4.52743 39.2537 4.55301 39.2537C4.57859 39.2537 4.62975 39.2282 4.65532 39.2282C4.6809 39.2282 4.6809 39.2026 4.70648 39.2026C4.73206 39.2026 4.78322 39.1771 4.8088 39.1515C4.83437 39.1515 4.83437 39.1515 4.85995 39.126C4.88553 39.126 4.93669 39.1005 4.96227 39.0749C4.98785 39.0749 4.98785 39.0494 5.01343 39.0494C5.039 39.0238 5.09016 39.0238 5.11574 38.9983C5.14132 38.9983 5.14132 38.9728 5.1669 38.9728C5.19248 38.9472 5.24363 38.9472 5.26921 38.9217C5.29479 38.9217 5.29479 38.8961 5.32037 38.8961C5.34595 38.8706 5.39711 38.8451 5.44826 38.8195C5.47384 38.8195 5.47384 38.794 5.49942 38.794C5.55058 38.7685 5.57616 38.7429 5.62731 38.7174C5.65289 38.7174 5.65289 38.6918 5.67847 38.6918C5.70405 38.6663 5.75521 38.6408 5.80637 38.5897C5.83194 38.5641 5.83194 38.5641 5.85752 38.5386C5.90868 38.5131 5.93426 38.462 5.98542 38.4364C6.01099 38.4109 6.01099 38.4109 6.03657 38.3854C6.08773 38.3598 6.11331 38.3087 6.16447 38.2832C6.19005 38.2577 6.21562 38.2321 6.21562 38.2066C6.26678 38.1811 6.29236 38.13 6.31794 38.1044C6.34352 38.0789 6.3691 38.0534 6.39468 38.0278C6.42025 37.9767 6.47141 37.9512 6.49699 37.9001C6.52257 37.8746 6.54815 37.849 6.54815 37.8235C6.5993 37.7724 6.62488 37.7469 6.65046 37.6958C6.67604 37.6703 6.70162 37.6447 6.70162 37.6192C6.7272 37.5681 6.77836 37.517 6.80394 37.4915C6.82951 37.466 6.85509 37.4149 6.88067 37.3893C6.90625 37.3383 6.93183 37.2872 6.98299 37.2361C7.00856 37.2106 7.03414 37.1595 7.05972 37.1339C7.0853 37.0829 7.13646 37.0318 7.16204 36.9807C7.18761 36.9552 7.21319 36.9041 7.21319 36.853C7.23877 36.8019 7.28993 36.7509 7.31551 36.6998C7.34109 36.6487 7.36667 36.6232 7.36667 36.5721C7.39224 36.521 7.41782 36.4444 7.46898 36.3933C7.49456 36.3422 7.52014 36.2912 7.54572 36.2401C7.5713 36.189 7.59687 36.1379 7.62245 36.0613C7.64803 36.0102 7.67361 35.9591 7.69919 35.8825C7.67361 35.8315 7.69919 35.7548 7.72477 35.7038C7.75035 35.6527 7.77593 35.6016 7.8015 35.525C7.82708 35.4484 7.85266 35.3973 7.87824 35.3207C7.90382 35.2696 7.9294 35.193 7.9294 35.1419C7.95498 35.0653 7.98056 35.0142 8.00613 34.9376C8.03171 34.861 8.05729 34.7588 8.08287 34.6822C8.10845 34.6311 8.10845 34.58 8.13403 34.529C8.18518 34.3757 8.21076 34.248 8.26192 34.0948C8.85023 31.9495 9.0037 27.6078 9.0037 24.6964V6.23157L0 11.0585V30.1107C0 37.3638 1.30451 39.1005 2.91597 39.3814H2.89039L3.50428 39.4325Z" fill="#000F9F"/>
<path d="M5.78053 41.3735C9.36155 40.8882 11.4078 36.9552 11.8938 35.0142C12.6868 32.3326 12.8403 29.0125 12.8403 25.2327V4.18848L9.02903 6.23161L11.0242 6.66577V23.5472C11.0242 27.9144 10.9219 31.7197 10.2056 34.2481C9.20808 37.8235 7.39199 39.2537 6.13863 39.739L2.91572 39.3814H2.89014C3.22266 40.403 4.0156 41.1692 4.96201 41.3224L5.78053 41.3735Z" fill="#758592"/>
<path d="M4.9624 41.3479C5.26935 42.1907 6.11344 42.9569 6.98312 43.1612L7.80164 43.2378C11.5106 43.2123 13.9661 39.5857 14.8358 37.6703C16.0891 34.861 16.703 30.8513 16.703 25.105V2.11975L12.8406 4.18842L14.8869 4.64813V24.2367C14.8869 29.1402 14.6823 33.2775 13.5057 36.3933C12.457 39.0749 10.5897 41.1436 8.28763 41.7054L5.78092 41.3734L4.9624 41.3479Z" fill="#758592"/>
<path d="M16.7028 2.11975L18.8003 2.57946V24.2367C18.8003 30.8768 18.1096 35.4228 16.6261 38.4875C15.2448 41.3479 12.9172 43.2123 10.6918 43.5953L7.80143 43.2378L6.98291 43.1612C7.67354 44.336 8.90131 44.9489 10.2058 45C11.9963 45.0766 13.4799 44.2849 14.8611 43.3655C19.2607 40.3263 20.6419 33.5585 20.6419 24.4154V0L16.7028 2.11975Z" fill="#758592"/>
</svg>
