<svg width="178" height="30" viewBox="0 0 178 30" fill="none" xmlns="http://www.w3.org/2000/svg">
<g clip-path="url(#clip0)">
<path d="M0.228183 0.228027C9.46773 0.684301 20.7605 -1.59707 26.0077 6.844C26.578 7.75654 28.0609 10.6083 28.9734 12.5474C31.8251 18.7071 34.2206 25.5512 40.4943 29.6577C33.9924 30.3421 25.8936 30.5702 20.6464 26.1216C11.7491 18.479 13.4601 3.19381 0.228183 0.342096C4.63044e-05 0.342096 -0.114022 0.228027 0.228183 0.228027Z" fill="#005DAA"/>
<path d="M46.4257 9.35355C49.9618 16.1977 51.6728 23.9543 58.4029 29.6577C52.2432 30.3421 44.3724 30.5703 39.4675 26.1216C31.939 18.365 31.5968 6.61591 22.2432 0.228078C31.939 -0.570401 41.5207 0.456215 46.4257 9.35355Z" fill="#005DAA"/>
<path d="M85.095 8.66915C83.9543 8.78322 83.2699 9.46763 82.9277 10.7224L76.654 29.6577H75.8555L70.6083 14.9429H70.3802L64.6768 29.6577H63.7642L57.1483 10.7224C56.5779 9.23949 56.3498 8.89729 54.981 8.66915V7.98474H64.2205V8.78322C63.0798 8.89729 62.1673 8.89729 62.1673 10.152C62.1673 10.4942 62.2813 10.8365 62.3954 11.1787L66.1597 22.4714L69.8099 12.8897L68.6692 9.9239C68.2129 9.23949 67.8707 8.89729 66.3878 8.78322V7.98474H76.1977V8.78322C74.8289 8.89729 73.9163 8.89729 73.9163 9.9239C73.9163 10.2661 74.1445 11.0646 74.3726 11.6349L77.6806 22.1292H77.7946L81.3308 11.5209C81.4448 11.1787 81.5589 10.8365 81.5589 10.152C81.5589 8.89729 80.4182 8.78322 79.3916 8.78322V7.98474H85.095V8.66915Z" fill="#005DAA"/>
<path d="M94.5627 25.6654C92.6235 28.6312 90.9125 29.5437 88.403 29.5437C85.2091 29.5437 82.0151 27.2623 82.0151 21.9011C82.0151 17.2243 84.8668 14.2585 88.517 14.2585C93.9923 14.2585 94.3345 19.7338 94.4486 21.4449H86.5779C86.6919 24.0684 87.3763 27.2623 90.3421 27.2623C92.1672 27.2623 93.3079 25.8935 93.8783 25.2091L94.5627 25.6654ZM90.5703 20.3042C90.5703 19.2776 90.5703 17.6806 90.3421 16.7681C90.114 16.0836 89.7718 15.2852 88.6311 15.2852C87.4904 15.2852 86.3497 15.9696 86.3497 20.3042H90.5703Z" fill="#005DAA"/>
<path d="M102.662 29.0874H95.1333V28.2889C96.3881 28.2889 96.7303 27.1482 96.7303 26.4638V10.4942C96.7303 10.152 96.6162 8.66915 95.1333 8.66915V7.98474H101.065V26.5779C101.065 27.4904 101.407 28.403 102.548 28.403V29.0874" fill="#005DAA"/>
<path d="M111.445 29.0874H103.917V28.2889C105.171 28.2889 105.513 27.1482 105.513 26.4638V10.4942C105.513 10.152 105.399 8.66915 103.917 8.66915V7.98474H109.848V26.5779C109.848 27.4904 110.19 28.403 111.331 28.403V29.0874" fill="#005DAA"/>
<path d="M132.433 25.095C130.152 27.7185 127.643 29.6577 123.65 29.6577C116.35 29.6577 112.357 24.5246 112.357 18.5931C112.357 12.2052 116.92 7.30029 123.422 7.30029C126.274 7.30029 128.669 8.78318 129.468 8.78318C130.266 8.78318 130.608 8.09877 130.951 7.30029H131.749V14.6007H131.179C130.038 11.863 127.414 8.21284 123.878 8.21284C119.316 8.21284 118.061 13.0037 118.061 18.3649C118.061 20.19 118.289 23.2699 119.43 25.209C120.798 27.4904 123.194 27.9467 124.221 27.9467C126.616 27.9467 129.011 27.0341 131.635 24.0684L132.433 25.095Z" fill="#005DAA"/>
<path d="M147.491 27.8326C146.578 28.8592 145.437 29.6577 144.069 29.6577C141.901 29.6577 141.673 28.2889 141.445 27.4904C139.392 29.5436 137.224 29.6577 136.426 29.6577C134.943 29.6577 133.004 28.6311 133.004 26.3497C133.004 23.0417 136.996 21.787 141.445 20.5322V18.2508C141.445 16.6539 140.989 15.5132 138.707 15.5132C137.567 15.5132 136.882 16.0835 136.882 16.6539C136.882 17.3383 137.795 17.5664 137.795 18.8212C137.795 19.3915 137.339 20.5322 135.742 20.5322C135.399 20.5322 133.688 20.5322 133.688 18.3649C133.688 16.4257 135.627 14.4866 139.506 14.4866C143.042 14.4866 145.78 15.8554 145.78 18.8212V27.0341C145.78 27.2622 145.78 27.8326 146.464 27.8326C146.578 27.8326 146.692 27.8326 146.806 27.7185L147.148 27.3763L147.491 27.8326ZM141.331 21.4447C140.646 21.5588 137.453 22.4714 137.453 25.209C137.453 26.2356 137.909 27.2622 139.05 27.2622C140.076 27.2622 140.875 26.4638 141.331 25.8934V21.4447Z" fill="#005DAA"/>
<path d="M156.616 29.0874H148.289V28.289C149.316 28.0608 150 27.9468 150 26.4639V17.2243C150 15.6274 149.202 15.5133 148.289 15.3992V14.6008H154.221V17.1103H154.335C155.019 16.0836 156.388 14.2585 158.441 14.2585C160.608 14.2585 161.065 15.9696 161.065 16.654C161.065 17.4525 160.608 18.7072 159.011 18.7072C157.186 18.7072 157.186 16.8821 156.274 16.8821C155.818 16.8821 154.449 17.5665 154.449 19.8479V25.7795C154.449 27.7186 154.791 28.1749 156.73 28.289V29.0874" fill="#005DAA"/>
<path d="M173.612 25.6654C171.673 28.6312 169.962 29.5437 167.452 29.5437C164.258 29.5437 161.064 27.2623 161.064 21.9011C161.064 17.2243 163.916 14.2585 167.566 14.2585C173.042 14.2585 173.384 19.7338 173.498 21.4449H165.627C165.741 24.0684 166.426 27.2623 169.391 27.2623C171.217 27.2623 172.357 25.8935 172.928 25.2091L173.612 25.6654ZM169.62 20.3042C169.62 19.2776 169.62 17.6806 169.391 16.7681C169.163 16.0836 168.821 15.2852 167.68 15.2852C166.54 15.2852 165.399 15.9696 165.399 20.3042H169.62Z" fill="#005DAA"/>
<path d="M176.35 15.7414C176.008 16.0836 175.437 16.3118 174.981 16.3118C174.411 16.3118 173.954 16.0836 173.498 15.7414C173.156 15.3992 172.928 14.8289 172.928 14.2586C172.928 13.6882 173.156 13.2319 173.612 12.7757C173.954 12.4335 174.411 12.2053 174.981 12.2053C175.551 12.2053 176.008 12.4335 176.35 12.7757C176.692 13.1179 176.92 13.6882 176.92 14.1445C177.034 14.8289 176.806 15.2852 176.35 15.7414ZM173.84 13.1179C173.498 13.4601 173.384 13.8023 173.384 14.2586C173.384 14.7148 173.498 15.1711 173.84 15.3992C174.182 15.7414 174.525 15.8555 174.981 15.8555C175.437 15.8555 175.779 15.7414 176.122 15.3992C176.464 15.057 176.578 14.7148 176.578 14.2586C176.578 13.8023 176.464 13.4601 176.122 13.1179C175.779 12.7757 175.437 12.6616 174.981 12.6616C174.525 12.5475 174.182 12.7757 173.84 13.1179ZM174.068 15.3992V13.1179C174.182 13.1179 174.411 13.1179 174.639 13.1179C174.867 13.1179 175.095 13.1179 175.095 13.1179C175.323 13.1179 175.437 13.1179 175.551 13.2319C175.779 13.346 175.894 13.5741 175.894 13.8023C175.894 14.0304 175.894 14.1445 175.779 14.2586C175.665 14.3726 175.551 14.3726 175.437 14.3726C175.551 14.3726 175.665 14.4867 175.779 14.4867C175.894 14.6008 176.008 14.7148 176.008 14.943V15.1711C176.008 15.1711 176.008 15.1711 176.008 15.2852C176.008 15.2852 176.008 15.2852 176.008 15.3992V15.5133H175.437C175.437 15.3992 175.437 15.2852 175.437 15.1711C175.437 15.057 175.437 14.943 175.437 14.943C175.437 14.8289 175.323 14.8289 175.323 14.8289C175.323 14.8289 175.209 14.8289 175.095 14.8289H174.981H174.867V15.6274H174.068V15.3992ZM175.209 13.5741C175.095 13.5741 174.981 13.5741 174.867 13.5741H174.753V14.2586H174.981C175.095 14.2586 175.209 14.2586 175.323 14.1445C175.437 14.1445 175.437 14.0304 175.437 13.9163C175.323 13.6882 175.323 13.5741 175.209 13.5741Z" fill="#005DAA"/>
</g>
<defs>
<clipPath id="clip0">
<rect width="177.034" height="30" fill="white"/>
</clipPath>
</defs>
</svg>
