<svg width="55" height="55" viewBox="0 0 55 55" fill="none" xmlns="http://www.w3.org/2000/svg">
<path d="M9.94523 26.1756L11.691 25.858C12.1124 25.7817 12.4193 25.4145 12.4193 24.9851V23.5391C12.4193 23.2429 12.2712 22.9652 12.0246 22.8011L11.7336 22.6068C10.4997 21.7845 9.75805 20.3997 9.75805 18.9165V18.6291H7.98386C7.00362 18.6291 6.20967 17.8351 6.20967 16.8549C6.20967 15.8746 7.00362 15.0807 7.98386 15.0807H9.75805V13.3065H9.91064C11.5172 13.3065 13.0581 12.6687 14.1935 11.5323L14.7258 12.242C16.0662 14.0286 18.1695 15.0807 20.4032 15.0807H22.1774C23.1577 15.0807 23.9516 15.8746 23.9516 16.8549C23.9516 17.8351 23.1577 18.6291 22.1774 18.6291H20.4032V18.9165C20.4032 20.3997 19.6616 21.7845 18.4277 22.6068L18.1367 22.8011C17.8901 22.9661 17.7419 23.2429 17.7419 23.5391V24.9745C17.7419 25.4083 18.0551 25.7782 18.4835 25.8491L21.0384 26.2749C22.0355 26.4408 22.9935 26.7762 23.8735 27.2632C24.5007 26.2723 24.8387 25.1324 24.8387 23.9516V13.3065C24.8387 7.92625 20.4609 3.54843 15.0806 3.54843C9.70039 3.54843 5.32257 7.92625 5.32257 13.3065V23.9516C5.32257 25.2743 5.73596 26.5313 6.51039 27.5958C7.51814 26.903 8.67846 26.4062 9.94523 26.1756Z" fill="#DF453E"/>
<path d="M40.8065 0C32.9805 0 26.6129 6.36758 26.6129 14.1935V15.0806C26.6129 15.471 26.8684 15.8169 27.2427 15.9296C27.6162 16.0431 28.0225 15.8977 28.2381 15.573L28.5361 15.1259C29.2955 13.9869 30.5667 13.3065 31.9355 13.3065C33.3043 13.3065 34.5755 13.9869 35.3348 15.1259L35.6329 15.573C35.962 16.0671 36.7799 16.0671 37.109 15.573L37.4071 15.1259C37.9988 14.2388 38.9027 13.6347 39.9194 13.4094V23.0645H38.5364C37.3894 23.0645 36.3745 23.7955 36.0117 24.8848L35.6294 26.0301L29.3061 29.9821L25.2512 27.0848C24.0474 26.2261 22.6414 25.6433 21.183 25.4002L18.629 24.9744V23.5391L18.92 23.3448C20.2356 22.4675 21.0783 21.065 21.2531 19.5161H22.1774C23.6447 19.5161 24.8387 18.3221 24.8387 16.8548C24.8387 15.3876 23.6447 14.1935 22.1774 14.1935H21.2903H20.4032C18.4587 14.1935 16.602 13.2648 15.4346 11.7097L14.2894 10.1812L13.5664 10.9051C12.5897 11.8818 11.2919 12.4194 9.91064 12.4194H8.87097V14.1935H7.98387C6.51661 14.1935 5.32258 15.3876 5.32258 16.8548C5.32258 18.3221 6.51661 19.5161 7.98387 19.5161H8.90823C9.08298 21.0659 9.92573 22.4675 11.2413 23.3448L11.5323 23.5391V24.9851L9.78645 25.3018C5.14427 26.1472 1.77419 30.1844 1.77419 34.9037V36.9414L0.290968 42.4139C0.0975807 43.1253 0 43.8607 0 44.5979C0 47.135 1.12927 49.4991 3.09952 51.0844L7.25468 54.4296C7.71065 54.7977 8.28548 55 8.87097 55C9.45645 55 10.0313 54.7969 10.4873 54.4287L11.9829 53.2258H23.9516V51.4516C23.9516 48.5437 23.0264 45.666 21.3551 43.2885L23.0743 35.8378L24.4652 36.8234C25.6859 37.6883 27.1212 38.1452 28.6169 38.1452C30.407 38.1452 32.1209 37.4816 33.4444 36.2787L39.9194 30.3919V31.9355C39.9194 33.8924 41.5108 35.4839 43.4677 35.4839C45.4247 35.4839 47.0161 33.8924 47.0161 31.9355H45.2419C45.2419 32.914 44.4462 33.7097 43.4677 33.7097C42.4893 33.7097 41.6935 32.914 41.6935 31.9355V29.9981C41.9721 30.0974 42.2684 30.1613 42.5806 30.1613H43.4677C44.4462 30.1613 45.2419 29.3656 45.2419 28.3871V24.8387C45.2419 23.8602 44.4462 23.0645 43.4677 23.0645H42.5806C42.2737 23.0645 41.9756 23.1195 41.6935 23.2189V13.4094C42.7102 13.6347 43.6141 14.2388 44.2058 15.1259L44.5039 15.573C44.833 16.0671 45.6509 16.0671 45.98 15.573L46.2781 15.1259C47.0374 13.9869 48.3086 13.3065 49.6774 13.3065C51.0462 13.3065 52.3174 13.9869 53.0768 15.1259L53.3748 15.573C53.5416 15.824 53.8219 15.9677 54.1129 15.9677C54.199 15.9677 54.285 15.9553 54.3702 15.9296C54.7445 15.8169 55 15.471 55 15.0806V14.1935C55 6.36758 48.6324 0 40.8065 0ZM22.1774 15.9677C22.6671 15.9677 23.0645 16.366 23.0645 16.8548C23.0645 17.3436 22.6671 17.7419 22.1774 17.7419H21.2903V15.9677H22.1774ZM7.09677 16.8548C7.09677 16.366 7.49419 15.9677 7.98387 15.9677H8.87097V17.7419H7.98387C7.49419 17.7419 7.09677 17.3436 7.09677 16.8548ZM31.9355 11.5323C30.6731 11.5323 29.4702 11.935 28.4811 12.6571C29.15 7.2671 33.2856 2.94161 38.5789 1.97823C37.3432 3.75508 35.8644 7.04089 35.5477 12.7831C34.5302 11.9847 33.2661 11.5323 31.9355 11.5323ZM11.849 26.7309C12.6935 26.5774 13.3065 25.8438 13.3065 24.9851V23.5391C13.3065 22.9448 13.011 22.393 12.516 22.063L12.2251 21.8687C11.236 21.2096 10.6452 20.106 10.6452 18.9165V14.1554C11.8871 14.0259 13.0572 13.5673 14.0534 12.8239C15.3752 14.5573 17.3676 15.6741 19.5161 15.9172V18.9165C19.5161 20.1052 18.9253 21.2087 17.9362 21.8687L17.6452 22.063C17.1502 22.393 16.8548 22.9448 16.8548 23.5391V24.9744C16.8548 25.8456 17.4785 26.5819 18.3381 26.7247L19.0273 26.84C18.2857 28.3055 16.7821 29.2742 15.0806 29.2742C13.3907 29.2742 11.8906 28.3135 11.1437 26.8595L11.849 26.7309ZM9.75806 52.7388V47.9032H7.98387V52.7397L4.21194 49.7031C2.66306 48.4568 1.77419 46.5956 1.77419 44.5979C1.77419 44.0169 1.85137 43.4376 2.00306 42.8778L3.63177 36.8704C5.12653 36.7498 6.58226 36.4206 7.98387 35.9088V46.129H9.75806V35.9088C11.1597 36.4206 12.6145 36.7506 14.1102 36.8704L15.7389 42.8769C15.8906 43.4385 15.9677 44.0177 15.9677 44.5979C15.9677 46.5948 15.0789 48.4559 13.53 49.7023L9.75806 52.7388ZM14.1873 51.4516L14.6424 51.0852C16.6127 49.5 17.7419 47.1359 17.7419 44.5979C17.7419 44.5163 17.7277 44.4356 17.726 44.3548H19.9499C21.3888 46.4253 22.1774 48.9278 22.1774 51.4516H14.1873ZM23.5063 33.9687L23.9294 32.1351L22.2005 31.7359L21.3347 35.4839H18.629V37.2581H20.9257L19.6971 42.5806H17.4847C17.4705 42.5256 17.466 42.468 17.451 42.413L15.486 35.1645L14.8376 35.1379C13.0137 35.0616 11.2502 34.6473 9.58331 33.9288L8.82573 31.6552L7.14379 32.2167L7.76742 34.0876C6.4146 34.6234 5.00234 34.956 3.54839 35.0794V34.9037C3.54839 31.3003 5.94976 28.1848 9.35798 27.2232C10.309 29.5093 12.5453 31.0484 15.0806 31.0484C17.6515 31.0484 19.9047 29.4729 20.8344 27.1398L20.8929 27.1496C22.0852 27.3483 23.2366 27.8256 24.2213 28.5281L28.2256 31.389L26.6936 35.9851C26.2731 35.8298 25.8633 35.6391 25.4907 35.3756L23.5063 33.9687ZM32.2504 34.9658C31.2125 35.9097 29.826 36.3568 28.451 36.3213L30.0149 31.6321L37.1117 27.1966L37.6945 25.4464C37.816 25.0827 38.1549 24.8387 38.5364 24.8387H40.8065C40.8065 25.8172 40.0107 26.6129 39.0323 26.6129H38.1452V28.3871H39.0323C39.2079 28.3871 39.3756 28.3596 39.545 28.3356L32.2504 34.9658ZM43.4677 24.8387V28.3871H42.5806C42.091 28.3871 41.6935 27.9888 41.6935 27.5V27.1611C42.2391 26.5375 42.5806 25.7311 42.5806 24.8387H43.4677ZM40.8065 11.5323C39.5379 11.5323 38.3297 11.9421 37.3379 12.6713C37.7548 5.90274 39.8573 3.0179 40.8065 2.05452C41.7556 3.0179 43.8581 5.90274 44.275 12.6713C43.2832 11.9421 42.075 11.5323 40.8065 11.5323ZM49.6774 11.5323C48.3468 11.5323 47.0827 11.9847 46.066 12.7831C45.7485 7.04089 44.2706 3.75508 43.0348 1.97823C48.3281 2.94161 52.4638 7.2671 53.1318 12.6571C52.1427 11.935 50.9398 11.5323 49.6774 11.5323Z" fill="#0A436B"/>
</svg>
